<svg  xmlns="http://www.w3.org/2000/svg"
  viewBox="0 0 122.88 122.88" >
    <path
     d="M58.94,24.28a14.27,14.27,0,0,1,20.35-20l39.49,40.16a14.28,14.28,0,0,1,0,20L80.09,103.79a14.27,14.27,0,1,1-20.35-20L74.82,68.41l-60.67-.29a14.27,14.27,0,0,1,.24-28.54l59.85.28L58.94,24.28Z"
     id="path4" />
  <path
     style="fill:#000000;fill-rule:evenodd;stroke-width:0.0138184;stroke-linejoin:round"
     d="m 67.226584,107.99552 c -5.444905,-1.0004 -9.825561,-5.05238 -11.284147,-10.437517 -0.272803,-1.007195 -0.318506,-1.509307 -0.320728,-3.523696 -0.0022,-2.019236 0.04183,-2.514078 0.313754,-3.523695 0.402681,-1.495115 1.608847,-3.953041 2.508988,-5.112813 0.383417,-0.494009 4.237968,-4.504803 8.56567,-8.912877 l 7.868548,-8.014681 -1.75328,-0.102655 C 72.161085,68.311127 58.15825,68.211094 42.007979,68.145292 13.297971,68.028317 12.616078,68.019445 11.397195,67.747005 6.1431056,66.57263 2.1866466,62.888101 0.59997293,57.691878 0.24395752,56.525958 0.22030323,56.288429 0.22154486,53.891815 c 0.00158,-3.050118 0.18594653,-3.903038 1.35907474,-6.287379 2.3041745,-4.683151 6.8041335,-7.638644 12.0305184,-7.901427 0.836014,-0.04204 14.820615,-0.0056 31.07689,0.08092 16.256275,0.08654 29.578892,0.135315 29.605814,0.108393 0.02692,-0.02692 -3.448773,-3.612642 -7.723771,-7.968267 -4.274996,-4.355624 -8.101108,-8.330207 -8.502473,-8.832407 -0.970566,-1.214404 -2.018153,-3.358137 -2.47201,-5.058615 -0.324334,-1.215181 -0.368815,-1.640164 -0.368815,-3.523695 0,-1.882145 0.04453,-2.308213 0.367204,-3.513832 2.33951,-8.7410782 11.857742,-13.1456157 19.923656,-9.2196205 0.760012,0.3699279 1.777045,0.9713597 2.260072,1.3365153 0.483026,0.3651556 8.253227,8.1622972 17.267114,17.3269822 9.013891,9.164683 18.168911,18.466365 20.344501,20.670402 4.22969,4.284999 4.93434,5.124677 5.88199,7.009165 2.58161,5.133734 1.75816,11.471224 -2.03683,15.676142 -1.76724,1.958134 -40.221788,40.938528 -40.894323,41.453538 -3.122717,2.39128 -7.355228,3.43741 -11.113573,2.74689 z"
     id="path900" />
</svg>
