<svg  xmlns="http://www.w3.org/2000/svg"
  viewBox="0 0 122.88 122.88" >
     <path
       d="M26.89,85.72c3.06,1.6,6.52,2.44,9.91,2.49c3.06,0.05,6.03-0.55,8.57-1.8c0.29-0.19,0.57-0.38,0.84-0.59 c0.88-0.66,1.66-1.43,2.34-2.31c-0.59-1.03-1.09-2.11-1.51-3.25c-0.32-0.87-0.58-1.77-0.78-2.7c-3.23,1.15-6.5,1.73-9.71,1.68 c-1.99-0.03-3.96-0.3-5.87-0.82l-0.02,0l0,0c-1.01-0.27-2.01-0.6-2.98-1c-0.24,1.03-0.56,2.03-0.97,2.98 c-0.51,1.2-1.14,2.35-1.91,3.44C25.45,84.54,26.15,85.17,26.89,85.72L26.89,85.72z M51.7,82.61l0.04,0.02l0.01,0l0,0 c2.84,1.26,5.62,2.87,8.24,5.28c2.61,2.41,5.03,5.59,7.17,9.98c2.79,5.72,4.21,11.66,5.64,17.68l0.66,2.78l1.11,4.53h-3.55 l-0.91-3.72c-0.45-1.84-0.56-2.31-0.68-2.79c-1.39-5.83-2.76-11.59-5.38-16.97c-1.94-3.98-4.1-6.82-6.4-8.95 c-1.97-1.82-4.07-3.13-6.23-4.17c-2.05,2.07-4.65,3.53-7.5,4.4c-2.11,0.82-4.39,1.25-6.69,1.31c-3.43,0.08-6.91-0.68-9.97-2.3 c-1.89-0.78-3.69-1.8-5.32-3.04c-0.98,0.82-1.84,1.53-2.65,2.2c-8.24,6.81-11.75,9.72-14.6,22.84c-0.59,2.73-0.97,5.27-1.14,7.83 c-0.07,1.1-0.1,2.21-0.1,3.35H0c-0.01-1.2,0.03-2.39,0.11-3.57c0.18-2.76,0.58-5.47,1.2-8.35c3.1-14.3,6.89-17.43,15.78-24.78 c1.2-0.99,2.49-2.06,3.72-3.1c0.27-0.23,0.58-0.36,0.91-0.4c0.85-1.08,1.54-2.26,2.07-3.52c0.43-1.02,0.75-2.1,0.96-3.23 c-1.2-0.72-2.36-1.56-3.45-2.53c-4.47-3.96-7.59-7.2-9.6-10.94c-2.04-3.8-2.9-8.01-2.79-13.87l0.32-16.95 c0-0.18,0.04-0.35,0.09-0.52L5.38,29.9C4.8,17.4,12.04,9.93,21,6.33c3.27-1.31-2.2-8.46,5.31-5.71 c10.03,3.67,32.28,8.67,37.55,14.97c4.28,5.12,4.46,7.89,4.35,14.57c-0.03,2.17-0.37,4.07-1.37,4.78c-0.46,0.33-1.01,0.45-1.66,0.4 v14.5c0,8.03-2.87,14.74-7.28,19.71c-2.49,2.8-5.46,5.05-8.68,6.67c0.19,1.03,0.46,2.02,0.8,2.97 C50.46,80.39,51.02,81.53,51.7,82.61L51.7,82.61z M12.7,122.88c0.4-1.15,0.9-2.41,1.42-3.71c0.13-0.53,0.27-1.06,0.41-1.59 c0.85-3.13,1.91-6.2,3.24-9.45h0c0.26-0.62,0.87-1.06,1.58-1.07c0.95-0.01,1.73,0.76,1.74,1.71c0.03,2.36-1.64,6.45-3.24,10.36 l-0.41,1c-0.22,0.9-0.43,1.81-0.62,2.74H12.7L12.7,122.88z M57.96,122.88c-0.12-0.54-0.24-1.07-0.37-1.59 c-0.37-0.82-0.76-1.67-1.15-2.51c-2.29-4.96-4.52-9.78-2.18-11.13c0.05-0.03,0.11-0.06,0.17-0.09c0.86-0.41,1.89-0.04,2.3,0.82 c1.3,2.74,2.44,5.74,3.4,9c0.27,0.91,0.52,1.84,0.76,2.78c0.42,0.94,0.81,1.86,1.15,2.71H57.96L57.96,122.88z M19.82,58.18 c-0.04,0.29-0.17,0.57-0.38,0.78c0.73,8.28,5.08,13.39,10.47,15.61c2.29,0.94,4.77,1.37,7.25,1.31c2.48-0.07,4.94-0.63,7.2-1.67 c5.51-2.53,9.78-7.93,9.92-15.92c-5.81-2.83-11.63-3.97-17.44-3.82C31.19,54.61,25.51,55.97,19.82,58.18L19.82,58.18z M16.71,57.57 l-4.65-7.86c0.01,4.73,0.77,8.19,2.42,11.26c0.98,1.82,2.29,3.54,3.96,5.33C17.45,63.8,16.83,60.89,16.71,57.57L16.71,57.57z M12.15,44.66l6.57,11.12c6.01-2.34,12.03-3.79,18.07-3.95c6.12-0.16,12.25,1.02,18.37,3.95L62,44.49v-9.34h0 c-0.04-1.01-0.18-1.94-0.46-2.78c-0.26-0.81-0.64-1.52-1.16-2.13c-1.95-2.28-3.79-2.19-6.43-2.06c-0.24,0.01-0.48,0.02-0.81,0.04 c-10.41,0.46-17.24,0.45-22.78-0.04c-5.11-0.45-9.12-1.28-13.78-2.52c-0.44,1.03-0.95,2.04-1.55,3.03 c-0.76,1.26-1.65,2.46-2.66,3.61L12.15,44.66L12.15,44.66z M62,49.58l-5.07,8.37c-0.01,4.35-1.1,8.05-2.91,11.06 c0.52-0.49,1.02-1.01,1.5-1.56C59.45,63.04,62,57.04,62,49.84V49.58L62,49.58z M49.85,41.54c1.89,0,3.43,1.53,3.43,3.43 c0,1.89-1.53,3.43-3.43,3.43c-1.89,0-3.43-1.53-3.43-3.43C46.42,43.08,47.96,41.54,49.85,41.54L49.85,41.54z M23.99,41.54 c1.89,0,3.43,1.53,3.43,3.43c0,1.89-1.53,3.43-3.43,3.43c-1.89,0-3.43-1.53-3.43-3.43C20.57,43.08,22.1,41.54,23.99,41.54 L23.99,41.54z"
        /><path
     style="fill:#ffffff;fill-rule:evenodd;stroke-width:0.157135;stroke-miterlimit:4.5"
     d="M 33.015429,75.407253 C 25.888418,73.911335 20.88162,68.298364 19.738349,60.522717 c -0.32269,-2.19469 -0.375101,-2.135505 2.849306,-3.217539 11.45611,-3.844395 21.073165,-3.66771 30.563444,0.561514 1.237186,0.551337 1.205135,0.430124 0.814843,3.081734 -1.092537,7.422582 -6.350297,12.980805 -13.685357,14.467431 -2.126563,0.430999 -5.188025,0.427373 -7.265156,-0.0086 z"
      /><path
     style="fill:#ffffff;fill-rule:evenodd;stroke-width:0.157135;stroke-miterlimit:4.5"
     d="m 15.484157,50.114244 -3.262567,-5.527099 0.115906,-6.107589 0.115906,-6.107588 0.791909,-0.98312 c 1.057719,-1.313112 1.975142,-2.7481 2.768851,-4.330902 0.507206,-1.011462 0.714897,-1.28706 0.923297,-1.22518 1.85901,0.551999 6.41536,1.517593 8.949612,1.896626 5.300411,0.792751 13.824451,1.057586 23.081056,0.717109 6.778313,-0.24932 7.978923,-0.240648 8.83529,0.06382 1.585153,0.563572 2.963653,2.044819 3.664998,3.93817 0.331501,0.894917 0.352164,1.22311 0.406761,6.460239 l 0.05752,5.517425 -3.379233,5.560631 c -1.929337,3.174783 -3.467724,5.547225 -3.585478,5.529387 -0.113435,-0.01718 -1.160844,-0.42123 -2.327575,-0.897882 -9.398678,-3.839701 -19.7011,-3.80968 -31.191406,0.09089 -1.296368,0.440074 -2.434713,0.829839 -2.529655,0.866148 -0.09494,0.03631 -1.640777,-2.42118 -3.43519,-5.461085 z m 10.119998,-2.026207 c 2.470511,-1.26036 2.486868,-4.880576 0.02785,-6.165181 -2.17366,-1.135534 -4.588699,0.05021 -5.120652,2.514156 -0.27237,1.261589 0.614805,3.022888 1.824171,3.621507 0.909357,0.450118 2.417486,0.463739 3.268628,0.02952 z m 26.268574,-0.242289 c 1.772333,-1.245643 1.945088,-3.936146 0.349947,-5.450098 -0.887865,-0.842676 -2.313761,-1.139067 -3.526493,-0.73303 -2.267807,0.759292 -3.094109,3.780248 -1.523324,5.569272 0.811904,0.924708 1.437813,1.174668 2.822831,1.127314 1.04942,-0.03588 1.291905,-0.10221 1.877039,-0.513458 z"
      /><path
     style="fill:#ffffff;fill-rule:evenodd;stroke-width:0.157135;stroke-miterlimit:4.5"
     d="m 17.10632,64.619168 c -3.216968,-3.933405 -4.52398,-7.421609 -4.929965,-13.157277 -0.120407,-1.701084 -0.338783,-1.945011 2.391491,2.671305 l 2.044598,3.456982 0.108283,1.41422 c 0.120183,1.569646 0.730899,4.806894 1.108865,5.87781 0.134393,0.380786 0.221298,0.715391 0.193121,0.743568 -0.02818,0.02818 -0.440554,-0.424797 -0.916393,-1.006608 z"
      /><path
     style="fill:#ffffff;fill-rule:evenodd;stroke-width:0.157135;stroke-miterlimit:4.5"
     d="m 54.84739,67.8563 c -0.0039,-0.05765 0.142059,-0.446565 0.324345,-0.864245 0.967758,-2.217474 1.589833,-4.852891 1.792714,-7.594818 l 0.110454,-1.492788 2.418251,-3.999256 2.418251,-3.999256 -0.0013,0.777977 c -0.0018,1.07918 -0.268502,3.363791 -0.567783,4.863502 -0.601855,3.015927 -2.057535,6.498172 -3.814159,9.12415 -0.873411,1.305662 -2.664014,3.432873 -2.680784,3.184734 z"
      /><path
     style="fill:#ececec;fill-rule:evenodd;stroke-width:0.157135;stroke-miterlimit:4.5"
     d="m 35.041227,88.043848 c -1.29276,-0.138444 -3.311728,-0.574693 -4.663134,-1.007587 -2.216079,-0.709874 -3.449521,-1.349895 -4.483633,-2.326517 l -0.929612,-0.87793 0.717357,-1.253972 c 0.818222,-1.430289 1.548821,-3.115946 1.823181,-4.206488 0.103278,-0.410517 0.239026,-0.746394 0.30166,-0.746394 0.06264,0 0.53154,0.145287 1.042011,0.32286 4.92349,1.712688 10.921552,1.777259 15.915378,0.171333 l 1.430502,-0.460024 0.163976,0.650741 c 0.301124,1.195022 0.970244,2.996575 1.515964,4.081608 l 0.540084,1.073833 -0.4159,0.545274 c -0.724103,0.949347 -2.424198,2.225191 -3.639035,2.730928 -2.665938,1.109833 -6.332083,1.62219 -9.318799,1.302335 z"
      /><path
     style="fill:#ececec;fill-rule:evenodd;stroke-width:0.157135;stroke-miterlimit:4.5"
     d="m 34.726956,75.57037 c -7.770474,-0.663891 -13.754961,-6.796469 -14.94689,-15.316762 -0.181967,-1.300755 -0.177581,-1.344089 0.173912,-1.718236 0.650568,-0.692498 6.622884,-2.509235 10.530318,-3.203249 3.199439,-0.568265 4.898038,-0.690872 8.387206,-0.6054 3.436433,0.08418 5.104197,0.292385 7.797755,0.97348 3.286341,0.830987 7.034495,2.306122 7.321299,2.881392 0.196489,0.394116 -0.05963,2.625905 -0.494334,4.307555 -0.895079,3.462618 -2.913444,6.669913 -5.559987,8.835133 -3.591658,2.938447 -8.183619,4.275468 -13.209279,3.846087 z"
      /><path
     style="fill:#ffffff;fill-rule:evenodd;stroke-width:0.157135;stroke-miterlimit:4.5"
     d="m 33.56382,87.750937 c -0.596513,-0.118492 -1.144523,-0.178385 -1.217801,-0.133097 -0.07328,0.04529 -0.133232,0.0075 -0.133232,-0.08407 0,-0.09152 -0.137399,-0.166409 -0.305331,-0.166409 -0.502053,0 -3.161393,-0.937229 -4.1679,-1.468889 -0.515725,-0.272418 -1.318599,-0.849558 -1.784164,-1.282533 l -0.846482,-0.787227 0.369944,-0.718683 c 0.203469,-0.395276 0.574287,-1.137044 0.824041,-1.648374 0.249754,-0.51133 0.549482,-1.116033 0.666061,-1.343786 0.11658,-0.227752 0.237305,-0.545952 0.268278,-0.70711 0.03097,-0.161158 0.139932,-0.505147 0.24213,-0.764421 0.102199,-0.259274 0.219954,-0.567871 0.261677,-0.685771 0.08756,-0.247438 0.232452,-0.223833 2.191168,0.356972 2.077347,0.615981 3.823996,0.887499 6.232583,0.968858 1.89848,0.06413 2.870132,0.0052 5.240424,-0.318018 1.0122,-0.13801 2.811768,-0.587529 3.02486,-0.755587 0.10803,-0.0852 0.196419,-0.114032 0.196419,-0.06407 0,0.04996 0.291735,-0.01209 0.648299,-0.137896 0.356564,-0.125803 0.698926,-0.228733 0.760805,-0.228733 0.10771,0 0.472905,1.017503 0.583556,1.625898 0.02903,0.159635 0.340919,0.972811 0.693082,1.807059 0.352161,0.834247 0.720481,1.710914 0.818488,1.948148 0.1662,0.402306 0.125661,0.484986 -0.602353,1.228506 -0.889522,0.908468 -2.542154,2.050805 -3.412567,2.358845 -0.324092,0.114697 -0.589259,0.269219 -0.589259,0.343382 0,0.07416 -0.05864,0.0986 -0.130311,0.05431 -0.07167,-0.04429 -0.478257,0.0245 -0.903529,0.152882 -2.247183,0.678374 -6.659302,0.900646 -8.928886,0.449816 z"
      /><path
     style="fill:#fffffff;fill-rule:evenodd;stroke-width:0.157135;stroke-miterlimit:4.5"
     d="M 69.858554,117.73381 C 67.312203,107.17774 66.012363,103.0813 63.841012,98.769578 61.130801,93.387817 57.178717,89.152171 52.752933,86.88593 l -1.298543,-0.664925 -1.406258,1.128288 c -2.244835,1.801108 -6.03813,3.480175 -9.507161,4.208261 -2.011535,0.422184 -5.840009,0.382171 -8.003482,-0.08365 -2.693038,-0.579839 -6.653432,-2.299001 -9.285834,-4.030874 -0.713004,-0.469088 -1.37493,-0.80544 -1.470944,-0.747448 -0.858603,0.518598 -7.210601,6.028601 -8.817028,7.648279 -2.400819,2.420621 -3.6929573,4.18356 -4.9641405,6.772859 -2.3909907,4.87027 -4.5425605,14.21262 -4.5425605,19.72431 0,0.7616 -0.042921,1.49657 -0.095379,1.63328 -0.078215,0.20382 -0.3794497,0.24855 -1.6738759,0.24855 H 0.10923017 l 0.0964383,-2.63202 C 0.45142386,113.38362 2.4943516,104.81902 5.1064137,99.545367 6.5999676,96.52994 7.9218454,94.693789 10.370946,92.232684 c 2.133283,-2.143741 10.744127,-9.422253 11.146996,-9.422253 0.323079,0 1.42408,-1.642577 2.127263,-3.173648 0.526221,-1.14576 1.307712,-3.682676 1.168431,-3.793008 -0.03563,-0.02823 -0.568679,-0.385003 -1.184548,-0.792836 -2.135552,-1.41418 -6.875712,-5.875621 -8.952937,-8.42651 C 11.969212,63.300235 10.379262,60.06834 9.6109812,56.328445 8.9831634,53.272307 8.9210872,51.468161 9.1029158,41.562352 c 0.093597,-5.099048 0.2037075,-9.571519 0.2446905,-9.938823 0.047215,-0.423157 0.011702,-0.667826 -0.096934,-0.667826 -0.094297,0 -0.9768313,-0.251419 -1.9611883,-0.558707 L 5.499744,29.83829 v -1.939848 c 0,-2.310549 0.4208965,-4.997625 1.1005959,-7.026391 C 8.7725974,14.388295 13.369096,9.7444671 20.863116,6.4624118 c 1.195218,-0.5234539 1.318381,-0.842824 1.347605,-3.494427 0.02195,-1.99192437 0.052,-2.20185195 0.359066,-2.50880719 0.556444,-0.55624063 1.657145,-0.43399225 4.378959,0.48634505 1.296368,0.43834594 5.468317,1.75341544 9.270997,2.92237664 15.256971,4.6900626 20.496019,6.6883837 24.708497,9.4245207 1.694655,1.100731 2.486261,1.846956 3.800931,3.583028 1.82042,2.403936 2.715506,4.343076 3.167933,6.863094 0.28812,1.604837 0.289454,7.774432 0.0019,8.945652 -0.421813,1.718267 -1.143555,2.514168 -2.279908,2.514168 h -0.565012 v 8.477271 c 0,9.330527 -0.08507,10.587869 -0.940888,13.907079 -1.954097,7.578742 -7.001817,14.162014 -13.707396,17.877281 -0.734924,0.407191 -1.21501,0.773656 -1.2178,0.929588 -0.01087,0.607501 0.853692,3.16511 1.565782,4.632005 l 0.771639,1.589568 1.618142,0.791231 c 8.67958,4.244092 14.14415,11.961476 17.79402,25.129745 0.306828,1.107 1.195907,4.66439 1.97573,7.90531 0.779824,3.24092 1.456612,6.01633 1.503972,6.16757 0.07837,0.25027 -0.06688,0.27499 -1.615641,0.27499 H 71.099927 Z M 39.425838,88.155982 c 2.560676,-0.294394 5.206652,-1.130874 6.59181,-2.083888 0.95835,-0.659363 2.537236,-2.261927 2.537236,-2.575288 0,-0.141042 -0.136062,-0.476919 -0.302362,-0.746394 -0.4292,-0.695487 -1.322902,-2.970849 -1.661056,-4.229046 -0.228634,-0.850694 -0.337754,-1.048161 -0.536717,-0.971256 -0.137355,0.05309 -0.959698,0.296177 -1.827427,0.540193 -2.71157,0.76252 -4.458807,1.003335 -7.300469,1.00619 -2.960023,0.003 -5.064211,-0.3306 -7.740839,-1.227154 -1.027183,-0.344061 -1.572918,-0.460514 -1.608639,-0.343263 -0.755187,2.478867 -1.43543,4.060438 -2.340421,5.441492 l -0.566331,0.864246 0.945604,0.902384 c 0.982054,0.937164 1.883293,1.468155 3.568448,2.102445 3.217756,1.21116 6.973547,1.695007 10.241163,1.319339 z M 39.931129,75.6655 c 7.741203,-1.357667 13.306503,-7.269837 14.2745,-15.164193 0.293216,-2.391289 0.364124,-2.221244 -1.211666,-2.90573 -8.19534,-3.559856 -16.678775,-4.143903 -26.045217,-1.793101 -1.037094,0.260292 -3.055207,0.864612 -4.484692,1.342933 -3.154341,1.055473 -3.227398,1.127447 -2.973109,2.929072 0.812773,5.758441 3.362982,10.214903 7.426828,12.978293 1.754244,1.192876 4.289012,2.219377 6.447468,2.611021 1.553252,0.281832 4.963595,0.282718 6.565888,0.0017 z M 57.480343,65.087299 c 2.104956,-3.07332 3.532622,-6.641537 4.194191,-10.482697 0.310929,-1.805299 0.498023,-5.247749 0.273284,-5.028337 -0.08852,0.08642 -1.254917,1.964898 -2.59199,4.174387 l -2.431041,4.017251 -0.110857,1.561061 c -0.21491,3.026282 -1.038288,6.106614 -2.265389,8.475024 -0.313441,0.604972 -0.592159,1.17066 -0.619372,1.257085 -0.135568,0.430568 2.733471,-2.779898 3.551174,-3.973774 z M 18.155235,65.229127 C 17.581607,63.542589 17.13077,61.37815 16.924132,59.318669 L 16.734936,57.433042 14.45647,53.548875 c -1.253156,-2.136294 -2.340608,-3.886391 -2.416559,-3.889105 -0.07732,-0.0028 -0.09166,0.703896 -0.03259,1.605702 0.30901,4.717472 1.134205,7.692621 2.97585,10.7291 0.813579,1.341419 3.162756,4.316629 3.408338,4.316629 0.07247,0 -0.03385,-0.486934 -0.236272,-1.082074 z m 3.486836,-10.384308 c 4.985811,-1.675265 8.890833,-2.503324 13.399156,-2.841283 6.13325,-0.459771 12.56889,0.625499 18.348741,3.094222 0.902161,0.385336 1.704992,0.679044 1.78407,0.652685 0.07908,-0.02636 1.662692,-2.554586 3.51914,-5.618281 l 3.375363,-5.570355 -0.0027,-5.113846 c -0.0029,-5.386748 -0.104998,-6.446259 -0.765194,-7.938741 -0.415479,-0.939257 -1.786925,-2.370699 -2.767308,-2.888365 -0.775143,-0.409292 -0.8294,-0.414943 -3.928709,-0.409052 -1.728491,0.0033 -6.60755,0.06561 -10.842353,0.138509 -11.581325,0.199353 -16.477154,-0.215493 -24.198874,-2.050481 -1.296368,-0.308069 -2.503856,-0.594509 -2.683304,-0.636534 -0.277269,-0.06493 -0.435813,0.137902 -1.055603,1.350506 -0.792828,1.55115 -1.908884,3.269832 -2.899581,4.465243 l -0.62906,0.759045 -0.114708,6.233487 -0.114702,6.233485 3.272601,5.539028 c 1.79993,3.046465 3.326141,5.539028 3.391577,5.539028 0.06544,0 1.375603,-0.422236 2.911482,-0.9383 z"
      /><path
     style="fill:none;stroke:#000000;stroke-width:1px;stroke-linecap:butt;stroke-linejoin:miter;stroke-opacity:1"
     d="m 9.32,31.11 c 0.1931798,0.158082 0.3773896,0.327808 0.5795394,0.474245 0.079256,0.05741 1.5527276,1.099949 1.7284906,1.099949 0.07407,0 0.09088,-0.124009 0.157136,-0.157136 0.0937,-0.04685 0.314271,0.104757 0.314271,0 0,-0.05238 -0.104757,0 -0.157135,0 0.117851,-0.09632 0.235702,-0.192645 0.353553,-0.288967"
      /><path
     style="fill:#1a1a1af;stroke:#000000;stroke-width:1px;stroke-linecap:butt;stroke-linejoin:miter;stroke-opacity:1"
     d="m 65.054084,35.198362 c -0.62139,0.448282 -1.741356,0.929917 -2.357001,0.314271 -0.07857,-0.07857 -0.07857,-0.235703 -0.157136,-0.314271 -0.03704,-0.03704 -0.120098,0.03704 -0.157135,0 -0.03704,-0.03704 0.03704,-0.120098 0,-0.157135 -0.03704,-0.03704 -0.120098,0.03704 -0.157136,0 -0.07857,-0.07857 0.07857,-0.392839 0,-0.471407 C 62.078946,34.423089 62.024345,34.943924 62,35.15"
      /><path
     style="fill:#1a1a1af;fill-rule:evenodd;stroke-width:0.157135;stroke-miterlimit:4.5"
     d="m 64.968749,34.947851 c -0.13404,-0.218083 -0.225287,-0.233889 -0.50036,-0.08667 -0.708488,0.379171 -1.771306,0.04706 -1.771306,-0.553496 0,-0.08735 -0.166304,-0.234597 -0.369566,-0.327208 -0.283959,-0.129381 -0.392911,-0.338714 -0.470352,-0.903707 -0.213079,-1.55458 -1.306063,-3.1843 -2.847076,-4.245201 l -0.908914,-0.625735 -13.376318,-0.0023 c -11.629757,-0.002 -13.657296,-0.03716 -15.528254,-0.269354 -3.372616,-0.418549 -4.992562,-0.704034 -8.454711,-1.48999 -1.771703,-0.402201 -3.458543,-0.736058 -3.748533,-0.741903 -0.511105,-0.01031 -0.559236,0.04542 -1.571356,1.819188 -1.353224,2.371564 -2.989579,4.588187 -3.236071,4.383617 -0.09978,-0.08281 -0.319195,-0.114533 -0.487592,-0.0705 -0.199059,0.05206 -0.603732,-0.141941 -1.156699,-0.554509 -0.53614,-0.400014 -0.9136486,-0.583399 -1.0212998,-0.496123 -0.1721577,0.139573 -3.6507034,-0.824144 -3.9229579,-1.086839 -0.1894844,-0.18283 0.155951,-4.975219 0.4642722,-6.441066 1.083479,-5.15117 4.1169125,-9.8192 8.4733825,-13.039349 1.750356,-1.2938013 2.768264,-1.9036692 5.220545,-3.1278278 1.20537,-0.6017111 2.020335,-1.1108619 2.188228,-1.3671002 0.208643,-0.3184284 0.282267,-0.8806855 0.33448,-2.554353 0.07501,-2.4045443 0.206809,-2.78479471 1.015864,-2.93093327 0.683012,-0.12337138 1.214726,0.0278695 11.747072,3.34134307 8.668932,2.7272441 13.768957,4.4028651 16.97123,5.5759242 4.665598,1.709105 8.671588,3.8087 10.738852,5.628378 1.084551,0.95466 2.969744,3.546545 3.78689,5.206463 1.127435,2.290226 1.356727,3.423932 1.455361,7.195844 0.15115,5.780183 -0.379462,7.602227 -2.310902,7.935285 -0.418736,0.07221 -0.589093,0.03119 -0.713909,-0.171884 z"
      /><path
     style="fill:#000000;fill-rule:evenodd;stroke-width:0.157135;stroke-miterlimit:4.5"
     d="m 71.055151,122.31311 c -0.08328,-0.3364 -0.795392,-3.22794 -1.582482,-6.42564 -2.248615,-9.13544 -3.517684,-13.05393 -5.521666,-17.049211 -2.782868,-5.54812 -6.842304,-9.872006 -11.410418,-12.15374 L 51.41938,86.124486 50.293953,87.0237 c -2.18373,1.744797 -5.404426,3.297605 -8.747756,4.217596 -1.46148,0.402157 -1.749321,0.427726 -4.776479,0.424299 -2.952959,-0.0033 -3.345622,-0.03707 -4.714067,-0.404901 -2.595194,-0.697578 -5.601395,-1.997988 -8.085593,-3.497635 -2.123671,-1.282006 -2.065157,-1.265517 -2.728894,-0.76895 -1.902824,1.423574 -7.034027,5.99132 -8.915592,7.93657 -2.7422886,2.835106 -4.1588795,5.106681 -5.5510511,8.901391 -1.8863252,5.14164 -3.1140323,11.21755 -3.4080519,16.86641 l -0.095013,1.82544 -0.9516684,0.0995 c -1.2741192,0.13317 -2.16315796,0.12561 -2.16037047,-0.0184 0.0280702,-1.44999 0.37906776,-6.03251 0.5566549,-7.26752 0.82027557,-5.70451 2.40142407,-11.3303 4.31555017,-15.354895 1.4573855,-3.064266 3.0443613,-5.312844 5.3817188,-7.625329 2.149363,-2.12649 8.716917,-7.742761 10.640786,-9.099509 1.384488,-0.976368 2.403207,-2.611114 3.305558,-5.304448 0.671112,-2.003136 0.661745,-2.049497 -0.592934,-2.93478 -2.337935,-1.649615 -6.625444,-5.645201 -8.71923,-8.125566 C 12.124853,63.430683 10.43686,59.958834 9.5508924,55.587548 9.2011203,53.861804 9.1929012,53.603113 9.2118872,44.917534 c 0.010702,-4.895765 0.070844,-9.7923 0.1336484,-10.881189 l 0.1141905,-1.979799 0.4771652,0.27454 c 0.2624407,0.150997 0.5110677,0.398284 0.5525047,0.549527 0.07297,0.26633 0.548823,0.366566 1.401942,0.295309 0.339614,-0.02837 0.341443,-0.0132 0.27655,2.293311 -0.03593,1.277026 -0.09638,3.887514 -0.134334,5.801083 l -0.06901,3.479218 3.291854,5.516792 c 2.354649,3.946138 3.371347,5.516793 3.571071,5.516793 0.153571,0 1.124439,-0.284593 2.157486,-0.632428 12.310327,-4.144992 21.770936,-4.19076 31.888613,-0.154265 1.084535,0.432681 2.069983,0.786693 2.189882,0.786693 0.253821,0 0.845373,-0.905893 4.391321,-6.7248 L 62.06854,44.769121 V 40.29439 35.81966 l 0.38789,0.254155 c 0.399972,0.262071 1.74358,0.262574 2.322698,8.65e-4 0.25675,-0.116026 0.274326,0.07225 0.265011,2.838836 -0.0055,1.629711 -0.07095,5.756191 -0.145473,9.169961 -0.151774,6.952579 -0.241447,7.656246 -1.43175,11.235192 -2.198719,6.610991 -6.773798,12.364597 -12.457207,15.666153 -1.701251,0.988276 -1.815827,1.090723 -1.821347,1.628564 -0.0066,0.643159 0.787892,2.964179 1.602117,4.680409 l 0.659628,1.390372 1.734383,0.868318 c 7.897609,3.953937 12.846608,10.354504 16.527332,21.374885 0.946129,2.83278 4.731306,17.57272 4.557309,17.74672 -0.03973,0.0397 -0.745063,0.11238 -1.567405,0.16144 l -1.495166,0.0892 z M 40.481104,88.068088 c 3.286548,-0.570138 5.122056,-1.383371 6.855979,-3.037586 0.824957,-0.787034 1.217801,-1.277686 1.217801,-1.521004 0,-0.197551 -0.245452,-0.871358 -0.545449,-1.497345 -0.299997,-0.625989 -0.803052,-1.911248 -1.117902,-2.856132 -0.516608,-1.550381 -0.60519,-1.710568 -0.908055,-1.642088 -0.18458,0.04174 -1.29306,0.3267 -2.463286,0.633256 -4.733394,1.239975 -9.152627,1.171532 -13.816446,-0.213984 -0.861593,-0.25596 -1.700517,-0.465381 -1.864275,-0.465381 -0.233944,0 -0.407253,0.311459 -0.808797,1.453504 -0.449177,1.277522 -1.160115,2.768637 -2.141054,4.490636 l -0.297907,0.522964 0.864246,0.786378 c 1.425544,1.297107 3.197216,2.172968 5.733706,2.834572 2.930188,0.764293 6.654726,0.969617 9.291439,0.51221 z m -0.09898,-12.416345 c 3.473681,-0.658946 7.01242,-2.599891 9.359843,-5.133733 2.630143,-2.839012 4.352887,-6.883827 4.579178,-10.751403 l 0.09331,-1.594825 -0.503709,-0.260477 c -0.959891,-0.496379 -4.032958,-1.639637 -5.672648,-2.110368 -6.731506,-1.932516 -14.083886,-1.934336 -21.525059,-0.0053 -2.916752,0.756123 -6.553349,2.029853 -7.01384,2.456621 -0.396856,0.367794 -0.408682,0.427712 -0.306645,1.553736 0.231134,2.550636 1.352009,5.950445 2.73573,8.297936 0.850171,1.442318 2.967307,3.74829 4.341872,4.729142 1.797815,1.282871 4.302946,2.366514 6.528305,2.823946 1.470718,0.302312 5.778479,0.299251 7.383661,-0.0052 z m 15.19469,-8.097328 c 1.785941,-2.044395 2.534337,-3.128231 3.566343,-5.164818 1.262988,-2.492415 2.01955,-4.700554 2.532735,-7.392156 0.295022,-1.547359 0.509482,-5.500234 0.298331,-5.498751 -0.07776,4.72e-4 -0.254585,0.195002 -0.39294,0.432123 -0.138353,0.237122 -1.253093,2.067226 -2.477199,4.066899 l -2.225649,3.635771 -0.156862,1.706837 c -0.283712,3.087123 -0.868909,5.353748 -2.049332,7.937613 -0.426112,0.932731 -0.774751,1.733188 -0.774751,1.778792 0,0.302847 0.468535,-0.116299 1.679324,-1.50231 z m -37.034822,-1.29409 c 0,-0.02798 -0.178697,-0.646704 -0.397106,-1.374936 -0.527545,-1.758979 -0.960507,-3.945606 -1.174994,-5.934182 -0.172173,-1.596271 -0.193192,-1.655074 -1.207527,-3.378414 -2.404151,-4.084622 -3.552026,-5.91796 -3.705304,-5.91796 -0.109436,0 -0.130565,0.634617 -0.06409,1.92491 0.246149,4.777765 1.387179,8.354705 3.693389,11.578173 1.319369,1.844125 2.418485,3.153285 2.647367,3.153285 0.114545,0 0.208265,-0.02289 0.208265,-0.05088 z"
      /></svg>
