<svg  xmlns="http://www.w3.org/2000/svg"
  viewBox="0 0 122.88 122.88" >
     <path
       class="st0"
       d="M25.63,38.25c2.06,0,3.73,1.67,3.73,3.73c0,2.06-1.67,3.73-3.73,3.73c-2.06,0-3.73-1.67-3.73-3.73 C21.9,39.92,23.57,38.25,25.63,38.25L25.63,38.25z M26.73,87.77c0.13,0.11,0.27,0.22,0.41,0.32c2.89,2.23,6.27,3.39,9.66,3.44 c3.38,0.05,6.78-1,9.69-3.17c1.16-0.86,2.24-1.9,3.2-3.11c-0.68-1.25-1.27-1.68-1.77-3.12c-0.37-1.08-0.69-1.99-0.94-3.12 c-2.91,1.31-6.06,2.01-9.21,2.06c-3.2,0.05-6.38-0.56-9.31-1.85c-0.13-0.06-0.26-0.12-0.39-0.18c-0.38,1.31-0.83,2.3-1.34,3.49 c-0.61,1.4-1.31,1.79-2.1,2.98C25.27,86.34,25.98,87.1,26.73,87.77L26.73,87.77z M58.16,54.54c1.27-2,2.35-4.4,3.35-6.65 c1.02-2.28,1.96-4.4,3.03-5.94c-0.03-5.3-0.27-10.85-0.27-15.55c-6.12,0.94-8.67-3.15-9.8-9.26c-12.5,11.4-27.07,13.91-43.39,8.87 c0,4.71-0.23,10.15-0.27,15.37c1.4,1.75,3.18,5.17,5.01,8.69c0.82,1.57,1.36,3.11,2.04,4.51c6.66-2.59,13.33-4.19,20.02-4.36 C44.64,50.06,51.4,51.34,58.16,54.54L58.16,54.54z M64.43,48.52l-0.25,0.56c-1.09,2.44-2.25,5.06-3.72,7.3 c0.03,0.13,0.05,0.27,0.05,0.4h0c0,2.56-0.31,4.94-0.87,7.11c0.98-1.46,1.87-3.03,2.65-4.7c1.23-2.64,1.71-5.1,1.93-7.52 C64.31,50.67,64.38,49.61,64.43,48.52L64.43,48.52z M51.22,76.52c-0.33,0.24-0.66,0.48-1,0.7c0.25,1.44,0.59,2.78,1.02,4.02 c0.48,1.38,1.07,1.5,1.77,2.72c2.77,1.25,5.47,2.86,8.02,5.21c2.65,2.45,5.12,5.69,7.3,10.15c2.84,5.82,4.28,11.87,5.74,17.99 l0.68,2.83l0.66,2.72h-3.62l-0.46-1.89c-0.47-1.94-0.58-2.37-0.69-2.85c-1.42-5.94-2.81-11.79-5.48-17.27 c-1.97-4.05-4.17-6.95-6.52-9.11c-1.95-1.8-4.03-3.11-6.17-4.16c-1.34,1.68-2.91,3.08-4.62,4.2c-3.27,2.14-7.09,3.25-10.9,3.26 c-3.82,0.01-7.63-1.09-10.88-3.35c-0.63-0.44-1.23-0.91-1.81-1.44c-0.78-0.66-1.52-1.38-2.22-2.17c-0.89,0.75-1.69,1.4-2.44,2.03 c-8.39,6.93-11.96,9.89-14.86,23.25c-0.6,2.78-0.99,5.37-1.16,7.97c-0.03,0.5-0.06,1.01-0.07,1.52H0c0.02-0.58,0.05-1.16,0.08-1.74 c0.18-2.81,0.59-5.56,1.22-8.49c3.16-14.55,7.01-17.74,16.06-25.22c1.22-1.01,2.54-2.1,3.78-3.15c0.02-0.02,0.05-0.04,0.07-0.06 c0.89-1.2,1.65-1.36,2.29-2.83c0.53-1.21,0.98-2.53,1.36-3.95c-3.84-1.99-7.41-5.02-10.44-9.16c-5.52,1.36-9.79,2.56-11.79,3.01 C1.3,56.4,0.06,28.65,8.41,15.52C15.49,4.37,26.02-0.31,39.25,0.02c10.89,0.27,21.12,5.24,27.61,15.83 c8.71,14.23,6.59,38.1,5.09,54.11c-1.87-2.66-4.82-4.45-8.45-5.57C60.28,69.68,56.01,73.79,51.22,76.52L51.22,76.52z M16.54,65.17 c-0.73-2.48-1.15-5.27-1.21-8.36c0-0.19,0.02-0.37,0.08-0.55c-0.78-1.54-1.33-3.16-2.2-4.83c-0.82-1.57-1.63-3.13-2.36-4.47 c0.04,1.29,0.11,2.54,0.2,3.74c0.18,2.24,0.58,4.52,1.58,7.01C13.76,60.52,15.08,63,16.54,65.17L16.54,65.17z M37.96,53.74 c-6.34,0.16-12.7,1.71-19.07,4.21c0.46,8.53,4.2,14.15,9.16,17.1c6.9,2.96,14.59,2.25,21.22-1.46c4.32-3.29,7.42-8.58,7.7-15.73 C50.63,54.81,44.3,53.58,37.96,53.74L37.96,53.74z M50.1,38.25c2.06,0,3.73,1.67,3.73,3.73c0,2.06-1.67,3.73-3.73,3.73 c-2.06,0-3.73-1.67-3.73-3.73C46.37,39.92,48.04,38.25,50.1,38.25L50.1,38.25z M13.6,122.88c0.24-0.61,0.49-1.24,0.75-1.88 c0.13-0.54,0.27-1.08,0.42-1.62c0.87-3.18,1.95-6.31,3.3-9.61l0,0c0.26-0.63,0.88-1.08,1.61-1.09c0.97-0.01,1.76,0.77,1.77,1.74 c0.03,2.41-1.67,6.56-3.3,10.54l-0.42,1.02c-0.07,0.3-0.15,0.6-0.22,0.9H13.6L13.6,122.88z M58.46,122.88 c-0.34-0.75-0.69-1.52-1.05-2.28c-2.33-5.05-4.6-9.96-2.22-11.33c0.05-0.03,0.11-0.06,0.17-0.09c0.88-0.41,1.93-0.04,2.34,0.84 c1.32,2.79,2.48,5.84,3.46,9.16c0.27,0.93,0.53,1.87,0.77,2.83c0.13,0.29,0.26,0.58,0.38,0.87H58.46L58.46,122.88z"
       id="path4" /><path
     style="fill:#ffffff;fill-rule:evenodd;stroke-width:0.157135;stroke-miterlimit:4.5"
     d="m 0.15713555,121.7398 c 0,-3.62058 1.55378235,-11.54259 3.23967435,-16.51758 0.8907879,-2.62868 2.5736048,-6.064011 3.8546285,-7.868916 1.6497985,-2.324492 4.5393636,-5.151062 9.5620646,-9.353603 4.852002,-4.059716 6.058591,-5.223491 6.673249,-6.436461 0.369036,-0.728259 1.550814,-4.098714 1.464493,-4.176765 -0.02489,-0.02251 -0.660645,-0.403087 -1.41278,-0.845732 -0.752136,-0.442642 -1.954223,-1.244915 -2.671304,-1.782828 -1.544131,-1.158312 -4.62677,-4.223261 -5.625013,-5.592731 -0.644189,-0.88375 -0.749057,-0.963021 -1.178517,-0.890851 -0.259273,0.04357 -2.663447,0.647989 -5.3426082,1.343153 -6.4178159,1.665237 -6.0494261,1.587723 -6.0510625,1.273226 -7.392e-4,-0.142055 -0.0702,-1.036105 -0.1543564,-1.986775 C 1.4221576,56.551928 1.5511521,42.640943 2.8434502,33.548439 4.4921365,21.948418 7.5563057,15.124626 13.855168,9.025747 18.988915,4.0549928 25.410207,1.1678943 33.219155,0.31944052 c 2.025399,-0.22006256 7.37962,-0.21799241 9.240953,0.003573 7.637174,0.90909698 14.546992,4.26222168 19.620279,9.52112708 4.405941,4.5671404 7.280309,9.9455664 9.038028,16.9116694 2.352781,9.324419 2.68844,20.653498 1.149291,38.790637 L 71.91256,69.731463 71.383104,69.081997 C 69.942455,67.3148 67.472984,65.708441 64.623427,64.684914 l -1.137799,-0.408685 -0.9256,1.376566 c -2.843153,4.228373 -5.757913,7.096436 -10.194607,10.031274 -1.23155,0.814661 -2.239091,1.531598 -2.238979,1.593194 4.71e-4,0.251002 0.78372,3.303002 1.011896,3.942875 0.13497,0.378492 0.603178,1.170782 1.040459,1.760646 0.632906,0.853742 0.970106,1.152614 1.653336,1.465406 0.472051,0.216114 1.510724,0.778255 2.30816,1.249204 7.31368,4.319314 12.287583,11.631508 15.583781,22.909906 0.569129,1.94735 3.543853,13.73566 3.543853,14.04366 0,0.0406 -0.769356,0.0739 -1.709679,0.0739 h -1.709679 l -1.2156,-4.98905 c -1.433587,-5.88371 -2.482304,-9.62043 -3.4288,-12.21729 C 64.027143,96.79986 59.802005,91.401098 53.49372,87.997689 l -0.953747,-0.51456 -1.560422,1.55781 c -3.740393,3.73413 -8.098266,5.634771 -13.345588,5.820536 -5.568541,0.19714 -9.984474,-1.52409 -14.198444,-5.534229 l -1.420807,-1.352084 -3.26843,2.715141 c -6.210529,5.159189 -8.593578,7.827784 -10.573661,11.840637 -0.5970283,1.20995 -1.3775897,3.0813 -1.7345811,4.15856 -1.3376638,4.03654 -2.5165781,9.74927 -2.8628707,13.87275 l -0.1814496,2.16061 H 1.7754276 0.15713555 Z M 39.226752,91.439964 c 3.526136,-0.490441 6.993853,-2.314219 9.547691,-5.021422 l 1.054485,-1.117809 -0.302373,-0.498756 c -0.166304,-0.274317 -0.541354,-0.890775 -0.833442,-1.369908 -0.428158,-0.702341 -0.975443,-2.155428 -1.63679,-4.345816 -0.04024,-0.133273 -0.334499,-0.07585 -1.002706,0.195664 -0.520162,0.211361 -1.564606,0.563631 -2.320983,0.782821 -4.674875,1.354725 -10.379198,1.103985 -14.518381,-0.638173 -0.506213,-0.213062 -0.983752,-0.387385 -1.061201,-0.387385 -0.07745,0 -0.301762,0.441944 -0.498472,0.982097 -0.708249,1.944791 -1.432917,3.328558 -2.294905,4.382165 l -0.877487,1.07255 0.47212,0.596102 c 1.618729,2.043812 4.497336,3.913313 7.418133,4.817681 2.247461,0.695883 4.504333,0.87704 6.854311,0.550189 z m 0.07977,-14.606537 c 3.018506,-0.302335 6.469192,-1.325504 9.162809,-2.716884 2.167132,-1.119426 4.853448,-4.129013 6.335784,-7.098232 1.077237,-2.15778 1.934288,-5.306606 2.1706,-7.974832 l 0.107873,-1.218002 -1.239493,-0.572951 C 45.666813,52.548114 33.446405,52.513218 20.781176,57.1524 l -1.92491,0.705081 3.1e-5,0.652026 c 1.6e-5,0.358615 0.139156,1.500558 0.3092,2.537653 0.809542,4.937395 2.513592,8.448619 5.567693,11.472323 1.840002,1.821691 3.061004,2.601717 5.125087,3.274114 3.168496,1.032173 6.197005,1.365476 9.448245,1.03983 z M 16.656368,65.142913 c 0,-0.03759 -0.06954,-0.251239 -0.15453,-0.474785 -0.465832,-1.225229 -1.133143,-5.998134 -1.092535,-7.814295 0.01596,-0.713881 -0.12766,-1.155585 -0.990061,-3.044908 -1.110846,-2.433612 -3.383276,-6.825397 -3.531646,-6.825397 -0.157839,0 0.09709,4.387206 0.342675,5.897269 0.409629,2.518748 1.351136,5.274226 2.790327,8.166363 1.075485,2.16125 2.63577,4.585795 2.63577,4.095753 z M 61.071871,61.72421 c 2.196456,-3.879262 3.089283,-6.970994 3.281182,-11.362267 l 0.0824,-1.885627 -0.395983,0.785678 c -0.217792,0.432123 -0.850836,1.740276 -1.406764,2.907007 -0.55593,1.166732 -1.302447,2.600133 -1.658927,3.185339 -0.35648,0.585204 -0.607501,1.129773 -0.557824,1.210153 0.208518,0.337387 -0.280003,4.719657 -0.779983,6.996836 l -0.103503,0.471406 0.328447,-0.374946 c 0.180647,-0.206221 0.725575,-1.076331 1.210953,-1.933579 z M 19.545687,54.054067 c 13.225225,-4.967622 26.144328,-4.965559 37.310173,0.006 0.745825,0.332075 1.366491,0.590453 1.37926,0.574174 0.369869,-0.47155 2.000494,-3.718316 3.289971,-6.550722 0.92462,-2.030977 1.996176,-4.23922 2.381233,-4.907206 l 0.700107,-1.21452 -0.114081,-7.78149 -0.11408,-7.781489 h -1.544404 c -4.157765,0 -6.555899,-2.311755 -7.90231,-7.617679 -0.213777,-0.842449 -0.420467,-1.563506 -0.459309,-1.60235 -0.03884,-0.03884 -0.838131,0.573934 -1.776194,1.361729 -3.710976,3.116511 -8.74984,6.063116 -12.879056,7.531356 -8.388829,2.982846 -17.150363,3.087887 -27.070568,0.324547 -0.908178,-0.252978 -1.663924,-0.444319 -1.679437,-0.425202 -0.01551,0.01912 -0.101353,3.494605 -0.190759,7.723303 l -0.162554,7.688543 0.765779,1.134835 c 1.445382,2.141965 4.220129,7.370527 5.642958,10.633244 0.367465,0.84264 0.686186,1.532072 0.708268,1.532072 0.02208,0 0.793835,-0.283097 1.715003,-0.629103 z"
     id="path1015" /><path
     style="fill:none;stroke:#000000;stroke-width:1px;stroke-linecap:butt;stroke-linejoin:miter;stroke-opacity:1"
     d="m 14.42,68.25 2.12,-3.08"
     id="path1087" /><path
     style="fill:none;stroke:#000000;stroke-width:1px;stroke-linecap:butt;stroke-linejoin:miter;stroke-opacity:1"
     d="m 10.85,46.96 c -0.107306,-0.201671 -0.233032,-0.394573 -0.321918,-0.605014 -0.214146,-0.506994 -0.06164,-4.209772 0.185597,-4.971925"
     id="path1089" /><path
     style="fill:none;stroke:#000000;stroke-width:1px;stroke-linecap:butt;stroke-linejoin:miter;stroke-opacity:1"
     d="m 64.435453,48.476316 c -0.10805,-0.392839 -0.237694,-0.780368 -0.32415,-1.178517 -0.142321,-0.655419 -0.112318,-4.705164 0,-4.871201 C 64.231028,42.249611 64.397101,42.108866 64.54,41.95"
     id="path1095" /><path
     style="fill:#784421;stroke:#000000;stroke-width:1px;stroke-linecap:butt;stroke-linejoin:miter;stroke-opacity:1"
     d="m 59.64,63.89 c 0.127939,0.814099 2.612339,0.313202 3.057083,0.535574 0.06625,0.03313 0.09088,0.124008 0.157136,0.157136 0.0937,0.04685 0.240196,-0.07408 0.314271,0 0.03704,0.03704 -0.04528,0.183459 0,0.157135 C 63.307382,64.659106 63.389497,64.506615 63.5,64.39"
     id="path1101" /><path
     style="fill:#784421;fill-rule:evenodd;stroke-width:0.157135;stroke-miterlimit:4.5"
     d="M 2.4632112,67.21473 C 2.0290994,61.196343 1.8914217,57.511852 1.889257,51.85473 1.8823249,33.738479 4.1198184,22.360965 9.1798569,14.782489 14.080276,7.4430767 21.202449,2.6473513 29.698618,0.96615135 c 2.859471,-0.56582476 4.156378,-0.6700475 8.300238,-0.6670286 3.347212,0.002439 4.356281,0.0580437 5.920529,0.32625344 13.058222,2.23899311 22.67246,10.99027581 26.547369,24.16452981 1.03428,3.516441 1.697582,7.004209 2.218543,11.665541 0.344619,3.083494 0.479447,13.234785 0.240235,18.087451 -0.196058,3.977225 -0.909725,13.813177 -1.046225,14.419346 -0.07868,0.349394 -0.154309,0.304352 -1.215364,-0.723773 -1.675817,-1.623813 -3.094417,-2.470798 -6.287933,-3.754248 -1.436126,-0.57717 -1.881454,-0.687191 -2.781503,-0.687191 -1.641253,0 -1.652592,-0.01542 -0.90493,-1.230888 0.917633,-1.491784 2.069355,-3.955746 2.62002,-5.605197 0.625145,-1.87254 0.954723,-3.800438 1.070048,-6.25932 0.07822,-1.667695 0.141266,-2.046483 0.363772,-2.185441 0.243888,-0.152311 0.249154,-0.243202 0.05609,-0.968225 -0.309689,-1.162987 -0.294827,-4.703853 0.02084,-4.965835 0.186963,-0.155167 0.197638,-0.245427 0.05005,-0.423261 -0.135359,-0.163095 -0.220248,-2.224646 -0.304869,-7.403806 -0.0645,-3.947774 -0.122378,-7.429178 -0.128615,-7.736455 l -0.01134,-0.558686 -1.894935,-0.168413 c -1.679493,-0.149265 -2.026466,-0.233419 -3.051826,-0.740179 -2.057746,-1.016993 -3.396374,-3.01647 -4.386729,-6.552352 -0.27253,-0.973014 -0.564414,-1.791862 -0.64863,-1.819661 -0.08422,-0.0278 -0.980099,0.610604 -1.990847,1.418672 -7.944726,6.351607 -15.637457,9.339692 -24.809374,9.6367 -4.594857,0.148794 -8.33162,-0.2937 -13.632643,-1.614329 -1.584815,-0.39482 -2.908936,-0.6904 -2.942491,-0.656845 -0.07349,0.07349 -0.380087,10.915914 -0.381724,13.499336 -0.001,1.628322 -0.0306,1.82649 -0.269663,1.807058 -0.368277,-0.02993 -0.4968903,0.771935 -0.5081169,3.167974 -0.00939,2.003874 0.2179849,2.943829 0.6701379,2.770322 0.157929,-0.0606 0.213017,0.239815 0.238709,1.301775 0.05441,2.248919 0.345049,4.741444 0.728989,6.251762 0.714655,2.811262 2.384826,6.652472 3.941352,9.064675 0.372915,0.577919 0.625568,1.072896 0.561453,1.099949 -0.183408,0.07739 -2.064172,2.885723 -2.064172,3.082199 0,0.09688 -0.265167,0.245349 -0.589259,0.329921 -2.075721,0.541662 -10.5278769,2.686785 -10.5863973,2.686785 -0.039236,0 -0.1950249,-1.714742 -0.3461955,-3.810537 z"
     id="path1177" /><path
     style="fill:#000000;fill-rule:evenodd;stroke-width:0.157135;stroke-miterlimit:4.5"
     d="m 0.23124293,121.58363 c 0.0512254,-0.62658 0.1306713,-1.59886 0.17654644,-2.16061 0.19709724,-2.41354 1.07058463,-6.97541 2.03780443,-10.64262 0.7759599,-2.94206 1.5144497,-4.99091 2.6617634,-7.38475 2.2881702,-4.774205 4.1578703,-6.866358 12.3346888,-13.802245 5.533583,-4.693796 6.057496,-5.334702 7.168644,-8.76943 0.44701,-1.381776 0.448187,-1.395631 0.137381,-1.616575 -0.172422,-0.122568 -1.197381,-0.79951 -2.277688,-1.504315 -1.533523,-1.000486 -2.465662,-1.773164 -4.25128,-3.524006 -1.257897,-1.233401 -2.510497,-2.553643 -2.783555,-2.93387 l -0.49647,-0.691323 1.037561,-1.51112 C 16.732373,65.9421 16.970832,65.47746 16.854541,65.332163 16.443932,64.819144 15.776451,61.05169 15.55681,58.007399 15.4779,56.913682 15.329624,55.771334 15.227307,55.468848 14.964994,54.693361 12.440019,49.486254 11.67238,48.137732 11.199934,47.30778 11.078481,46.96739 11.208429,46.837442 c 0.129948,-0.129948 0.12564,-0.256714 -0.01646,-0.484246 -0.208088,-0.333201 -0.248533,-2.495625 -0.06558,-3.506111 l 0.108796,-0.600894 1.154163,1.936546 c 0.634789,1.0651 2.112554,3.869654 3.283921,6.232343 1.899654,3.831668 2.165433,4.287354 2.459954,4.217655 0.181608,-0.04298 1.461573,-0.479452 2.844365,-0.969944 6.032326,-2.139733 12.038043,-3.218916 17.913453,-3.218916 6.303258,0 11.730105,1.095015 17.502888,3.531686 1.507029,0.636113 1.805351,0.715813 1.989589,0.531543 0.248362,-0.248404 2.530181,-4.828522 4.015618,-8.060241 l 1.00505,-2.186588 0.101417,1.793749 c 0.104759,1.852852 0.226531,2.503116 0.502821,2.685045 0.09684,0.06377 -0.592346,1.620356 -1.739313,3.928389 l -1.899709,3.822771 -0.09131,1.649923 c -0.13447,2.429891 -0.669009,5.500816 -1.002594,5.759888 -0.251324,0.195188 -0.238932,0.239252 0.169774,0.603748 0.388672,0.346627 0.584073,0.393477 1.649924,0.395598 1.742812,0.0035 1.804962,0.08545 0.972482,1.282844 -2.653927,3.817247 -5.625928,6.653334 -10.179771,9.714239 -1.41699,0.952442 -1.75413,1.251426 -1.757504,1.558593 -0.0078,0.70916 0.817084,3.54384 1.297481,4.458809 0.749674,1.427836 1.524018,2.193271 2.976491,2.94225 4.770931,2.460164 8.733715,6.166998 11.746559,10.987866 2.026098,3.241971 4.090242,8.050903 5.399533,12.579543 0.932054,3.22383 3.626416,13.97134 3.527391,14.07036 -0.04277,0.0428 -0.765167,0.0941 -1.605334,0.11408 l -1.527575,0.0363 -1.544164,-6.12828 C 68.683264,109.69968 67.768908,106.62487 66.592516,103.70946 63.581769,96.248033 59.676545,91.436114 53.985605,88.175543 l -1.404676,-0.804796 -1.188061,1.142895 c -3.409472,3.279858 -5.832017,4.70101 -9.751948,5.720847 -2.093498,0.544658 -5.715462,0.674514 -8.028047,0.28782 -3.803526,-0.635993 -6.891962,-2.257761 -10.145171,-5.327322 l -1.438284,-1.357089 -2.568672,2.138703 C 11.661943,96.46996 9.3702238,99.192382 7.1729803,104.57371 c -1.6916795,4.14313 -3.0702953,10.0843 -3.6406116,15.68928 -0.1244721,1.22329 -0.22771,2.2772 -0.2294175,2.34202 -0.00171,0.0648 -0.7144963,0.11785 -1.5839751,0.11785 H 0.13810585 Z M 41.090945,91.145883 c 2.742841,-0.75264 5.303105,-2.265104 7.499079,-4.430049 l 1.378113,-1.358641 -0.831261,-1.406729 c -0.473019,-0.800483 -1.092816,-2.178823 -1.438175,-3.19829 -0.333803,-0.985359 -0.623619,-1.813372 -0.644037,-1.840029 -0.02042,-0.02666 -0.87563,0.234362 -1.900473,0.580042 -2.266814,0.7646 -3.777232,1.081021 -6.021252,1.261404 -3.154873,0.253605 -6.539983,-0.181923 -9.246633,-1.18967 -0.804229,-0.299431 -1.568928,-0.522317 -1.69933,-0.495297 -0.133471,0.02765 -0.568787,0.82455 -0.996016,1.823317 -0.80664,1.885751 -1.25021,2.645236 -2.2447,3.843402 l -0.619515,0.746394 0.638437,0.762543 c 2.021742,2.414749 5.457259,4.380174 8.976096,5.135133 1.577746,0.338503 5.536198,0.209207 7.149667,-0.23353 z m 0.552942,-14.59169 c 2.209534,-0.474759 4.423683,-1.216919 6.269711,-2.10155 1.473323,-0.706027 1.797354,-0.944323 3.237583,-2.380949 2.904314,-2.89705 4.402331,-5.669004 5.405893,-10.003153 0.2677,-1.156127 0.696175,-4.263549 0.59647,-4.325756 C 56.83766,57.5457 53.503374,56.154591 52.633637,55.857019 46.782772,53.855203 40.563404,53.203956 34.019846,53.90792 c -3.827107,0.411724 -7.66788,1.293308 -12.082123,2.773244 l -3.125397,1.047833 0.09738,1.580514 c 0.243992,3.960199 1.754467,8.295691 3.867457,11.100696 1.237347,1.642585 3.698808,3.909114 4.960553,4.56771 1.58172,0.825616 4.012755,1.53312 6.596404,1.919755 1.24033,0.185612 5.856968,-0.03132 7.30977,-0.343479 z"
     id="path1216" /><path
     style="fill:#b3b3b3;fill-rule:evenodd;stroke-width:0.157135;stroke-miterlimit:4.5"
     d="m 35.119795,76.740169 c -3.046729,-0.331746 -6.283152,-1.285284 -7.80563,-2.299748 -1.275486,-0.849886 -3.234916,-2.719751 -4.228976,-4.03567 -1.032681,-1.367042 -2.552227,-4.458804 -3.054503,-6.21488 -0.456165,-1.594857 -1.017285,-4.674164 -1.017285,-5.582637 0,-0.587823 0.02075,-0.609529 0.90353,-0.945324 13.037323,-4.959166 24.408029,-5.105085 35.37059,-0.453906 l 1.625734,0.689763 -0.105062,1.181858 c -0.238793,2.686237 -1.015973,5.493689 -2.144338,7.746115 -1.024142,2.044377 -1.985659,3.37548 -3.637216,5.035284 -1.403743,1.41075 -1.68631,1.61538 -3.299847,2.38967 -2.138448,1.026182 -4.102129,1.681663 -6.320276,2.109721 -1.619089,0.312451 -5.018799,0.517813 -6.286721,0.379754 z"
     id="path1366" /><path
     style="fill:#ffe6d5;fill-rule:evenodd;stroke-width:0.157135;stroke-miterlimit:4.5"
     d="m 17.049207,52.529778 c -0.900725,-2.105666 -3.434794,-6.951436 -4.804469,-9.18734 -0.512038,-0.835868 -0.930979,-1.570538 -0.930979,-1.6326 0,-0.06206 -0.103228,-0.191346 -0.229395,-0.287299 -0.198477,-0.150944 -0.20985,-0.958091 -0.08438,-5.988473 0.07976,-3.197709 0.147631,-6.597647 0.150827,-7.55542 l 0.0058,-1.741404 1.857641,0.508338 c 15.188618,4.156319 28.62817,1.457933 39.861846,-8.003441 0.777821,-0.655107 1.449576,-1.19232 1.492788,-1.193807 0.04321,-0.0015 0.241906,0.673356 0.44154,1.49965 0.438364,1.814405 0.967829,3.099578 1.844261,4.476584 0.768215,1.206985 1.690049,2.011265 2.989219,2.608029 0.803458,0.369063 1.1862,0.437264 2.778177,0.49504 l 1.846342,0.06701 v 2.783476 c 0,1.530912 0.04701,4.927699 0.104461,7.548415 0.07473,3.408991 0.05596,4.734964 -0.06598,4.659598 -0.295483,-0.182618 -0.824154,0.675856 -0.824154,1.338288 0,0.35236 -0.177221,0.960789 -0.417198,1.432312 -0.229459,0.450857 -1.069322,2.246237 -1.866362,3.989738 -1.415028,3.095323 -2.787229,5.775869 -3.035182,5.929112 -0.06803,0.04205 -1.038155,-0.304142 -2.155827,-0.769306 -3.433793,-1.429111 -7.291653,-2.465345 -11.224561,-3.014953 -2.692486,-0.376264 -8.841873,-0.374024 -11.706598,0.0043 -4.599881,0.607417 -9.397423,1.816045 -13.885921,3.498233 -0.550443,0.206294 -1.080775,0.374539 -1.178516,0.373878 -0.09774,-6.56e-4 -0.531266,-0.827718 -0.963389,-1.837913 z m 10.628846,-7.358285 c 1.119702,-0.786957 1.607654,-1.62865 1.679306,-2.896723 0.05111,-0.904472 -0.0036,-1.222486 -0.33512,-1.946526 -0.426517,-0.931638 -1.259941,-1.666815 -2.265943,-1.998825 -0.878179,-0.289826 -2.302839,-0.09382 -3.157148,0.434357 -2.066528,1.277636 -2.34566,4.447443 -0.531877,6.039966 0.871958,0.76559 1.383289,0.931321 2.729544,0.884696 1.050731,-0.03639 1.291713,-0.102611 1.881238,-0.516945 z m 23.717483,0.375592 c 0.873591,-0.261735 1.638009,-0.964993 2.12021,-1.950574 0.367439,-0.75102 0.413111,-1.000941 0.342855,-1.876165 -0.171807,-2.140355 -1.711008,-3.539593 -3.88846,-3.534873 -1.375323,0.003 -2.857933,1.009825 -3.403264,2.311167 -0.305344,0.728653 -0.262968,2.352306 0.08116,3.109822 0.316474,0.696634 1.227252,1.572286 1.973198,1.897096 0.598903,0.260784 1.976991,0.282404 2.774297,0.04353 z"
     id="path1442" /><path
     style="fill:#ffe6d5;fill-rule:evenodd;stroke-width:0.157135;stroke-miterlimit:4.5"
     d="m 35.119795,91.35242 c -3.645548,-0.576746 -6.950703,-2.217578 -9.231714,-4.583051 -0.583365,-0.604967 -1.060665,-1.165937 -1.060665,-1.246601 0,-0.08066 0.364725,-0.600194 0.8105,-1.154511 0.902012,-1.121644 1.54832,-2.45428 2.406656,-4.962339 0.04263,-0.124555 0.606874,0.0082 1.761907,0.414499 2.891574,1.017182 3.943991,1.181046 7.591781,1.182061 3.566925,9.92e-4 5.17201,-0.246831 7.76208,-1.198458 0.700268,-0.257288 1.37928,-0.502213 1.508917,-0.544278 0.181222,-0.0588 0.369858,0.3518 0.816092,1.776388 0.395334,1.262089 0.807606,2.203586 1.293007,2.95282 0.391938,0.604971 0.714129,1.178256 0.715978,1.273965 0.0059,0.306123 -2.772601,2.86252 -3.91319,3.600363 -2.506983,1.621759 -5.097447,2.424016 -8.104316,2.509877 -1.037095,0.02961 -2.09776,0.02028 -2.357033,-0.02074 z"
     id="path1518" /><path
     style="fill:#ffe6d5;fill-rule:evenodd;stroke-width:0.157135;stroke-miterlimit:4.5"
     d="m 15.432167,63.219931 c -1.586862,-2.729457 -3.096957,-6.217036 -3.628313,-8.379625 -0.428042,-1.742111 -0.624331,-3.19101 -0.739551,-5.458981 l -0.09388,-1.847822 0.333226,0.521764 c 0.487021,0.762577 2.294286,4.396367 3.175629,6.385101 0.583949,1.317671 0.762896,1.907323 0.762996,2.514168 2.2e-4,1.342005 0.310475,4.174107 0.628307,5.735424 0.166337,0.817116 0.276077,1.51202 0.243867,1.544229 -0.03221,0.03221 -0.339239,-0.424206 -0.682286,-1.014258 z"
     id="path1557" /><path
     style="fill:#ffffff;fill-rule:evenodd;stroke-width:0.157135;stroke-miterlimit:4.5"
     d="m 60.030683,62.921179 c -0.0027,-0.09281 0.0966,-0.870629 0.220672,-1.728491 0.124067,-0.857861 0.259369,-2.311601 0.30067,-3.230532 0.0667,-1.483991 0.123686,-1.747506 0.509736,-2.357033 0.239054,-0.377437 1.063023,-1.959047 1.831043,-3.514689 l 1.3964,-2.82844 -0.09301,1.492787 c -0.219224,3.518564 -0.981422,6.373927 -2.50134,9.370581 -0.948248,1.869558 -1.656511,3.059442 -1.664173,2.795817 z"
     id="path1596" /><path
     style="fill:#ffffff;fill-rule:evenodd;stroke-width:0.157135;stroke-miterlimit:4.5"
     d="m 16.146632,50.557528 c -1.601244,-3.2724 -4.059901,-7.795872 -4.868368,-8.956893 -0.291109,-0.418056 -0.297638,-0.693186 -0.187674,-7.908126 l 0.113928,-7.475002 0.329608,0.09237 c 8.897412,2.493366 16.303077,2.916628 23.549669,1.345951 6.236408,-1.351722 11.828526,-4.119687 17.380692,-8.603029 0.989933,-0.799366 1.828402,-1.424868 1.863266,-1.390005 0.03486,0.03486 0.271838,0.794956 0.526612,1.689095 0.978703,3.434805 2.524423,5.659374 4.621439,6.651079 0.799734,0.378204 1.223319,0.462249 2.791182,0.553809 1.016602,0.05937 1.880615,0.140188 1.920028,0.179601 0.03941,0.03941 0.07889,3.346084 0.08772,7.348156 0.01579,7.154126 0.01062,7.281566 -0.307486,7.577926 -0.177951,0.165788 -0.36685,0.493929 -0.419777,0.729205 -0.05293,0.235274 -0.158443,0.677602 -0.234484,0.982947 -0.298535,1.198783 -4.77325,10.511628 -5.167913,10.755544 -0.07389,0.04566 -1.128517,-0.303316 -2.343623,-0.775511 -3.568086,-1.386577 -6.959247,-2.30632 -10.546415,-2.860373 -2.263039,-0.349536 -9.756568,-0.395853 -12.099437,-0.07479 -4.046705,0.554561 -8.185975,1.54177 -12.33514,2.941907 -1.382793,0.466625 -2.597773,0.848851 -2.699956,0.84939 -0.102183,4.72e-4 -0.990425,-1.643424 -1.973872,-3.653253 z m 10.940805,-4.981207 c 0.627002,-0.238385 1.691495,-1.285591 2.003749,-1.971207 0.403796,-0.886618 0.386605,-2.397367 -0.03755,-3.299713 -0.369495,-0.786066 -1.189694,-1.579148 -1.970566,-1.905418 -1.236344,-0.516576 -3.360478,-0.0655 -4.249383,0.902391 -0.958988,1.044201 -1.280224,3.037801 -0.693316,4.30274 0.32475,0.69992 1.10612,1.503712 1.822796,1.875105 0.534031,0.276742 2.490832,0.336933 3.124266,0.0961 z m 24.575921,-0.09392 c 1.913644,-0.799374 2.779321,-3.214051 1.860031,-5.188272 -0.645015,-1.385203 -1.852322,-2.110195 -3.514043,-2.110195 -1.373225,0 -2.721044,0.829334 -3.349346,2.060908 -0.368918,0.723138 -0.417278,2.559296 -0.0876,3.326031 0.251244,0.584322 1.219328,1.555317 1.903914,1.909642 0.620377,0.321092 2.420335,0.322158 3.187042,0.0019 z"
     id="path1672" /><path
     style="fill:#ffffff;fill-rule:evenodd;stroke-width:0.157135;stroke-miterlimit:4.5"
     d="m 15.088814,62.453549 c -1.775376,-3.20476 -3.04529,-6.491563 -3.518277,-9.106031 -0.237212,-1.311206 -0.602316,-5.434974 -0.491458,-5.550906 0.07456,-0.07798 2.934371,5.696272 3.519029,7.105283 0.446155,1.075225 0.534344,1.520794 0.663283,3.351208 0.08179,1.161106 0.285559,2.897412 0.452818,3.858459 0.167259,0.961046 0.282251,1.769214 0.255538,1.795928 -0.02671,0.02671 -0.423134,-0.62756 -0.880933,-1.453941 z"
     id="path1711" /><path
     style="fill:#ffffff;fill-rule:evenodd;stroke-width:0.157135;stroke-miterlimit:4.5"
     d="m 33.349641,90.914147 c -1.577778,-0.418679 -3.962809,-1.480718 -5.171814,-2.302975 -0.965256,-0.65648 -3.193275,-2.803843 -3.193275,-3.077675 0,-0.114407 0.328604,-0.650155 0.730232,-1.190551 0.761609,-1.024757 1.770777,-3.018063 2.108413,-4.164533 0.24172,-0.820779 0.382299,-0.833915 2.232253,-0.208591 2.748443,0.929033 3.497122,1.033951 7.34281,1.029005 3.974054,-0.0051 5.014731,-0.155815 7.72048,-1.118027 0.86428,-0.307354 1.60834,-0.521905 1.653465,-0.47678 0.04512,0.04512 0.359857,0.847706 0.699404,1.783513 0.339548,0.935807 0.898967,2.188126 1.243156,2.78293 0.344188,0.594804 0.625797,1.171933 0.625797,1.282508 0,0.37531 -3.094362,3.125909 -4.344715,3.862046 -2.602595,1.532262 -4.395084,2.021499 -7.754723,2.116553 -2.216151,0.0627 -2.566777,0.0341 -3.891483,-0.317423 z"
     id="path1750" /><path
     style="fill:#000000;fill-rule:evenodd;stroke-width:0.157135;stroke-miterlimit:4.5"
     d="M 2.7635232,69.886034 C 2.1445081,63.898215 1.8341371,49.31025 2.1883944,42.854009 2.9096389,29.709527 5.1102164,21.034837 9.3074497,14.790653 10.628061,12.825992 11.737665,11.490895 13.578517,9.651621 19.138754,4.0961488 26.176284,0.99988932 34.491252,0.45077064 37.651533,0.24206646 42.121846,0.3978525 44.309524,0.79292776 56.017139,2.9072191 65.001837,10.471803 69.403306,21.920409 c 1.670979,4.346361 2.9969,10.976493 3.347265,16.737651 0.244209,4.015611 0.197565,14.579515 -0.08358,18.929561 -0.376027,5.818058 -0.818364,11.252447 -0.924543,11.358628 -0.05273,0.05273 -0.430126,-0.224242 -0.83865,-0.615497 -1.723024,-1.650185 -3.24744,-2.589418 -6.101451,-3.759259 -1.1368,-0.465966 -1.946386,-0.683021 -3.00879,-0.806674 -0.799427,-0.09305 -1.453504,-0.22614 -1.453504,-0.295765 0,-0.06963 0.257979,-0.566765 0.573285,-1.104753 0.797958,-1.36151 1.816391,-3.578911 2.386581,-5.19623 0.630018,-1.787016 0.937086,-3.460225 1.129717,-6.155823 0.112424,-1.573199 0.225533,-2.276979 0.396275,-2.465645 0.200045,-0.221049 0.209866,-0.38895 0.06032,-1.031403 -0.234597,-1.007855 -0.247375,-4.541878 -0.01742,-4.81895 0.12324,-0.148495 0.128994,-0.504174 0.01977,-1.221666 -0.08475,-0.5567 -0.205915,-4.158583 -0.269261,-8.004185 L 64.504142,26.478397 63.8756,26.370234 c -0.345699,-0.05949 -1.241481,-0.179533 -1.990628,-0.266765 -3.333417,-0.388154 -5.102892,-2.230972 -6.638509,-6.913668 -0.353024,-1.076507 -0.72134,-1.983775 -0.818483,-2.016151 -0.09714,-0.03238 -0.910319,0.505763 -1.807058,1.195866 -7.273359,5.597348 -12.790358,8.14545 -20.329567,9.389489 -1.370697,0.226177 -2.622977,0.28568 -6.049719,0.287454 -5.145056,0.0027 -6.695247,-0.193286 -12.536201,-1.584611 -1.234103,-0.293966 -2.341453,-0.534483 -2.460779,-0.534483 -0.302893,0 -0.387582,1.383431 -0.541395,8.843908 -0.121122,5.874844 -0.146829,6.264276 -0.427017,6.468851 -0.267073,0.194999 -0.303303,0.477099 -0.34772,2.70752 -0.050203,2.520968 0.073532,3.350155 0.499926,3.350155 0.172176,0 0.246987,0.399329 0.331176,1.767775 0.208571,3.390162 0.527466,5.260894 1.285452,7.54086 0.664117,1.997611 2.16859,5.27633 3.373915,7.35282 l 0.504615,0.86933 -1.125738,1.677884 c -0.988836,1.473837 -1.197478,1.696577 -1.715666,1.831586 -1.973825,0.514267 -10.0350614,2.530142 -10.1176067,2.530112 -0.05475,-1.9e-5 -0.1452335,-0.441978 -0.2010741,-0.982132 z"
     id="path1789" /><path
     style="fill:#f9f9f9;fill-rule:evenodd;stroke-width:0.157135;stroke-miterlimit:4.5"
     d="m 34.412685,76.577227 c -2.93227,-0.463686 -5.607407,-1.318402 -7.055219,-2.254167 -1.196898,-0.773594 -3.143041,-2.619115 -4.140406,-3.926335 -1.074266,-1.408014 -2.689244,-4.771621 -3.168728,-6.599693 -0.819647,-3.124972 -1.118096,-5.568387 -0.710885,-5.820057 0.549805,-0.339798 7.043855,-2.373431 8.946951,-2.801767 2.469826,-0.555891 6.16091,-1.118505 7.346087,-1.119729 0.453729,-4.68e-4 0.824885,-0.05388 0.82479,-0.118703 -1.57e-4,-0.159172 5.696862,0.04496 7.46411,0.267446 3.461365,0.435765 7.820881,1.597809 10.958091,2.920917 0.702476,0.296267 1.305666,0.510233 1.340421,0.475478 0.03475,-0.03475 0.189099,0.04462 0.342986,0.176381 0.330172,0.282702 0.304219,0.821345 -0.16282,3.379305 -0.781105,4.278073 -2.487681,7.624033 -5.384025,10.556071 -1.593942,1.613585 -2.355226,2.101226 -4.894755,3.135327 -2.051194,0.835251 -4.451042,1.447344 -6.554216,1.671685 -1.462686,0.15602 -4.328096,0.188188 -5.152382,0.05784 z"
     id="path1865" /><path
     style="fill:#f9f9f9;fill-rule:evenodd;stroke-width:0.157135;stroke-miterlimit:4.5"
     d="m 33.784142,76.41927 c -4.591902,-0.939968 -6.769504,-2.053583 -9.336336,-4.774561 -2.670163,-2.830512 -4.475375,-7.078883 -5.188665,-12.210955 -0.185875,-1.337365 -0.164369,-1.356622 2.480949,-2.22145 5.341141,-1.74617 8.455836,-2.480201 12.422366,-2.927543 1.131508,-0.127611 2.212042,-0.267208 2.401188,-0.310215 0.189146,-0.04301 1.869086,-0.0055 3.733203,0.08326 5.627671,0.268083 8.766163,0.96769 15.250569,3.399529 1.24289,0.46612 1.227758,0.445273 1.109249,1.528172 -0.576466,5.267543 -2.516712,9.46916 -5.940105,12.863333 -1.237053,1.226495 -1.599396,1.482359 -3.154565,2.227546 -1.937961,0.928608 -3.542244,1.490588 -5.685372,1.991586 -1.129467,0.264035 -2.047005,0.340782 -4.556931,0.381158 -1.728491,0.02781 -3.319488,0.01438 -3.53555,-0.02986 z"
     id="path1978" /><path
     style="fill:#1a1a1a;fill-rule:evenodd;stroke-width:0.157135;stroke-miterlimit:4.5"
     d="M 2.9274032,70.436009 C 2.8556651,70.187401 2.690008,68.090223 2.4340178,64.189871 2.0558888,58.428571 2.0993352,43.710197 2.5077684,39.205319 3.7947651,25.010187 6.5978048,17.214143 12.80586,10.563418 18.061589,4.9329265 25.256934,1.4456259 33.2901,0.63551234 c 2.086347,-0.21039982 6.834477,-0.21077898 9.049617,-7.2282e-4 3.531094,0.33484519 7.207484,1.40578178 10.718378,3.12227398 6.68789,3.2697415 11.660906,8.3805615 15.074327,15.4920405 2.003819,4.174734 3.340667,9.219273 4.253793,16.051521 0.3843,2.875437 0.477242,17.87108 0.143163,23.098471 -0.293968,4.599739 -0.690898,9.569126 -0.805307,10.082069 -0.07629,0.342045 -0.146127,0.306638 -1.214836,-0.615933 -1.423929,-1.229217 -2.470863,-1.900985 -4.271528,-2.740845 -1.846484,-0.861228 -2.634109,-1.120137 -4.281528,-1.407422 -0.746133,-0.130115 -1.378773,-0.258741 -1.405868,-0.285834 -0.02709,-0.0271 0.466751,-1.072587 1.097432,-2.323317 1.177096,-2.334344 2.155929,-4.993796 2.451398,-6.660347 0.09193,-0.518547 0.272514,-1.9948 0.401286,-3.280561 0.128773,-1.285762 0.310483,-2.429745 0.403798,-2.542183 0.121102,-0.145919 0.121858,-0.633153 0.0026,-1.702298 -0.207802,-1.863589 -0.21266,-3.160252 -0.01443,-3.85144 0.0986,-0.343786 0.09886,-1.566676 7.86e-4,-3.455943 -0.08352,-1.608141 -0.195665,-5.237997 -0.24922,-8.066349 l -0.09737,-5.142457 -0.492628,-0.07487 c -3.035294,-0.461287 -3.731688,-0.614093 -4.497862,-0.986944 -1.743352,-0.848388 -2.893135,-2.515118 -4.182744,-6.063327 -0.380525,-1.046975 -0.754605,-1.96633 -0.831289,-2.043013 -0.197084,-0.197084 -0.630385,0.05854 -2.608764,1.539054 -6.933972,5.189003 -12.208342,7.589512 -19.563376,8.903825 -1.613795,0.288379 -10.400025,0.291194 -12.256572,0.0039 -1.594834,-0.246772 -4.315657,-0.802389 -6.637684,-1.35548 -2.224117,-0.529768 -2.412391,-0.524564 -2.531298,0.06997 -0.05192,0.259612 -0.16611,3.247151 -0.253749,6.638977 -0.181117,7.009573 -0.24304,7.986675 -0.51687,8.155911 -0.144688,0.08942 -0.1956422,0.877769 -0.1956422,3.026888 0,2.641166 0.026366,2.925254 0.2893442,3.117548 0.237923,0.173974 0.315925,0.559144 0.438919,2.167378 0.196413,2.568238 0.503534,4.467342 1.002709,6.200333 0.530322,1.841124 2.099162,5.501067 3.221609,7.515686 l 0.88934,1.596309 -0.900991,1.335652 c -1.155166,1.712451 -1.435421,1.997111 -2.152459,2.186296 -1.829391,0.482669 -9.4820849,2.370635 -9.6091502,2.370635 -0.082896,0 -0.186428,-0.123744 -0.2300706,-0.274987 z"
     id="path2017" /></svg>
