<svg  xmlns="http://www.w3.org/2000/svg"
  viewBox="0 0 122.88 122.88" >
<path
       d="M10.52,22.54L10.52,22.54c2.11,0,4.08,0.63,5.73,1.71v-2.84c0-2.89,1.18-5.52,3.09-7.43c1.9-1.9,4.53-3.09,7.43-3.09l0,0 c2.23,0,4.3,0.7,6.01,1.9v-2.29c0-2.89,1.18-5.52,3.09-7.43C37.77,1.18,40.4,0,43.29,0l0,0c2.89,0,5.52,1.18,7.43,3.09 c1.9,1.9,3.09,4.53,3.09,7.43v2.32c1.68-1.15,3.71-1.82,5.9-1.82l0,0c2.89,0,5.52,1.18,7.43,3.09c1.9,1.9,3.09,4.54,3.09,7.43 v49.97c0.13,0.86,0.2,1.74,0.2,2.64v2.94l0.26-0.24c1.81-1.7,3.58-3.47,4.24-4.14c4.48-4.49,9.31-5.44,13.14-4.23 c1.73,0.55,3.23,1.53,4.41,2.83c1.17,1.29,2.03,2.89,2.46,4.69c1.01,4.25-0.36,9.6-5.64,14.32l-0.09,0.09l0,0l-0.02,0.02 l-23.12,23.34l0,0.01c-0.05,0.05-0.11,0.11-0.17,0.16c-3.38,3.25-6.69,5.47-10.29,6.9c-3.66,1.46-7.52,2.06-11.94,2.06H28.71 c-7.96,0-15.13-3.26-20.31-8.5C3.2,109.11,0,101.84,0,93.85V74.13c0-0.69,0.04-1.37,0.11-2.04C0.04,71.86,0,71.61,0.01,71.36v-38.3 c0-2.89,1.18-5.52,3.09-7.43C5,23.72,7.63,22.54,10.52,22.54L10.52,22.54z M66.14,83.55c-4.09-1.57-7.81-2.34-11.09-2.39 c-3.43-0.05-6.36,0.68-8.69,2.08c-2.26,1.35-3.98,3.38-5.07,5.96c-0.85,2.01-1.31,4.35-1.35,6.98l-4.76-0.06 c0.05-3.28,0.63-6.23,1.7-8.77c1.48-3.53,3.87-6.31,7.03-8.2c3.08-1.85,6.86-2.81,11.19-2.75c3.23,0.05,6.76,0.66,10.53,1.9v-4.16 c0-0.51-0.03-1.02-0.09-1.52c-0.1-0.22-0.16-0.45-0.19-0.7c-0.63-2.87-2.23-5.4-4.45-7.22c-2.22-1.81-5.05-2.91-8.12-2.91h-1.2 c-0.03,0-0.05,0-0.08,0c-0.03,0-0.05,0-0.08,0H35.17c-0.05,0-0.09,0-0.14,0c-0.05,0-0.09,0-0.14,0H18.64 c-0.25,0-0.5-0.04-0.73-0.12h-0.6c-3.06,0-5.87,1.08-8.07,2.87c-1.09,0.89-2.03,1.94-2.79,3.13c-1.07,1.9-1.67,4.11-1.67,6.46 v19.72c0,6.7,2.67,12.79,7.02,17.18c4.31,4.36,10.27,7.06,16.91,7.06h14.96c3.86,0,7.16-0.5,10.19-1.71c3-1.19,5.81-3.1,8.73-5.91 c0.03-0.03,0.06-0.06,0.09-0.09l0,0l0.03-0.03l23.09-23.31c0.07-0.08,0.15-0.17,0.24-0.24l1.59,1.79l-1.58-1.78 c3.83-3.39,4.89-7,4.23-9.74c-0.24-1-0.7-1.88-1.34-2.58c-0.63-0.7-1.42-1.22-2.32-1.5c-2.27-0.72-5.28,0.01-8.32,3.05 c-0.7,0.7-2.55,2.55-4.35,4.25c-1.7,1.59-3.45,3.12-4.6,3.77c-0.38,0.25-0.83,0.4-1.32,0.4C67.26,84.47,66.57,84.11,66.14,83.55 L66.14,83.55z M21.04,56.5h11.47V21.42c0-1.57-0.65-3.01-1.69-4.05c-1.04-1.04-2.47-1.69-4.05-1.69l0,0 c-1.57,0-3.01,0.65-4.05,1.69c-1.04,1.04-1.69,2.47-1.69,4.05v11.64V56.5L21.04,56.5z M37.56,56.5h11.47V10.52 c0-1.57-0.65-3.01-1.69-4.05c-1.04-1.04-2.47-1.69-4.05-1.69l0,0c-1.57,0-3.01,0.65-4.05,1.69c-1.04,1.04-1.69,2.47-1.69,4.05V56.5 L37.56,56.5z M53.97,56.54c4.38,0.29,8.34,2.2,11.27,5.14c0.07,0.07,0.13,0.14,0.2,0.2V21.53c0-1.57-0.65-3.01-1.69-4.05 c-1.04-1.04-2.47-1.68-4.05-1.68l0,0c-1.57,0-3.01,0.64-4.05,1.68c-1.04,1.04-1.69,2.47-1.69,4.05V56.54L53.97,56.54z M4.79,61.93 c0.09-0.09,0.17-0.19,0.26-0.28c2.89-2.95,6.8-4.86,11.2-5.12V33.06c0-1.57-0.64-3.01-1.68-4.05c-1.04-1.04-2.47-1.69-4.05-1.69 l0,0c-1.58,0-3.01,0.65-4.05,1.69c-1.04,1.04-1.68,2.47-1.68,4.05V61.93L4.79,61.93z"
       id="path2" /><path
     style="fill:#ffffff;fill-rule:evenodd;stroke-width:0.0157136;stroke-linejoin:round"
     d="m 26.555907,117.90833 c -0.216061,-0.0317 -0.923171,-0.13251 -1.571355,-0.224 C 16.310673,116.4601 8.6465535,109.76849 5.9888066,101.09897 4.9268764,97.63497 4.9497697,98.003303 4.9497697,84.381788 c 0,-13.630503 -0.031562,-13.153881 1.0268882,-15.507306 1.5304146,-3.40282 5.1618931,-6.188237 8.9422131,-6.858857 0.763978,-0.135527 6.088542,-0.161103 20.593762,-0.09892 21.992879,0.09428 20.115236,-0.01448 22.863222,1.324366 3.319841,1.617457 5.709847,4.526295 6.743829,8.207805 0.362347,1.290138 0.405839,1.725726 0.405839,4.064567 v 2.619574 l -0.353555,-0.09954 c -1.495132,-0.420954 -4.209188,-1.06511 -5.381893,-1.277344 -1.913214,-0.34625 -6.37467,-0.478821 -8.171048,-0.2428 -8.564019,1.125201 -14.27884,6.417757 -16.0172,14.833701 -0.207927,1.006633 -0.600885,4.68656 -0.50856,4.762491 0.01458,0.01201 1.140226,0.05068 2.501412,0.08596 l 2.474885,0.06414 v -0.882888 c 0,-1.268165 0.436936,-3.636875 0.948921,-5.144284 2.525404,-7.43539 10.043701,-10.550639 19.844919,-8.222853 2.059492,0.489127 5.231441,1.561503 5.470162,1.849358 0.293667,0.35411 1.12275,0.679971 1.730035,0.679971 1.226198,0 2.900168,-1.293174 8.104342,-6.260758 2.007438,-1.916176 4.079945,-3.761918 4.605573,-4.101647 1.635671,-1.057185 3.569788,-1.546235 5.017,-1.26857 1.876362,0.360003 3.153882,1.359901 3.988682,3.121889 0.46058,0.972134 0.494537,1.160411 0.486064,2.695071 -0.0077,1.399732 -0.07231,1.81108 -0.425875,2.7127 -0.894687,2.281496 -1.40067,2.86001 -10.615018,12.136609 -19.490419,19.622087 -19.080225,19.233797 -22.45345,21.254797 -2.639843,1.58162 -6.074645,2.65979 -9.60762,3.0158 -1.487157,0.14986 -19.63807,0.2058 -20.607392,0.0635 z"
     id="path863" /><path
     style="fill:#ffffff;fill-rule:evenodd;stroke-width:0.0157136;stroke-linejoin:round"
     d="m 4.9066446,46.646633 0.043125,-14.98382 0.4267984,-0.869025 c 0.670281,-1.364792 1.4119314,-2.115943 2.7346176,-2.76965 1.0541594,-0.520994 1.3092526,-0.583104 2.3878294,-0.581389 2.50834,0.004 4.637369,1.58609 5.39043,4.005678 0.278396,0.894487 0.295516,1.644693 0.295516,12.949244 V 56.39742 l -0.589258,0.09293 c -2.076011,0.327403 -2.7759,0.486834 -3.967673,0.903823 -2.2949637,0.802983 -3.8983668,1.74019 -5.7785723,3.37764 l -0.9859384,0.858642 z"
     id="path939" /><path
     style="fill:#ffffff;fill-rule:evenodd;stroke-width:0.0157136;stroke-linejoin:round"
     d="m 21.056163,38.820214 c 0,-12.426459 0.05187,-17.835933 0.17668,-18.424142 0.251057,-1.183236 0.780399,-2.134452 1.656709,-2.977066 0.923758,-0.888238 1.719107,-1.301413 2.984342,-1.550333 2.339273,-0.460224 4.877,0.907584 6.044382,3.25786 l 0.373079,0.751114 0.04184,18.267007 0.04184,18.267007 h -5.659438 -5.659439 z"
     id="path978" /><path
     style="fill:#ffffff;fill-rule:evenodd;stroke-width:0.0157136;stroke-linejoin:round"
     d="m 37.556583,33.587723 c 7.76e-4,-14.936031 0.05725,-23.169426 0.163398,-23.8236189 0.31367,-1.9330885 1.48399,-3.5033868 3.258334,-4.3719282 0.780245,-0.3819298 1.084177,-0.4398982 2.312528,-0.441064 1.246086,-0.00118 1.525292,0.053193 2.348474,0.4573697 1.793454,0.8805735 2.93932,2.4595903 3.226586,4.4462747 0.09505,0.6573767 0.155356,9.7871667 0.157275,23.8115347 l 0.0031,22.74537 h -5.735447 -5.735447 z"
     id="path1017" /><path
     style="fill:#ffffff;fill-rule:evenodd;stroke-width:0.0157136;stroke-linejoin:round"
     d="M 64.58271,60.932107 C 62.158109,58.774156 58.961932,57.221415 55.940255,56.7335 55.29207,56.628837 54.601478,56.511967 54.405605,56.473791 l -0.356134,-0.06941 0.04186,-18.10623 0.04186,-18.106231 0.418044,-0.891767 c 0.585294,-1.248542 1.550852,-2.234777 2.780669,-2.840213 0.924915,-0.455334 1.182808,-0.51068 2.379599,-0.51068 1.19679,0 1.454683,0.05535 2.379598,0.51068 1.229817,0.605436 2.195375,1.591671 2.780669,2.840213 l 0.418045,0.891767 0.04237,16.656368 c 0.0233,9.161002 0.0233,18.469148 0,20.684767 l -0.04237,4.028397 z"
     id="path1056" /></svg>
