<svg  xmlns="http://www.w3.org/2000/svg"
  viewBox="0 0 122.88 122.88" >  <path
     class="cls-1"
     d="M98.79,41.81c2.44-.82,5,.48,6.71,2.52a11.94,11.94,0,0,1,1.33,3.22,9.61,9.61,0,0,1,.24,3.2c-1.36,3.36-3.86,4.57-6.68,6.54A61.51,61.51,0,0,1,91.65,61q-2.4.9-4.88,1.67c-1.64.51-3.3,1-5,1.38a19.64,19.64,0,0,1-17.18-4.37A47,47,0,0,1,60.82,56l-.37-.4L57.17,75A68.49,68.49,0,0,0,65,79.57c8.51,4,15.5,7.25,17,20.6.27,2.33.15,16,0,22.71H66.67c.15-7.58.32-18.23.19-20.29-.09-1.48-1.09-5.38-2.64-6.09a65.82,65.82,0,0,0-6.37-2.37c-3-1-5.47-2-8.44-2.82-2.19,7.19-5.12,15.87-8.28,24.14l-3,7.43H21.51c1.54-4.14,3.12-8.55,4.67-13,3.2-9.17,6.27-18.58,8.53-26.06a23.86,23.86,0,0,1-3.51-5.53,12.34,12.34,0,0,1-1.14-5.18,12.09,12.09,0,0,1,.18-2.08L35,47.2c-1.7-.09-3.65-.59-5.25.11-3.09,1.35-7.65,7.13-10.35,9.84l-3.62,3.66c-2.79,2.82-4.64,6-8.91,5.61C1.55,66-2.23,60.12,1.5,55.61l8.34-8.44c4-4.08,7.82-8.88,12.78-11.68,4-2.25,8.3-3.79,15.46-3.48,2.63,0,5.4.29,8,.54l3.06.26c12,.78,17.62,7.11,22,12,1.94,2.19,3.6,4,5.4,4.91.85.4,2.19-.17,3.71-.8l11.11-4.13,7.41-3v0Zm-50-41A14.2,14.2,0,0,1,53.48,0a14.4,14.4,0,1,1-14.4,14.4,14.56,14.56,0,0,1,1.47-6.35A14.39,14.39,0,0,1,48.82.78Z"
     id="path8" />
  <path
     style="fill:#000000;fill-rule:evenodd;stroke-width:0.0157136;stroke-linejoin:round"
     d="m 21.684705,122.78803 c 0,-0.0521 0.644281,-1.87356 1.431735,-4.04764 5.219076,-14.40934 11.856687,-34.59936 11.525036,-35.056392 -1.183742,-1.631246 -2.701209,-4.062724 -3.194459,-5.118561 -0.97294,-2.082653 -1.188162,-3.065563 -1.186537,-5.41884 0.0014,-2.006792 0.04366,-2.25265 2.400718,-13.962329 1.31962,-6.555761 2.370519,-11.948357 2.33533,-11.983546 -0.03519,-0.03519 -0.835058,-0.142485 -1.777486,-0.238436 -2.289125,-0.233061 -3.15009,-0.05424 -4.664721,0.968878 -1.635495,1.104757 -2.779085,2.183037 -5.809732,5.477934 -1.479219,1.608197 -4.638614,4.91196 -7.020876,7.341695 -3.897679,3.975348 -4.43953,4.470156 -5.411405,4.941584 -3.3743179,1.636784 -7.895032,-0.04275 -9.62981147,-3.577663 -0.40479507,-0.82484 -0.44679321,-1.06551 -0.44679321,-2.560342 0,-2.48893 -0.12472159,-2.32092 7.77549798,-10.474145 C 17.656314,39.12623 18.518264,38.305036 21.232267,36.484289 c 2.576295,-1.728363 6.245657,-3.281612 9.147191,-3.872028 3.540094,-0.720353 8.212017,-0.702606 16.401963,0.06231 7.223661,0.674663 9.6638,1.246256 13.480061,3.157652 3.51678,1.761399 6.095762,3.884107 10.207321,8.401438 3.123327,3.43157 3.913866,4.200453 5.188829,5.046687 0.747882,0.496392 1.053695,0.607894 1.639752,0.597864 0.805296,-0.01378 11.534007,-3.94971 18.083893,-6.634246 3.594166,-1.473105 3.726224,-1.51363 4.949773,-1.518978 1.08581,-0.0047 1.39624,0.06058 2.27846,0.479478 1.42711,0.67762 2.71224,1.897917 3.30354,3.136883 0.64125,1.343613 1.09626,3.194786 1.09626,4.460051 0,0.915875 -0.0699,1.159253 -0.58926,2.052227 -0.80897,1.390881 -2.1912,2.714107 -4.38905,4.20172 -2.138854,1.447679 -2.668883,1.72919 -5.64574,2.998594 -5.411703,2.307682 -13.079602,4.754903 -16.296786,5.201144 -4.850192,0.672751 -10.15743,-0.699162 -14.164378,-3.661467 -0.694551,-0.513476 -2.235095,-1.888992 -3.423432,-3.056706 -1.188338,-1.167712 -2.160614,-2.043315 -2.160614,-1.945784 0,0.182255 -3.088253,18.562453 -3.213702,19.126829 -0.05333,0.239942 0.123334,0.442123 0.746961,0.854838 2.079329,1.376091 4.95104,2.974823 8.993072,5.006598 5.158293,2.592879 6.774374,3.618289 8.864887,5.624814 3.405619,3.268795 5.18706,7.088193 6.048753,12.968495 0.201519,1.375178 0.244536,3.428488 0.243617,11.628028 -6.29e-4,5.47686 -0.0462,10.43524 -0.10129,11.0186 L 81.822174,122.88 h -7.514619 -7.514618 l 0.09246,-10.33166 c 0.101875,-11.38356 0.122423,-11.06523 -0.882364,-13.668803 -0.713149,-1.847886 -1.10159,-2.228076 -3.082605,-3.017129 -3.628134,-1.445109 -13.14904,-4.645739 -13.459358,-4.524612 -0.109492,0.04274 -0.441874,0.881616 -0.738628,1.864174 -2.02395,6.701342 -6.420389,19.13171 -9.135056,25.82821 l -1.528816,3.77125 -8.186931,0.0407 c -4.502814,0.0224 -8.186934,-0.002 -8.186934,-0.0541 z"
     id="path902" />
  <path
     style="fill:#000000;fill-rule:evenodd;stroke-width:0.0157136;stroke-linejoin:round"
     d="m 51.697595,28.611247 c -2.139845,-0.307961 -4.528814,-1.227531 -6.285422,-2.419405 -1.06257,-0.720965 -2.940789,-2.582803 -3.642329,-3.610564 -0.892623,-1.307699 -1.791536,-3.281868 -2.196985,-4.824961 -0.48849,-1.859135 -0.487997,-4.686772 0.0012,-6.668824 1.602764,-6.4943396 7.270708,-10.94700853 13.930633,-10.94373781 5.878652,0.002887 10.947386,3.43813031 13.235476,8.97010651 0.973884,2.3545843 1.264681,5.5713073 0.735723,8.1383893 -0.918416,4.457166 -3.951538,8.250848 -8.126947,10.164797 -2.203067,1.009855 -5.431255,1.513702 -7.651311,1.194199 z"
     id="path948" />
</svg>
