<svg  xmlns="http://www.w3.org/2000/svg"
  viewBox="0 0 122.88 122.88" >  <path
     d="M36.09,34.45a3.15,3.15,0,0,1,0-6.28H76.37a3.15,3.15,0,0,1,0,6.28ZM16.43,90a5.79,5.79,0,1,1-4.86,8.94H8.82v13.36a1.91,1.91,0,0,0,1.9,1.9H91.1a1.91,1.91,0,0,0,1.34-.56,1.87,1.87,0,0,0,.56-1.34V7.12a1.9,1.9,0,0,0-.55-1.34,1.93,1.93,0,0,0-1.35-.56H10.72a1.89,1.89,0,0,0-1.9,1.9V20.48h2.75a5.8,5.8,0,1,1,0,6.29H8.82V44.53h2.75a5.8,5.8,0,1,1,0,6.29H8.82V68.58h2.75a5.79,5.79,0,1,1,0,6.29H8.82V92.63h2.75A5.79,5.79,0,0,1,16.43,90ZM3.14,98.92a3.15,3.15,0,0,1,0-6.29H3.6V74.87H3.14a3.15,3.15,0,0,1,0-6.29H3.6V50.82H3.14a3.15,3.15,0,0,1,0-6.29H3.6V26.77H3.14a3.15,3.15,0,0,1,0-6.29H3.6V7.12a7.09,7.09,0,0,1,2.09-5h0a7.07,7.07,0,0,1,5-2.09H91.1a7.07,7.07,0,0,1,5,2.09h0A7.1,7.1,0,0,1,98,5.44h.6a4.55,4.55,0,0,1,4.5,4.51V118.37a4.53,4.53,0,0,1-4.5,4.51H16.76a4.51,4.51,0,0,1-4.39-3.48H10.72a7.14,7.14,0,0,1-7.12-7.12V98.92Zm33-7.69a3.15,3.15,0,0,1,0-6.29H76.37a3.15,3.15,0,0,1,0,6.29Zm0-18.92a3.15,3.15,0,0,1,0-6.29H76.37a3.15,3.15,0,0,1,0,6.29Zm0-18.93a3.15,3.15,0,0,1,0-6.29H76.37a3.15,3.15,0,0,1,0,6.29Z"
     id="path4" />
  <path
     style="fill:#ffffff;fill-rule:evenodd;stroke-width:0.0157136;stroke-linejoin:round"
     d="m 9.9605265,113.92687 c -0.1825185,-0.074 -0.4830403,-0.32675 -0.6678261,-0.56167 -0.3317417,-0.42174 -0.3359743,-0.51495 -0.3359743,-7.39847 v -6.971336 l 1.2178009,7.86e-4 1.2178,7.86e-4 0.780871,0.809219 c 0.478916,0.496305 1.177689,0.996965 1.807059,1.294735 0.91016,0.43063 1.186088,0.48552 2.440408,0.48552 1.259751,0 1.528376,-0.054 2.459367,-0.49439 1.32637,-0.62742 2.231273,-1.532321 2.858692,-2.858691 0.441066,-0.93242 0.494209,-1.197684 0.492702,-2.459368 -0.0014,-1.2 -0.0651,-1.550323 -0.420349,-2.312732 -0.516706,-1.108929 -1.603644,-2.293957 -2.597474,-2.831879 -2.290012,-1.239498 -5.245468,-0.759882 -7.022181,1.139567 l -0.733121,0.78389 H 10.207514 8.9567261 v -8.799591 -8.79959 h 1.2507879 1.250787 l 0.709624,0.758645 c 2.301963,2.460985 6.097017,2.496593 8.448336,0.07927 0.406238,-0.417641 0.935459,-1.183614 1.176046,-1.702161 0.375584,-0.809512 0.437669,-1.142763 0.439119,-2.357033 0.0015,-1.262009 -0.05158,-1.526833 -0.493245,-2.460527 -0.614846,-1.299807 -1.554871,-2.234638 -2.881915,-2.865993 -0.909538,-0.432719 -1.176242,-0.485591 -2.435601,-0.482828 -1.820774,0.004 -2.98355,0.490269 -4.168647,1.743335 l -0.798915,0.844734 H 10.204914 8.9567261 v -8.79959 -8.799591 h 1.2507879 1.250787 l 0.709624,0.758646 c 2.838902,3.035016 7.796904,2.258829 9.553849,-1.495678 1.227862,-2.62388 0.376329,-5.810013 -1.962678,-7.34364 -2.451355,-1.607291 -5.553728,-1.26818 -7.577075,0.828229 L 11.40036,44.46936 H 10.178543 8.9567261 v -8.799591 -8.799591 h 1.2246159 1.224617 l 0.94702,0.92095 c 1.868407,1.816971 4.493144,2.216368 6.82473,1.038498 2.347613,-1.185968 3.64112,-4.194276 2.908314,-6.763861 -0.699895,-2.454181 -2.669589,-4.068975 -5.20176,-4.264508 -1.885829,-0.145623 -3.469743,0.485758 -4.821101,1.921789 l -0.663031,0.704575 H 10.178429 8.9567261 V 13.419376 6.4111303 L 9.490987,5.8768694 10.025248,5.3426086 h 40.886669 40.886669 l 0.534261,0.5342608 0.534261,0.5342609 V 59.693314 112.9755 l -0.458512,0.51317 -0.458514,0.51317 -40.828851,0.0298 c -22.455869,0.0164 -40.978186,-0.0308 -41.1607045,-0.10476 z M 77.431443,91.052549 c 1.232167,-0.514833 1.922008,-1.583713 1.922008,-2.978075 0,-1.470918 -0.868463,-2.697007 -2.165493,-3.057228 -0.80946,-0.224809 -41.057405,-0.224809 -41.866865,0 -2.748929,0.763453 -2.939027,4.874544 -0.278744,6.028193 0.480776,0.208492 3.107517,0.238775 21.17794,0.244163 18.273459,0.0055 20.695553,-0.02162 21.211154,-0.237053 z m 0.429385,-19.163037 c 0.978084,-0.60579 1.492623,-1.531639 1.492623,-2.685789 0,-1.038596 -0.197974,-1.570755 -0.834599,-2.243433 -0.972147,-1.0272 0.502235,-0.963361 -22.24905,-0.963361 -14.240765,0 -20.875279,0.05224 -21.179062,0.166773 -0.599961,0.226195 -1.45376,1.058302 -1.718173,1.674523 -0.521953,1.216421 -0.07741,3.122225 0.898185,3.850611 1.026637,0.766496 0.239918,0.741524 22.231842,0.705666 l 20.59712,-0.03358 z M 77.68859,53.069946 c 0.337482,-0.193033 0.830372,-0.620123 1.095312,-0.949086 0.409068,-0.50792 0.490788,-0.758781 0.541912,-1.66355 0.04822,-0.853334 -0.0053,-1.193858 -0.268901,-1.710531 -0.365287,-0.716021 -1.076203,-1.312773 -1.887524,-1.584415 -0.388357,-0.130026 -6.09662,-0.178836 -20.914863,-0.178836 -14.818244,0 -20.526507,0.04881 -20.914864,0.178836 -0.811321,0.271642 -1.522237,0.868394 -1.887523,1.584415 -0.263587,0.516673 -0.317119,0.857197 -0.268902,1.710531 0.05112,0.904769 0.132844,1.15563 0.541912,1.66355 0.26494,0.328963 0.75783,0.756053 1.095312,0.949086 l 0.613605,0.35097 h 20.82046 20.820459 z M 77.046824,34.401352 c 0.330209,-0.0917 0.874087,-0.413996 1.208619,-0.716224 1.659835,-1.499562 1.344577,-4.157228 -0.615913,-5.192247 l -0.692542,-0.365618 h -20.72498 c -18.77645,0 -20.772262,0.02389 -21.227868,0.254083 -1.192659,0.602593 -1.83854,1.625341 -1.83854,2.911324 0,1.475359 0.770408,2.555973 2.181838,3.060363 0.745543,0.266428 40.757006,0.31278 41.709386,0.04832 z"
     id="path900" />
</svg>
