<svg  xmlns="http://www.w3.org/2000/svg"
  viewBox="0 0 122.88 122.88" >
  <path
     class="cls-1"
     d="M103.3,34.19l8.23,3.52a2.15,2.15,0,0,1,1.13,2.82l-2,4.56L98.53,39.88l2-4.56a2.15,2.15,0,0,1,2.82-1.13ZM8.88,7.88h8.19V2.73a2.74,2.74,0,0,1,5.47,0V7.88h12V2.73a2.73,2.73,0,1,1,5.46,0V7.88H52V2.73a2.73,2.73,0,0,1,5.46,0V7.88h12V2.73a2.73,2.73,0,0,1,5.46,0V7.88h9.27a8.91,8.91,0,0,1,8.88,8.88V28.54a12.27,12.27,0,0,0-1.76,2.9l-2,4.56A10,10,0,0,0,89,37.16a11.24,11.24,0,0,0-.58,1.15l-.6,1.4V16.76a3.6,3.6,0,0,0-3.58-3.58H75v5.15a2.73,2.73,0,0,1-5.46,0V13.18h-12v5.15a2.73,2.73,0,0,1-5.46,0V13.18H40v5.15a2.73,2.73,0,1,1-5.46,0V13.18h-12v5.15a2.74,2.74,0,0,1-5.47,0V13.18H8.88A3.58,3.58,0,0,0,5.3,16.76v92a3.6,3.6,0,0,0,3.58,3.59H59.16l.56,5.29H8.88A8.89,8.89,0,0,1,0,108.77v-92A8.91,8.91,0,0,1,8.88,7.88ZM20.34,94.35a2.65,2.65,0,0,1,0-5.3H66.72l-2.27,5.3Zm0-17.48a2.65,2.65,0,0,1,0-5.3H72.78a2.52,2.52,0,0,1,1.27.35l-2.12,5Zm0-17.48a2.65,2.65,0,0,1,0-5.3H72.78a2.65,2.65,0,0,1,0,5.3Zm0-17.48a2.65,2.65,0,0,1,0-5.3H72.78a2.65,2.65,0,0,1,0,5.3ZM81,114.6l-6.19,5c-4.85,3.92-4.36,5.06-5-.88l-1-9.34h0L97.54,42.18l12.18,5.22L81,114.6Zm-10.09-4.31,8,3.42L74.82,117c-3.19,2.58-2.87,3.32-3.28-.57l-.66-6.14Z"
     id="path8" />
  <path
     style="fill:none;stroke:#000000;stroke-width:1px;stroke-linecap:butt;stroke-linejoin:miter;stroke-opacity:1"
     d="M 87.82,39.71 59.16,112.35"
     id="path863" />
  <path
     style="fill:#f9f9f9;fill-rule:evenodd;stroke-width:0.00785678;stroke-linejoin:round"
     d="m 65.401184,95.323148 c 0.09173,-0.289019 21.949412,-55.655844 21.986369,-55.692802 0.02092,-0.02092 0.216378,0.04283 0.434347,0.141664 l 0.396306,0.179703 -10.944419,27.734424 -10.944418,27.734424 -0.487029,0.02356 c -0.442483,0.02141 -0.482833,0.01034 -0.441156,-0.120973 z"
     id="path1056" />
  <path
     style="fill:#e6e6e6;fill-rule:evenodd;stroke-width:0.00785678;stroke-linejoin:round"
     d="m 59.200817,112.32587 c -0.216061,-0.0872 -0.403868,-0.16629 -0.417348,-0.17584 -0.02047,-0.0145 6.494594,-16.603268 6.548746,-16.674529 0.0099,-0.01299 0.23108,-0.01299 0.491567,0 l 0.473612,0.02363 -3.331893,8.445029 c -1.832542,4.64477 -3.340883,8.46645 -3.351869,8.49262 -0.01099,0.0262 -0.196754,-0.0237 -0.412815,-0.11091 z"
     id="path1132" />
  <path
     style="fill:#f9f9f9;fill-rule:evenodd;stroke-width:0.0222223;stroke-linejoin:round"
     d="M 7.3797076,111.85211 C 6.4578863,111.39779 5.8427105,110.62237 5.5542664,109.55117 5.4048633,108.99633 5.3485901,93.115118 5.3868454,62.302189 5.4439072,16.341398 5.4488014,15.881605 5.8889153,15.134408 6.8457956,13.509879 7.0537424,13.452302 12.237894,13.376475 l 4.651071,-0.06803 3.45e-4,2.623596 c 3.78e-4,2.88921 0.264371,3.771583 1.371022,4.582557 0.724138,0.53066 2.056503,0.56675 2.995567,0.08114 1.124752,-0.581631 1.41087,-1.509156 1.41087,-4.573697 v -2.68865 h 5.888915 5.888915 v 2.799762 c 0,3.130008 0.238135,3.962414 1.315662,4.598924 1.218918,0.720033 3.107387,0.341589 3.893095,-0.780166 0.273541,-0.390536 0.346824,-1.142082 0.346824,-3.556841 v -3.061679 h 6.000027 6.000027 v 2.910171 c 0,2.295061 0.07682,3.040219 0.363455,3.525451 0.745294,1.261682 2.49182,1.715742 3.866059,1.005095 1.112425,-0.575257 1.326066,-1.30682 1.326066,-4.540779 v -2.899938 h 5.863175 5.863176 l 0.09184,2.944458 c 0.05579,1.78859 0.202315,3.145405 0.373258,3.456351 0.427564,0.777745 1.576031,1.375236 2.645212,1.376173 0.769614,6.67e-4 1.1037,-0.142016 1.777785,-0.759304 l 0.830073,-0.760136 0.07255,-3.140071 0.07255,-3.14007 5.189557,0.06686 c 5.899704,0.07601 5.993949,0.102614 6.943178,1.960294 0.499669,0.977875 0.500002,0.986251 0.500002,12.598158 0,8.647206 -0.06544,11.605421 -0.255799,11.564076 -0.149058,-0.03237 -2.928457,6.7137 -6.660739,16.16674 -3.522715,8.922262 -6.510233,16.422296 -6.638925,16.666741 -0.224668,0.426747 -0.230308,0.425107 -0.141627,-0.0412 0.05522,-0.29039 -0.0391,-0.536094 -0.234595,-0.611114 -0.179823,-0.06901 -12.473793,-0.125463 -27.319933,-0.125463 -23.196149,0 -27.080988,0.04551 -27.61865,0.323546 -0.665484,0.344135 -1.35227,1.534156 -1.35227,2.343133 0,0.790188 0.681092,1.996378 1.30775,2.315977 0.471904,0.240674 5.524628,0.311937 26.879266,0.379102 l 26.298116,0.08271 0.679252,-1.615352 c 0.373588,-0.888444 0.728916,-1.565687 0.789619,-1.504984 0.0607,0.0607 -3.279075,8.711372 -7.421724,19.223713 l -7.532094,19.113351 -25.222336,-0.002 C 10.52069,112.21282 8.0412715,112.17817 7.3797076,111.85211 Z M 65.67764,91.853573 c 0.60524,-1.425213 1.133771,-2.675219 1.174511,-2.777791 0.04074,-0.102571 -10.487518,-0.186494 -23.396131,-0.186494 -19.923727,0 -23.585918,0.04835 -24.235983,0.319962 -0.902231,0.376977 -1.662403,1.510455 -1.663572,2.480522 -10e-4,0.82211 0.796201,2.083607 1.561402,2.470804 0.428162,0.216653 5.48785,0.278462 23.004111,0.281017 l 22.455223,0.0033 z m 8.213852,-32.617711 c 1.756728,-0.734008 2.172996,-3.051805 0.795488,-4.429314 L 73.991786,54.111354 H 46.555765 19.119744 l -0.695194,0.695194 c -1.358387,1.358387 -0.967102,3.674826 0.746579,4.419809 1.088997,0.473418 53.58824,0.482536 54.720363,0.0095 z m 0.795517,-18.041979 c 1.377473,-1.377531 0.961193,-3.695312 -0.795517,-4.429313 -0.651978,-0.272413 -4.71425,-0.319962 -27.335727,-0.319962 -29.250125,0 -27.651745,-0.07697 -28.562997,1.375522 -0.846449,1.349204 -0.222223,3.364442 1.229541,3.969429 0.244445,0.101865 12.667592,0.16593 27.60699,0.142365 l 27.162545,-0.04285 z"
     id="path1208" />
</svg>
