<svg  xmlns="http://www.w3.org/2000/svg"
  viewBox="0 0 122.88 122.88" >  <path
     d="M66,38.09q.06.9.18,1.71v.05c1,7.08,4.63,11.39,9.59,13.81,5.18,2.53,11.83,3.09,18.48,2.61,1.49-.11,3-.27,4.39-.47l1.59-.2c4.78-.61,11.47-1.48,13.35-5.06,1.16-2.2,1-5,0-8a38.85,38.85,0,0,0-6.89-11.73A32.24,32.24,0,0,0,95,21.46,21.2,21.2,0,0,0,82.3,20a23.53,23.53,0,0,0-12.75,7,15.66,15.66,0,0,0-2.35,3.46h0a20.83,20.83,0,0,0-1,2.83l-.06.2,0,.12A12,12,0,0,0,66,37.9l0,.19Zm26.9-3.63a5.51,5.51,0,0,1,2.53-4.39,14.19,14.19,0,0,0-5.77-.59h-.16l.06.51a5.57,5.57,0,0,0,2.89,4.22,4.92,4.92,0,0,0,.45.24ZM88.62,28l.94-.09a13.8,13.8,0,0,1,8,1.43,7.88,7.88,0,0,1,3.92,6.19l0,.43a.78.78,0,0,1-.66.84A19.23,19.23,0,0,1,98,37a12.92,12.92,0,0,1-6.31-1.44A7.08,7.08,0,0,1,88,30.23a10.85,10.85,0,0,1-.1-1.44.8.8,0,0,1,.69-.78ZM14.15,10c-.06-5.86,3.44-8.49,8-9.49C26.26-.44,31.24.16,34.73.7A111.14,111.14,0,0,1,56.55,6.4a130.26,130.26,0,0,1,22,10.8,26.25,26.25,0,0,1,3-.78,24.72,24.72,0,0,1,14.83,1.69,36,36,0,0,1,13.09,10.42,42.42,42.42,0,0,1,7.54,12.92c1.25,3.81,1.45,7.6-.23,10.79-2.77,5.25-10.56,6.27-16.12,7l-1.23.16a54.53,54.53,0,0,1-2.81,12.06A108.62,108.62,0,0,1,91.3,84v25.29a9.67,9.67,0,0,1,9.25,10.49c0,.41,0,.81,0,1.18a1.84,1.84,0,0,1-1.84,1.81H86.12a8.8,8.8,0,0,1-5.1-1.56,10.82,10.82,0,0,1-3.35-4,2.13,2.13,0,0,1-.2-.46L73.53,103q-2.73,2.13-5.76,4.16c-1.2.8-2.43,1.59-3.69,2.35l.6.16a8.28,8.28,0,0,1,5.07,4,15.38,15.38,0,0,1,1.71,7.11V121a1.83,1.83,0,0,1-1.83,1.83h-53c-2.58.09-4.47-.52-5.75-1.73A6.49,6.49,0,0,1,9.11,116v-11.2a42.61,42.61,0,0,1-6.34-11A38.79,38.79,0,0,1,1.11,70.29,37,37,0,0,1,13.6,50.54l.1-.09a41.08,41.08,0,0,1,11-6.38c7.39-2.9,17.93-2.77,26-2.68,5.21.06,9.34.11,10.19-.49a4.8,4.8,0,0,0,1-.91,5.11,5.11,0,0,0,.56-.84c0-.26,0-.52-.07-.78a16,16,0,0,1-.06-4.2,98.51,98.51,0,0,0-18.76-3.68c-7.48-.83-15.44-1.19-23.47-1.41l-1.35,0c-2.59,0-4.86,0-7.46-1.67A9,9,0,0,1,8,23.68a9.67,9.67,0,0,1-.91-5A10.91,10.91,0,0,1,8.49,14a8.74,8.74,0,0,1,3.37-3.29A8.2,8.2,0,0,1,14.15,10ZM69.14,22a54.75,54.75,0,0,1,4.94-3.24,124.88,124.88,0,0,0-18.8-9A106.89,106.89,0,0,0,34.17,4.31C31,3.81,26.44,3.25,22.89,4c-2.55.56-4.59,1.92-5,4.79a134.49,134.49,0,0,1,26.3,3.8,115.69,115.69,0,0,1,25,9.4ZM64,28.65c.21-.44.42-.86.66-1.28a15.26,15.26,0,0,1,1.73-2.47,146.24,146.24,0,0,0-14.92-6.2,97.69,97.69,0,0,0-15.34-4A123.57,123.57,0,0,0,21.07,13.2c-3.39-.08-6.3.08-7.47.72a5.21,5.21,0,0,0-2,1.94,7.3,7.3,0,0,0-1,3.12,6.1,6.1,0,0,0,.55,3.11,5.43,5.43,0,0,0,2,2.21c1.73,1.09,3.5,1.1,5.51,1.12h1.43c8.16.23,16.23.59,23.78,1.42a103.41,103.41,0,0,1,19.22,3.76,17.84,17.84,0,0,1,.85-2Zm-.76,15.06-.21.16c-1.82,1.3-6.48,1.24-12.35,1.17C42.91,45,32.79,44.83,26,47.47a37.41,37.41,0,0,0-10,5.81l-.1.08A33.44,33.44,0,0,0,4.66,71.17a35.14,35.14,0,0,0,1.5,21.32A39.47,39.47,0,0,0,12.35,103a1.82,1.82,0,0,1,.42,1.16v12a3.05,3.05,0,0,0,.68,2.37,4.28,4.28,0,0,0,3.16.73H67.68a10,10,0,0,0-1.11-3.69,4.7,4.7,0,0,0-2.87-2.32,15.08,15.08,0,0,0-4.4-.38h-26a1.83,1.83,0,0,1-.15-3.65c5.73-.72,10.35-2.74,13.57-6.25,3.06-3.34,4.91-8.1,5.33-14.45v-.13A18.88,18.88,0,0,0,46.35,75a20.22,20.22,0,0,0-7.41-4.42,23.54,23.54,0,0,0-8.52-1.25c-4.7.19-9.11,1.83-12,4.83a1.83,1.83,0,0,1-2.65-2.52c3.53-3.71,8.86-5.73,14.47-6a27.05,27.05,0,0,1,9.85,1.44,24,24,0,0,1,8.74,5.23,22.48,22.48,0,0,1,6.85,15.82v.08a2.17,2.17,0,0,1,0,.36c-.47,7.25-2.66,12.77-6.3,16.75a21.24,21.24,0,0,1-4.62,3.77H57.35q4.44-2.39,8.39-5c2.68-1.79,5.22-3.69,7.63-5.67a1.82,1.82,0,0,1,2.57.24,1.69,1.69,0,0,1,.35.66L81,115.62a7,7,0,0,0,2.16,2.62,5.06,5.06,0,0,0,3,.9H96.88a6.56,6.56,0,0,0-1.68-4.38,7.19,7.19,0,0,0-4.74-1.83c-.36,0-.69,0-1,0a1.83,1.83,0,0,1-1.83-1.83V83.6a1.75,1.75,0,0,1,.23-.88,105.11,105.11,0,0,0,5.34-12.46,52,52,0,0,0,2.55-10.44l-1.23.1c-7.23.52-14.52-.12-20.34-3A20,20,0,0,1,63.26,43.71Z"
     id="path4" />
  <path
     style="fill:#ffffff;fill-rule:evenodd;stroke-width:0.0314271;stroke-linejoin:round"
     d="m 14.158258,118.66026 c -0.42329,-0.23442 -0.872972,-0.68903 -0.999292,-1.01025 -0.126321,-0.32121 -0.239614,-3.6444 -0.251763,-7.38485 l -0.02209,-6.80082 -1.354548,-1.84164 C 4.4851962,92.043878 2.1637085,80.865962 5.0452184,70.395878 6.5151081,65.054974 10.411743,58.605163 14.334546,55.019941 c 3.713955,-3.394345 8.480197,-6.276945 12.719017,-7.692399 4.605664,-1.537954 7.37462,-1.810127 20.872779,-2.05168 10.12314,-0.181156 12.827945,-0.31929 13.891266,-0.709427 l 1.320422,-0.48447 0.479993,1.408701 c 1.311884,3.850166 4.268908,7.682892 7.673978,9.94658 4.888063,3.249578 10.519697,4.654108 18.826916,4.695434 l 5.422861,0.02698 -0.187912,1.111577 c -0.838667,4.961054 -3.236559,12.009503 -6.300953,18.521254 l -1.685549,3.581744 v 14.053622 c 0,13.741793 0.01446,14.071983 0.651352,14.881673 0.54724,0.6957 0.900487,0.82806 2.209992,0.82806 3.338832,0 5.730856,1.8585 6.402136,4.97419 l 0.225316,1.04579 -6.104106,-0.10298 c -5.850361,-0.0987 -6.150009,-0.13447 -7.208339,-0.86032 -0.607329,-0.41654 -1.398468,-1.19436 -1.758092,-1.72849 -0.359623,-0.53413 -1.730373,-4.71884 -3.046116,-9.29934 -2.518003,-8.76593 -2.948602,-9.666964 -4.440799,-9.292447 -0.382078,0.0959 -2.229505,1.330068 -4.105395,2.742597 -3.770813,2.83941 -6.433343,4.59756 -10.452616,6.90217 l -2.674117,1.53331 h -5.936911 -5.936911 l 1.854652,-1.39417 c 4.578961,-3.44206 7.677404,-9.555083 8.575987,-16.919847 1.53533,-12.583572 -7.657998,-23.406432 -21.28928,-25.062837 -6.593894,-0.801256 -13.787092,1.226908 -17.688516,4.987381 -1.705887,1.644257 -1.934263,2.503167 -0.932046,3.505384 0.87742,0.87742 1.999483,0.783651 3.210343,-0.268282 1.713068,-1.488227 3.562784,-2.515878 6.133398,-3.407549 2.117714,-0.734572 2.941459,-0.84774 6.212678,-0.853508 4.338531,-0.0076 6.547819,0.480284 10.21381,2.255785 6.046614,2.928475 10.384187,9.853999 10.366817,16.55204 -0.01182,4.552861 -2.277045,10.898139 -5.021593,14.066223 -2.624799,3.02987 -7.225734,5.39601 -12.196098,6.27214 -1.158219,0.20416 -2.35334,0.58186 -2.655826,0.83934 -0.664009,0.56519 -0.715031,1.91035 -0.104166,2.74625 0.428224,0.58597 1.063524,0.61624 16.106394,0.76717 15.601728,0.15655 15.664893,0.15982 16.807303,0.87023 1.1185,0.69554 2.132182,2.3567 2.585329,4.23668 l 0.208315,0.86424 -26.326191,-0.0111 c -21.556747,-0.009 -26.465621,-0.0884 -27.09581,-0.43735 z"
     id="path900" />
  <path
     style="fill:#ffffff;fill-rule:evenodd;stroke-width:0.0314271;stroke-linejoin:round"
     d="M 83.567278,55.772773 C 72.770252,54.089829 67.049003,48.18953 66.14299,37.803182 c -0.378722,-4.341588 0.844181,-7.684913 4.021075,-10.993319 3.217686,-3.350885 7.246533,-5.56876 11.890341,-6.545615 7.739703,-1.628096 15.183553,1.119729 22.158874,8.179735 5.73502,5.804648 9.87635,13.512978 9.86023,18.353041 -0.0153,4.606954 -2.18651,6.492649 -9.0516,7.861501 -7.485494,1.492558 -16.142972,1.942183 -21.454632,1.114248 z M 101.01245,36.89323 c 0.78328,-0.300572 0.62809,-2.565711 -0.30393,-4.436019 -0.918265,-1.842721 -2.347916,-3.051377 -4.657231,-3.93732 -1.941527,-0.744844 -6.264674,-1.073639 -7.544935,-0.573826 -0.876752,0.342284 -0.897387,0.400955 -0.690237,1.962531 0.474358,3.575891 2.713853,5.901136 6.622346,6.875916 1.164841,0.290512 5.896337,0.36876 6.573987,0.108718 z"
     id="path939" />
  <path
     style="fill:#ffffff;fill-rule:evenodd;stroke-width:0.0314271;stroke-linejoin:round"
     d="M 58.297288,29.188779 C 51.347041,27.402182 43.136203,26.363173 31.269974,25.768712 27.467293,25.578209 22.23468,25.315704 19.641943,25.185366 14.198381,24.911718 12.993493,24.509793 11.683791,22.5307 c -1.588358,-2.400171 -0.826705,-6.406365 1.538111,-8.090263 1.735696,-1.235924 7.852416,-1.393948 16.633852,-0.429732 10.825892,1.188701 21.913765,4.388729 33.334675,9.620592 l 2.810407,1.287435 -0.646773,0.975723 c -0.355724,0.536648 -1.022462,1.718189 -1.481641,2.625647 -0.9771,1.931007 -0.763883,1.905434 -5.575134,0.668677 z"
     id="path978" />
  <path
     style="fill:#ffffff;fill-rule:evenodd;stroke-width:0.0314271;stroke-linejoin:round"
     d="M 66.311201,20.374172 C 53.721827,14.423225 40.920624,10.886117 26.176643,9.2845722 23.72101,9.0178324 20.927926,8.7995906 19.969789,8.7995906 c -2.043842,0 -2.221289,-0.405938 -0.977539,-2.2362806 1.792965,-2.6385841 6.426395,-3.34269 14.320486,-2.176171 8.179375,1.2086759 16.221065,3.3193768 23.519665,6.173203 3.661673,1.431752 13.269405,6.029045 15.565159,7.447918 l 1.215157,0.751019 -2.200234,1.462713 c -1.210129,0.804492 -2.251928,1.451954 -2.315106,1.438804 -0.06318,-0.01315 -1.316959,-0.592131 -2.786176,-1.286624 z"
     id="path1017" />
</svg>
