<svg  xmlns="http://www.w3.org/2000/svg" x="0px" y="0px" 
  viewBox="0 0 122.88 122.88" >  <path
     d="M30.73,36.08h0v8.67A4.38,4.38,0,0,1,29,48.5a4.79,4.79,0,0,1-4.35.2,1.73,1.73,0,0,1-.52-.28C15.43,41.63,10.42,34.84,1.76,28.05l-.12-.11a4.31,4.31,0,0,1,0-6.77l.12-.11C10.42,14.27,15.43,7.48,24.09.69a1.73,1.73,0,0,1,.52-.28A4.79,4.79,0,0,1,29,.61a4.4,4.4,0,0,1,1.77,3.75V13H92.15V4.36A4.4,4.4,0,0,1,93.92.61a4.79,4.79,0,0,1,4.35-.2,1.73,1.73,0,0,1,.52.28c8.66,6.79,13.67,13.58,22.33,20.37l.12.11a4.31,4.31,0,0,1,0,6.77l-.12.11c-8.66,6.79-13.67,13.58-22.33,20.37a1.73,1.73,0,0,1-.52.28,4.79,4.79,0,0,1-4.35-.2,4.38,4.38,0,0,1-1.77-3.75V36.08H30.73Z"
     id="path4" />
  <path
     style="fill:#000000;fill-rule:evenodd;stroke-width:0.0169373;stroke-linejoin:round"
     d="M 26.083418,48.998264 C 24.156632,48.687052 21.625755,46.578262 12.61049,37.772283 8.0769996,33.344035 5.5158973,30.997844 2.0457909,28.094099 0.54345936,26.836964 0.14749707,26.036337 0.20759475,24.377305 0.27060525,22.637861 0.59975364,22.184062 3.6230865,19.668332 6.4276104,17.334674 8.0727621,15.804159 13.295768,10.669657 18.117022,5.9300997 19.794956,4.3681947 22.254201,2.3306985 24.56812,0.41360653 25.104785,0.13374587 26.50685,0.11302714 c 1.339934,-0.01980062 2.120924,0.26933359 2.940036,1.08844736 1.132432,1.1324306 1.209598,1.5817615 1.209598,7.0432803 V 13.041709 H 61.482342 92.308199 V 8.1244564 c 0,-5.314754 0.02872,-5.5161688 0.960762,-6.7381414 0.920413,-1.206723 3.210568,-1.65011044 4.797915,-0.9289043 0.730202,0.33176492 2.631954,1.8460178 5.165874,4.1132726 0.65208,0.5834622 3.54245,3.3569288 6.42303,6.1632587 5.93525,5.782272 6.98762,6.75837 9.83676,9.123814 1.11786,0.928084 2.20559,1.903255 2.41717,2.167048 0.80182,0.999693 1.08992,2.560531 0.68976,3.736937 -0.34526,1.014988 -1.02831,1.784142 -3.10693,3.498585 -2.68545,2.214951 -4.46586,3.868824 -10.76716,10.001903 -5.67435,5.522867 -9.44694,8.850706 -10.646106,9.39103 -1.60033,0.721079 -3.892381,0.282021 -4.810313,-0.92145 -0.932043,-1.221972 -0.960762,-1.423387 -0.960762,-6.738141 V 36.076415 H 61.491622 30.675046 l -0.05162,5.038843 c -0.04896,4.778795 -0.07041,5.07392 -0.415685,5.718553 -0.458455,0.855945 -1.166599,1.569851 -1.83121,1.846107 -0.624662,0.25965 -1.717339,0.411344 -2.293108,0.318346 z"
     id="path937" />
</svg>
