<?xml version="1.0" encoding="UTF-8" standalone="no"?>
<svg
   version="1.1"
   id="Layer_1"
   x="0px"
   y="0px"
   viewBox="0 0 101.61 122.88"
   style="enable-background:new 0 0 101.61 122.88"
   xml:space="preserve"
   sodipodi:docname="mask-woman.svg"
   inkscape:version="1.1.1 (3bf5ae0d25, 2021-09-20)"
   xmlns:inkscape="http://www.inkscape.org/namespaces/inkscape"
   xmlns:sodipodi="http://sodipodi.sourceforge.net/DTD/sodipodi-0.dtd"
   xmlns="http://www.w3.org/2000/svg"
   xmlns:svg="http://www.w3.org/2000/svg"><defs
     id="defs844" /><sodipodi:namedview
     id="namedview842"
     pagecolor="#ffffff"
     bordercolor="#666666"
     borderopacity="1.0"
     inkscape:pageshadow="2"
     inkscape:pageopacity="0.0"
     inkscape:pagecheckerboard="0"
     showgrid="false"
     inkscape:zoom="6.0872396"
     inkscape:cx="50.844064"
     inkscape:cy="60.700749"
     inkscape:window-width="1920"
     inkscape:window-height="986"
     inkscape:window-x="-11"
     inkscape:window-y="-11"
     inkscape:window-maximized="1"
     inkscape:current-layer="Layer_1" /><style
     type="text/css"
     id="style835">.st0{fill-rule:evenodd;clip-rule:evenodd;}</style><g
     id="g839"><path
       class="st0"
       d="M56.92,54.1c-0.4-0.27-0.51-0.82-0.24-1.22c0.27-0.4,0.82-0.51,1.22-0.24c0.67,0.45,1.8,0.69,3,0.67 c1.13-0.02,2.27-0.27,3.09-0.8c0.41-0.26,0.95-0.14,1.21,0.27c0.26,0.41,0.14,0.95-0.27,1.21c-1.11,0.71-2.58,1.05-4.01,1.07 C59.4,55.09,57.89,54.75,56.92,54.1L56.92,54.1z M28.4,86.88l0.05,0.04c1.22-1.13,2.69-2.6,4-4.2c1.25-1.53,2.35-3.18,2.92-4.74 l-0.09-0.14c-1.65-1.65-3.17-3.6-4.56-5.81c-1.54-2.45-2.94-5.22-4.19-8.28c-0.56-0.17-1.08-0.37-1.58-0.6 c-0.71-0.33-1.36-0.73-1.96-1.18c-1.74-1.33-2.89-3.15-3.56-5.15c-0.74-2.23-0.88-4.7-0.58-6.97c0.16-1.17,0.48-2.18,0.97-3.04 c0.52-0.91,1.21-1.63,2.07-2.18c0.25-0.16,0.54-0.23,0.81-0.2c-0.48-2.51-0.41-4.91-0.31-7.73c0.27-7.37,2.14-13.26,7.94-18.37 c8.76-7.71,26.1-8.38,35.75-1.74c1.43,0.99,2.76,2.15,3.96,3.53c3.92,4.49,7.4,14.35,7.33,20.43c-0.02,1.41-0.24,2.84-0.73,4.29 c-0.02,0.14-0.05,0.3-0.09,0.48c1.06,0.67,1.89,1.48,2.49,2.4c0.9,1.38,1.3,2.97,1.2,4.64c-0.09,1.61-0.64,3.3-1.64,4.94 c-1.16,1.91-2.93,3.78-5.3,5.39c-1.97,4.59-4.69,9.19-7.96,12.96c-0.4,0.79-0.83,1.53-1.31,2.23c0.75,3.04,3.69,6.41,5.77,8.78 l0.16,0.18c7.34,2.19,14.28,5.6,19.86,13.08c5.21,6.99,7.62,14.88,11.78,22.92c-34.81,0-67.94,0.01-101.27,0 c-0.73-5.42-0.26-6.11,1.46-11.26C6.54,97.33,12.5,95.68,28.4,86.88L28.4,86.88z M36.94,80.07c-0.65,1.2-1.49,2.39-2.42,3.52 c-1.22,1.49-2.58,2.87-3.76,3.99c4.14,4.04,11.29,5.97,18.47,5.93c7.2-0.04,14.39-2.06,18.54-5.91l0,0l-0.01-0.01 c-1.78-2.04-4.16-4.76-5.43-7.52c-1.46,1.6-3.13,2.87-4.93,3.81c-2.35,1.23-4.92,1.89-7.49,1.96c-2.58,0.07-5.17-0.46-7.56-1.62 C40.38,83.26,38.53,81.88,36.94,80.07L36.94,80.07z M41.43,2.51c5.75-3.9,12.3-3.04,17.71,1.09c1.42,1.09,2.64,2.42,3.6,4.04 c0.82,1.38,2.25,4.2-0.42,4.63c-1.05,0.17-2.91-1.27-4.33-1.73c-1.83-0.59-3.72-0.97-5.58-1.17c-3.49-0.37-6.92-0.08-9.86,0.74 c-1.6,0.44-3.15,0.98-4.64,1.67c-0.7,0.32-2.11,1.26-2.5,0.05C34.5,9.03,39.36,3.91,41.43,2.51L41.43,2.51z M23.34,46.87 l-0.03,0.02c-0.49,0.31-0.88,0.73-1.18,1.25c-0.32,0.56-0.54,1.25-0.65,2.08c-0.25,1.9-0.14,3.94,0.47,5.77 c0.51,1.52,1.37,2.89,2.65,3.87c0.45,0.35,0.94,0.65,1.47,0.89c0.54,0.25,1.12,0.46,1.75,0.61c0.44,0.1,0.77,0.41,0.93,0.8l0,0 c0.97,2.43,2.02,4.66,3.16,6.69c-0.26-1.51-0.43-3.13-0.47-4.86c0-0.07,0-0.14,0.01-0.21l-4.8-10.49 c-0.59-0.91-1.14-1.83-1.65-2.76C24.27,49.23,23.73,48.03,23.34,46.87L23.34,46.87z M36.59,75.38c0.47,0.51,0.96,0.98,1.46,1.43 c1.99,1.79,3.95,3.05,5.86,3.86c3.52,1.48,6.92,1.39,10.07,0.23c3.24-1.19,6.26-3.52,8.92-6.47c0.29-0.32,0.57-0.64,0.85-0.97 c1.05-2.48,1.67-5.41,1.71-8.76c-5.26-2.56-10.53-3.59-15.79-3.46c-5.13,0.13-10.27,1.36-15.42,3.36 c-0.03,0.27-0.16,0.53-0.36,0.72C34.17,69.37,35.14,72.71,36.59,75.38L36.59,75.38z M67.62,67.99c1.3-2.15,2.44-4.41,3.38-6.67 c0.12-0.29,0.34-0.52,0.6-0.66c2.14-1.43,3.73-3.06,4.73-4.72c0.76-1.26,1.18-2.53,1.25-3.71c0.06-1.11-0.19-2.15-0.77-3.03 c-0.31-0.47-0.71-0.9-1.21-1.28c-0.74,1.69-1.86,3.77-3.27,5.95l-4.5,10.07v0h0C67.86,65.36,67.78,66.71,67.62,67.99L67.62,67.99z M65.96,62.3l4.79-10.71v-9.02c-6.25-2.89-10.34-9.25-12.42-18.82c-2.49,18.2-24.84,17.42-30.46,20.74v5.76l5.55,12.12 c5.38-2.08,10.78-3.37,16.19-3.51C55.06,58.71,60.51,59.74,65.96,62.3L65.96,62.3z M33.75,54.1c-0.4-0.27-0.51-0.82-0.24-1.22 c0.27-0.4,0.82-0.51,1.22-0.24c0.68,0.46,1.83,0.72,3.05,0.71c1.14-0.01,2.32-0.25,3.23-0.78c0.42-0.24,0.96-0.1,1.2,0.32 c0.24,0.42,0.1,0.96-0.32,1.2c-1.19,0.69-2.68,1.01-4.11,1.01C36.23,55.11,34.72,54.75,33.75,54.1L33.75,54.1z M33,49 c-0.4,0.28-0.95,0.19-1.23-0.21c-0.28-0.4-0.19-0.95,0.21-1.23c1.66-1.17,3.35-1.78,5.08-1.78c1.73-0.01,3.46,0.58,5.19,1.78 c0.4,0.28,0.5,0.82,0.22,1.22s-0.82,0.5-1.22,0.22c-1.43-0.99-2.83-1.47-4.19-1.47C35.71,47.55,34.35,48.04,33,49L33,49z M57.71,49 c-0.4,0.28-0.95,0.19-1.23-0.21c-0.28-0.4-0.19-0.95,0.21-1.23c1.66-1.17,3.35-1.78,5.08-1.78c1.73-0.01,3.46,0.58,5.19,1.78 c0.4,0.28,0.5,0.82,0.22,1.22c-0.28,0.4-0.82,0.5-1.22,0.22c-1.43-0.99-2.83-1.47-4.19-1.47C60.43,47.55,59.07,48.04,57.71,49 L57.71,49z"
       id="mask" /></g><path
     style="fill:#f2f2f2;fill-rule:evenodd;stroke-width:0.164278;stroke-miterlimit:4.5"
     d="m 46.572834,81.409304 c -3.012573,-0.707498 -5.501273,-2.094839 -8.50536,-4.741369 -1.405403,-1.238127 -1.860632,-1.977954 -2.724967,-4.428555 -0.526414,-1.492512 -1.055403,-3.882958 -1.255365,-5.672857 -0.19317,-1.72911 -0.110502,-1.818103 2.513021,-2.705304 5.975462,-2.02073 11.49085,-2.849523 16.313082,-2.451353 3.992802,0.329684 7.579812,1.21086 10.96899,2.694617 l 1.538706,0.673633 -0.114694,1.493295 c -0.15691,2.042967 -0.509072,3.832191 -1.116304,5.671634 -0.51163,1.549835 -0.511712,1.549955 -2.328977,3.385675 -0.999532,1.009682 -2.445693,2.295915 -3.213693,2.858296 -1.575209,1.153475 -4.51732,2.651041 -5.99615,3.052104 -1.370508,0.371686 -4.810199,0.467994 -6.078289,0.170184 z"
     id="mask" /><path
     style="fill:#A58869;fill-rule:evenodd;stroke-width:0.164278;stroke-miterlimit:4.5"
     d="m 33.275022,61.782306 c -0.119839,-0.233445 -1.372107,-2.950321 -2.782819,-6.037503 l -2.56493,-5.613058 v -2.788102 -2.788102 l 0.761904,-0.358137 c 0.84851,-0.398847 3.183462,-1.037736 8.419622,-2.303778 7.929604,-1.917284 12.705467,-4.152054 16.138824,-7.551844 2.352916,-2.32991 3.861358,-4.97328 4.680319,-8.201717 0.217287,-0.856573 0.419198,-1.581537 0.448692,-1.611031 0.02949,-0.02949 0.14676,0.371901 0.26059,0.891986 0.359432,1.64222 1.635291,5.277404 2.482956,7.074454 2.043404,4.332016 5.206866,7.881695 8.607904,9.65882 l 0.910708,0.475866 3.28e-4,4.481043 3.29e-4,4.481044 -2.322585,5.211362 c -1.277421,2.86625 -2.342643,5.235474 -2.367158,5.26494 -0.02452,0.02947 -0.882924,-0.280725 -1.907576,-0.689314 -4.894617,-1.951774 -9.099269,-2.677309 -14.590244,-2.517625 -4.732424,0.137625 -8.3487,0.805493 -13.290029,2.454452 l -2.66907,0.890689 -0.217889,-0.424445 z m 6.532231,-6.82784 c 1.607096,-0.340522 2.481073,-0.857318 2.544292,-1.504478 0.06766,-0.692653 -0.352863,-1.10128 -1.021141,-0.99225 -0.279016,0.04552 -0.950853,0.244615 -1.492971,0.442431 -1.312116,0.478785 -3.577368,0.412065 -4.634311,-0.136497 -0.3804,-0.197431 -0.837152,-0.358966 -1.015004,-0.358966 -0.758147,0 -1.141271,1.164498 -0.552182,1.678348 1.111788,0.969791 3.869345,1.359167 6.171317,0.871412 z m 23.532266,-0.170761 c 1.237152,-0.349089 1.950446,-0.885074 2.01174,-1.51167 0.03957,-0.404489 -0.04015,-0.578088 -0.362406,-0.78924 -0.39247,-0.257156 -0.468941,-0.248151 -1.529227,0.180049 -1.569379,0.633803 -3.240459,0.721505 -4.565936,0.239633 -1.445803,-0.525616 -1.795686,-0.567816 -2.109124,-0.254377 -0.358854,0.358854 -0.348098,1.11614 0.02059,1.449799 1.100239,0.995704 4.260596,1.327394 6.534363,0.685806 z M 33.511607,48.791308 c 1.061865,-0.681398 2.515348,-1.150666 3.563999,-1.150666 1.047025,0 2.53648,0.47095 3.643272,1.151967 0.938632,0.577546 1.221963,0.605159 1.664865,0.162257 0.78056,-0.780559 0.22312,-1.518338 -1.861308,-2.463463 -1.531327,-0.694337 -3.214437,-0.936449 -4.684121,-0.673803 -1.213453,0.216857 -2.879916,0.924165 -3.76302,1.597161 -0.654428,0.498729 -0.729901,1.219916 -0.168795,1.61293 0.51026,0.3574 0.730269,0.324999 1.605108,-0.236383 z m 25.274734,-0.284862 c 1.501863,-0.766533 1.56832,-0.783665 3.039755,-0.783665 1.473244,0 1.537296,0.01658 3.100172,0.802656 1.549926,0.77956 1.607816,0.794813 2.011794,0.530117 0.524727,-0.343814 0.560347,-1.103308 0.07304,-1.557307 -0.59044,-0.550078 -2.380493,-1.336938 -3.685897,-1.620222 -1.765301,-0.383085 -3.410191,-0.135888 -5.289033,0.794846 -1.368535,0.67794 -1.853066,1.112365 -1.853066,1.661437 0,0.333704 0.555764,0.947463 0.862459,0.952459 0.112942,0.0018 0.896292,-0.349304 1.74078,-0.780321 z"
     id="skin1" /><path
     style="fill:#A58869;fill-rule:evenodd;stroke-width:0.164278;stroke-miterlimit:4.5"
     d="m 45.970255,93.308742 c -3.677408,-0.331648 -7.052951,-1.143285 -9.820618,-2.361332 -1.7014,-0.748785 -4.0674,-2.219936 -4.757126,-2.957926 l -0.395296,-0.422957 1.301806,-1.358451 c 1.719938,-1.794775 2.897896,-3.22584 3.817328,-4.637551 0.414235,-0.636024 0.772361,-1.185477 0.795837,-1.221007 0.02348,-0.03553 0.551654,0.415539 1.17373,1.002374 2.091433,1.972951 4.523513,3.325003 7.390291,4.10844 1.042463,0.284886 1.730493,0.344689 3.971494,0.345197 2.391492,5.42e-4 2.89431,-0.0488 4.271229,-0.419182 2.866669,-0.771107 5.406967,-2.160794 7.469831,-4.086422 0.643121,-0.600337 1.153775,-0.965115 1.192286,-0.851693 0.187072,0.550942 2.026375,3.264544 3.137915,4.629502 0.693042,0.851046 1.433558,1.760049 1.645592,2.020008 0.465717,0.570982 0.405885,0.668808 -1.033994,1.690569 -2.874185,2.039566 -7.249883,3.60729 -11.918927,4.27031 -2.205068,0.313127 -6.198777,0.434334 -8.241378,0.250121 z"
     id="skin2" /><path
     style="fill:#A58869;fill-rule:evenodd;stroke-width:0.164278;stroke-miterlimit:4.5"
     d="m 67.846845,65.692525 v -1.562919 l 2.27606,-5.082129 c 1.251832,-2.795171 2.594075,-5.599605 2.98276,-6.232076 0.388686,-0.632471 1.127448,-1.947141 1.641692,-2.921489 l 0.934991,-1.771543 0.518633,0.53047 c 0.887674,0.907935 1.249109,1.85864 1.239006,3.259033 -0.02001,2.774044 -1.811531,5.634248 -5.013611,8.004361 -1.270343,0.940281 -1.419404,1.112087 -1.852877,2.135615 -0.536622,1.267085 -2.344682,4.8121 -2.574386,5.047532 -0.09377,0.09611 -0.152268,-0.444363 -0.152268,-1.406855 z"
     id="skin3" /><path
     style="fill:#A58869;fill-rule:evenodd;stroke-width:0.164278;stroke-miterlimit:4.5"
     d="m 30.595043,66.082334 c -0.548983,-1.152813 -1.157084,-2.502612 -1.351336,-2.999553 -0.533234,-1.364137 -0.743965,-1.606404 -1.62484,-1.867995 -3.088623,-0.917223 -5.063387,-3.038625 -5.84924,-6.283581 -0.418188,-1.726787 -0.299688,-5.073264 0.22112,-6.244512 0.206203,-0.46373 0.580105,-1.039731 0.830893,-1.280002 l 0.45598,-0.436856 0.295534,0.787168 c 0.411821,1.096904 1.222296,2.679888 2.199349,4.295671 0.456596,0.755089 1.904423,3.717565 3.217392,6.583282 1.924144,4.19968 2.387459,5.351435 2.388464,5.937486 6.9e-4,0.399902 0.07297,1.35094 0.160624,2.113421 0.08766,0.76248 0.135714,1.40999 0.106794,1.438911 -0.02892,0.02892 -0.501751,-0.890627 -1.050734,-2.04344 z"
     id="skin4" /></svg>
