<svg  xmlns="http://www.w3.org/2000/svg"
  viewBox="0 0 122.88 122.88" >
  <path
     class="cls-1"
     d="M1.87,14.69H24.53l0-.39V4.13C24.5,1.86,26.86,0,29.76,0S35,1.87,35,4.13V14.3l0,.39h38.6l0-.39V4.13C73.56,1.86,75.92,0,78.81,0s5.26,1.87,5.26,4.13V14.3l0,.39h24.11A1.87,1.87,0,0,1,110,16.56V36a1.87,1.87,0,0,1-1.87,1.87H1.87A1.89,1.89,0,0,1,0,36V16.55a1.87,1.87,0,0,1,1.87-1.86ZM14.16,96.82h13.7c.83,0,1.51.51,1.51,1.13v7.21c0,.62-.68,1.13-1.51,1.13H14.62c-.83,0-1.5-.51-1.5-1.13V98c0-.62.68-1.13,1.5-1.13Zm32.92,0H60.79c.83,0,1.5.51,1.5,1.13v7.21c0,.62-.68,1.13-1.5,1.13H47.08c-.83,0-1.51-.51-1.51-1.13V98c0-.62.68-1.13,1.51-1.13Zm32.68,0H93.47c.83,0,1.51.51,1.51,1.13v7.21c0,.62-.68,1.13-1.51,1.13H79.76c-.83,0-1.51-.51-1.51-1.13V98a1.37,1.37,0,0,1,1.51-1.13ZM14.16,76.71h13.7c.83,0,1.51.51,1.51,1.14v7.2c0,.62-.68,1.13-1.51,1.13H14.62c-.83,0-1.5-.51-1.5-1.13v-7.2a1.36,1.36,0,0,1,1.5-1.14Zm32.92,0H60.79a1.36,1.36,0,0,1,1.5,1.14v7.2c0,.62-.68,1.13-1.5,1.13H47.08c-.83,0-1.51-.51-1.51-1.13v-7.2c0-.63.68-1.14,1.51-1.14Zm32.68,0H93.47c.83,0,1.51.51,1.51,1.14v7.2c0,.62-.68,1.13-1.51,1.13H79.76c-.83,0-1.51-.51-1.51-1.13v-7.2a1.37,1.37,0,0,1,1.51-1.14ZM14.16,56.6h13.7c.83,0,1.51.51,1.51,1.14v7.2c0,.62-.68,1.14-1.51,1.14H14.62a1.36,1.36,0,0,1-1.5-1.14v-7.2a1.36,1.36,0,0,1,1.5-1.14Zm32.92,0H60.79a1.36,1.36,0,0,1,1.5,1.14v7.2a1.37,1.37,0,0,1-1.5,1.14H47.08c-.83,0-1.51-.51-1.51-1.14v-7.2c0-.63.68-1.14,1.51-1.14Zm32.68,0H93.47c.83,0,1.51.51,1.51,1.14v7.2c0,.62-.68,1.14-1.51,1.14H79.76c-.83,0-1.51-.51-1.51-1.14v-7.2a1.37,1.37,0,0,1,1.51-1.14ZM.47,42.19H109.56a.46.46,0,0,1,.46.46h0v79.77a.47.47,0,0,1-.46.46H.47a.47.47,0,0,1-.47-.46V42.66a.47.47,0,0,1,.47-.47ZM7,47.71h96.93a1,1,0,0,1,.94.94v67.78a1,1,0,0,1-.94.94H6.08a1,1,0,0,1-.94-.94V49.58A1.87,1.87,0,0,1,7,47.71Z"
     id="path8" />
  <path
     style="fill:#F2D41C;fill-rule:evenodd;stroke-width:0.0314271;stroke-linejoin:round"
     d="M 0.820471,37.231021 C 0.04054034,36.451091 -0.03879435,35.208894 0.06162482,25.349251 L 0.15713555,15.971545 0.89906171,15.371143 C 1.5994199,14.80438 2.2905223,14.770741 13.234202,14.770741 H 24.827416 V 8.8419729 c 0,-5.4256544 0.05261,-5.9956548 0.619995,-6.7169639 0.892508,-1.13464066 2.53273,-1.81073791 4.392877,-1.81073791 1.804177,0 2.93297,0.47429338 4.10099,1.72314091 0.77251,0.8259703 0.787315,0.9397024 0.883293,6.7866886 l 0.09762,5.9466404 h 19.46576 19.46576 V 8.9266724 c 0,-5.3209465 0.05571,-5.9223046 0.622354,-6.7180829 0.854321,-1.199786 2.464061,-1.89431841 4.390518,-1.89431841 1.884828,0 3.072914,0.53439622 4.220689,1.89845141 0.822787,0.9778258 0.823114,0.9805084 0.823114,6.7681161 v 5.7899024 h 12.221757 c 11.562527,0 12.261767,0.03239 12.963677,0.600419 l 0.74193,0.600419 0.0924,9.691959 c 0.0508,5.330578 0.0152,10.000269 -0.079,10.377093 -0.0943,0.376824 -0.39347,0.907156 -0.66484,1.178516 -0.44448,0.44448 -5.8156,0.493384 -54.188835,0.493384 -47.8109778,0 -53.7482293,-0.05277 -54.17697,-0.48151 z"
     id="path902" />
</svg>
