<?xml version="1.0" encoding="UTF-8" standalone="no"?>
<svg
    viewBox="0 0 110.02 122.88"
   xmlns="http://www.w3.org/2000/svg">
     
    <style
       id="style2">.cls-1{fill-rule:evenodd;}</style>
  <title
     id="title6">calendar-date</title>
  <path
     class="cls-1"
     d="M1.87,14.69H24.53l0-.39V4.13C24.5,1.86,26.86,0,29.76,0S35,1.87,35,4.13V14.3l0,.39h38.6l0-.39V4.13C73.56,1.86,75.92,0,78.81,0s5.26,1.87,5.26,4.13V14.3l0,.39h24.11A1.87,1.87,0,0,1,110,16.56V36a1.87,1.87,0,0,1-1.87,1.87H1.87A1.89,1.89,0,0,1,0,36V16.55a1.87,1.87,0,0,1,1.87-1.86ZM14.16,96.82h13.7c.83,0,1.51.51,1.51,1.13v7.21c0,.62-.68,1.13-1.51,1.13H14.62c-.83,0-1.5-.51-1.5-1.13V98c0-.62.68-1.13,1.5-1.13Zm32.92,0H60.79c.83,0,1.5.51,1.5,1.13v7.21c0,.62-.68,1.13-1.5,1.13H47.08c-.83,0-1.51-.51-1.51-1.13V98c0-.62.68-1.13,1.51-1.13Zm32.68,0H93.47c.83,0,1.51.51,1.51,1.13v7.21c0,.62-.68,1.13-1.51,1.13H79.76c-.83,0-1.51-.51-1.51-1.13V98a1.37,1.37,0,0,1,1.51-1.13ZM14.16,76.71h13.7c.83,0,1.51.51,1.51,1.14v7.2c0,.62-.68,1.13-1.51,1.13H14.62c-.83,0-1.5-.51-1.5-1.13v-7.2a1.36,1.36,0,0,1,1.5-1.14Zm32.92,0H60.79a1.36,1.36,0,0,1,1.5,1.14v7.2c0,.62-.68,1.13-1.5,1.13H47.08c-.83,0-1.51-.51-1.51-1.13v-7.2c0-.63.68-1.14,1.51-1.14Zm32.68,0H93.47c.83,0,1.51.51,1.51,1.14v7.2c0,.62-.68,1.13-1.51,1.13H79.76c-.83,0-1.51-.51-1.51-1.13v-7.2a1.37,1.37,0,0,1,1.51-1.14ZM14.16,56.6h13.7c.83,0,1.51.51,1.51,1.14v7.2c0,.62-.68,1.14-1.51,1.14H14.62a1.36,1.36,0,0,1-1.5-1.14v-7.2a1.36,1.36,0,0,1,1.5-1.14Zm32.92,0H60.79a1.36,1.36,0,0,1,1.5,1.14v7.2a1.37,1.37,0,0,1-1.5,1.14H47.08c-.83,0-1.51-.51-1.51-1.14v-7.2c0-.63.68-1.14,1.51-1.14Zm32.68,0H93.47c.83,0,1.51.51,1.51,1.14v7.2c0,.62-.68,1.14-1.51,1.14H79.76c-.83,0-1.51-.51-1.51-1.14v-7.2a1.37,1.37,0,0,1,1.51-1.14ZM.47,42.19H109.56a.46.46,0,0,1,.46.46h0v79.77a.47.47,0,0,1-.46.46H.47a.47.47,0,0,1-.47-.46V42.66a.47.47,0,0,1,.47-.47ZM7,47.71h96.93a1,1,0,0,1,.94.94v67.78a1,1,0,0,1-.94.94H6.08a1,1,0,0,1-.94-.94V49.58A1.87,1.87,0,0,1,7,47.71Z"
     id="path8" />
  <path
     style="fill:#ffd42a;fill-rule:evenodd;stroke-width:0.0157136;stroke-linejoin:round"
     d="M 1.5115343,37.707705 C 0.87224011,37.515469 0.33999244,36.965935 0.15777287,36.30998 -0.07923111,35.456811 -0.03535199,16.731942 0.20528851,16.033267 0.31244962,15.722136 0.62169521,15.334858 0.9267671,15.129738 L 1.4606953,14.770741 H 13.065488 24.670281 V 9.0290339 c 0,-5.3597069 0.02015,-5.7812079 0.302891,-6.3354245 0.383882,-0.7524703 1.426316,-1.69927582 2.293001,-2.08265214 2.160403,-0.9556489 5.175359,-0.43484898 6.597878,1.13970964 1.02563,1.1352493 1.02004,1.0949295 1.02004,7.3581478 v 5.6619263 h 19.40624 19.40624 V 9.0849054 c 0,-5.4184793 0.01521,-5.717254 0.323453,-6.3539999 0.882526,-1.8230562 3.210972,-2.86357186 5.692343,-2.54374485 1.696197,0.2186248 3.211551,1.20153605 3.934407,2.55199255 0.330456,0.6173664 0.343882,0.8343539 0.391998,6.3354246 l 0.04982,5.6961632 h 12.222797 12.222801 l 0.53393,0.3593 c 0.94935,0.638852 0.94246,0.550155 0.89299,11.494344 -0.0489,10.806402 -7.9e-4,10.245296 -0.93392,10.906128 -0.34077,0.241331 -4.30995,0.262534 -53.715481,0.286949 C 25.60341,37.832138 1.7636127,37.783508 1.5115343,37.707705 Z"
     id="path902" />
</svg>
