<svg  xmlns="http://www.w3.org/2000/svg"
  viewBox="0 0 122.88 122.88" >
  <path
       d="M88.05,15.67c-0.44,0.03-0.78,0.13-1.02,0.29c-0.15,0.1-0.26,0.23-0.32,0.37c-0.08,0.17-0.11,0.37-0.11,0.6 c0.02,0.69,0.38,1.59,1.08,2.63l0.01,0.02l2.27,3.61c0.91,1.45,1.86,2.92,3.05,4c1.14,1.04,2.52,1.74,4.34,1.75 c1.98,0,3.42-0.73,4.6-1.83c1.22-1.14,2.19-2.71,3.14-4.28l2.55-4.21c0.53-1.21,0.69-1.96,0.51-2.34 c-0.14-0.28-0.63-0.35-1.45-0.28c-0.14,0.01-0.28-0.02-0.39-0.09c-0.13,0.01-0.26,0-0.39-0.01l0.08-0.43 c0-0.02-0.01-0.04-0.01-0.06c-0.01-0.15,0.03-0.29,0.1-0.41l0.58-2.93C102,12.03,98.8,11.21,95.02,8.8C93.78,8,93.4,7.1,92.16,7.19 c-0.94,0.18-1.73,0.6-2.35,1.28c-0.6,0.65-1.05,1.53-1.35,2.66l0.58,4.58C88.69,15.77,88.36,15.76,88.05,15.67L88.05,15.67 L88.05,15.67z M76.02,26.23c0.04,0.03,0.07,0.06,0.11,0.09l0,0l0.01,0.01l0.01,0.01l0.01,0.01l0.01,0.01l0.01,0.01l0.01,0.01 l0.01,0.01l0.01,0.01l0.01,0.01l0,0c0.03,0.04,0.06,0.07,0.09,0.11l0.01,0.01l0.01,0.02c0.02,0.03,0.04,0.06,0.06,0.09l0,0l0,0.01 l0.01,0.02l0,0.01l0.01,0.03l0,0l0.01,0.03l0,0l0.01,0.03l0,0l0.01,0.03l0,0l0.01,0.03v0l0.01,0.03l0,0l0.01,0.03l0,0l0.01,0.03 l0,0l0.02,0.06l0,0l0.01,0.03l0.01,0.07l0,0l0,0.03l0,0.03l0,0.01l0,0.03l0,0.01l0,0.03l0,0.01l0,0.03l0,0.01l0,0.03v0.01l0,0.03 v0.01v0.03v0.01l0,0.03v0.01l0,0.03l0,0.01l0,0.03l0,0.01l0,0.03l0,0.01l0,0.03l0,0.01l0,0.03l0,0.03l0,0l-0.01,0.07l-0.01,0.03 l0,0l-0.02,0.06l0,0l-0.01,0.03l0,0l-0.01,0.03l0,0l-0.01,0.03v0l-0.01,0.03l0,0l-0.01,0.03l0,0l-0.01,0.03l0,0l-0.01,0.03l0,0 l-0.01,0.03l0,0.01l-0.01,0.02l0,0.01l0,0c-0.02,0.03-0.04,0.06-0.06,0.09l-0.01,0.02l-0.01,0.01c-0.03,0.04-0.06,0.08-0.09,0.11 l0,0l-0.01,0.01l-0.01,0.01l-0.01,0.01l-0.01,0.01l-0.01,0.01l-0.01,0.01l-0.01,0.01l-0.01,0.01l-0.01,0.01l0,0 c-0.04,0.03-0.07,0.06-0.11,0.09l-0.01,0.01l0,0l-6.42,4.66c-0.63,0.46-1.51,0.32-1.96-0.31c-0.46-0.63-0.32-1.51,0.31-1.96 l2.93-2.13H52.01l2.93,2.13c0.63,0.46,0.77,1.33,0.31,1.96c-0.46,0.63-1.33,0.77-1.96,0.31l-6.37-4.63 c-0.39-0.25-0.65-0.69-0.65-1.18c0-0.5,0.26-0.93,0.65-1.18l6.37-4.63c0.63-0.46,1.51-0.32,1.96,0.31 c0.46,0.63,0.32,1.51-0.31,1.96l-2.93,2.13h18.85l-2.93-2.13c-0.63-0.46-0.77-1.33-0.31-1.96c0.46-0.63,1.33-0.77,1.96-0.31 l6.42,4.66l0,0L76.02,26.23L76.02,26.23z M90.01,32.73l4.06,11.94l2.04-7.08l-1-1.09c-0.45-0.66-0.55-1.23-0.3-1.73 c0.54-1.07,1.66-0.87,2.71-0.87c1.1,0,2.45-0.21,2.8,1.17c0.11,0.46-0.03,0.94-0.35,1.44l-1,1.09l2.04,7.08l3.68-11.94 c2.65,2.39,10.5,2.86,13.42,4.49c0.92,0.51,1.76,1.17,2.43,2.06c1.02,1.34,1.64,3.1,1.81,5.33l0.55,13.01H71.8l0.54-13.01 c0.17-2.23,0.79-3.98,1.81-5.33c0.67-0.89,1.5-1.54,2.43-2.06C79.51,35.6,87.35,35.12,90.01,32.73L90.01,32.73z M108.23,14.83 c0.49,0.15,0.85,0.44,1.07,0.88c0.37,0.74,0.22,1.86-0.49,3.46l0,0c-0.01,0.03-0.02,0.05-0.04,0.07l-2.58,4.26 c-1,1.64-2.01,3.29-3.36,4.55c-1.4,1.31-3.12,2.18-5.48,2.18c-2.2-0.01-3.86-0.85-5.22-2.09c-1.31-1.2-2.32-2.75-3.27-4.27 l-2.27-3.61c-0.83-1.24-1.26-2.37-1.29-3.3c-0.01-0.44,0.06-0.84,0.22-1.18c0.17-0.37,0.43-0.67,0.78-0.91 c0.17-0.11,0.35-0.21,0.55-0.28c-0.15-1.96-0.2-4.42-0.11-6.48c0.05-0.49,0.14-0.98,0.28-1.47c0.58-2.07,2.03-3.74,3.83-4.88 c0.63-0.4,1.33-0.74,2.06-1c4.36-1.58,10.13-0.71,13.22,2.63c1.26,1.36,2.05,3.17,2.22,5.56L108.23,14.83L108.23,14.83 L108.23,14.83z M16.24,15.67c-0.44,0.03-0.78,0.13-1.02,0.29c-0.15,0.1-0.26,0.23-0.32,0.37c-0.08,0.17-0.11,0.37-0.11,0.6 c0.02,0.69,0.38,1.59,1.08,2.63l0.01,0.02l2.27,3.61c0.91,1.45,1.86,2.92,3.05,4c1.14,1.04,2.52,1.74,4.34,1.75 c1.98,0.01,3.42-0.73,4.6-1.82c1.22-1.14,2.19-2.71,3.14-4.28l2.55-4.21c0.53-1.21,0.69-1.96,0.51-2.34 c-0.14-0.28-0.63-0.35-1.45-0.28c-0.14,0.01-0.28-0.02-0.39-0.09c-0.13,0.01-0.26,0-0.39-0.01l0.08-0.43 c0-0.02-0.01-0.04-0.01-0.06c-0.01-0.15,0.03-0.29,0.1-0.41l0.58-2.93C30.19,12.03,27,11.21,23.22,8.8 c-1.24-0.79-1.62-1.7-2.86-1.61c-0.94,0.18-1.73,0.6-2.35,1.28c-0.6,0.65-1.05,1.53-1.35,2.66l0.58,4.58 C16.89,15.77,16.56,15.76,16.24,15.67L16.24,15.67L16.24,15.67z M18.2,32.73l4.06,11.94l2.04-7.08l-1-1.09 c-0.45-0.66-0.55-1.23-0.3-1.73c0.54-1.07,1.66-0.87,2.71-0.87c1.1,0,2.45-0.21,2.8,1.17c0.12,0.46-0.03,0.94-0.35,1.44l-1,1.09 l2.04,7.08l3.68-11.94c2.65,2.39,10.5,2.86,13.42,4.49c0.92,0.51,1.76,1.17,2.43,2.06c1.02,1.34,1.64,3.1,1.81,5.33l0.54,13.01H0 l0.55-13.01c0.17-2.23,0.79-3.98,1.81-5.33c0.67-0.89,1.5-1.54,2.43-2.06C7.71,35.6,15.55,35.12,18.2,32.73L18.2,32.73L18.2,32.73z M36.43,14.83c0.49,0.15,0.85,0.44,1.07,0.88c0.37,0.74,0.22,1.86-0.49,3.46l0,0c-0.01,0.03-0.02,0.05-0.04,0.07l-2.58,4.26 c-1,1.64-2.01,3.29-3.36,4.55c-1.4,1.31-3.12,2.18-5.48,2.18c-2.2-0.01-3.86-0.85-5.22-2.09c-1.31-1.2-2.32-2.75-3.27-4.27 l-2.27-3.61c-0.83-1.24-1.26-2.37-1.29-3.3c-0.01-0.44,0.06-0.84,0.22-1.18c0.17-0.37,0.43-0.67,0.78-0.91 c0.16-0.11,0.35-0.21,0.55-0.28c-0.15-1.95-0.2-4.42-0.11-6.48c0.05-0.49,0.14-0.98,0.28-1.47c0.58-2.07,2.03-3.74,3.83-4.88 c0.63-0.4,1.33-0.74,2.06-1c4.36-1.58,10.13-0.71,13.22,2.63c1.26,1.36,2.05,3.17,2.22,5.56L36.43,14.83L36.43,14.83L36.43,14.83z"
       id="path2" /><path
     style="fill:#f2f2f2;fill-rule:evenodd;stroke-width:0.0169373;stroke-linejoin:round"
     d="m 23.751179,29.88577 c -2.738466,-0.737261 -4.087939,-2.090631 -7.544788,-7.566569 -1.902989,-3.014493 -2.661113,-4.563419 -2.652844,-5.420029 0.0063,-0.653844 0.595693,-1.727345 1.094548,-1.993615 l 0.47458,-0.253313 -0.09732,-2.28728 c -0.142603,-3.3517311 0.06589,-5.332807 0.704955,-6.6984616 1.633402,-3.4905001 5.287543,-5.52296278 9.929671,-5.52296278 5.306513,0 9.506755,2.79601128 10.494378,6.98588298 0.18152,0.7700834 0.256517,2.0405403 0.258294,4.3755964 l 0.0025,3.290435 0.519565,0.435767 c 0.677988,0.568638 0.816819,1.495007 0.411539,2.746007 -0.29685,0.916297 -2.539953,4.772407 -4.321872,7.429713 -1.148065,1.712065 -2.837327,3.346821 -4.089053,3.957119 -1.602033,0.781093 -3.508198,0.972921 -5.184161,0.52171 z m 4.694322,-1.503539 c 1.917222,-0.98743 2.959771,-2.254492 6.045219,-7.347049 1.682124,-2.776361 1.986266,-3.488013 1.8961,-4.436643 -0.05622,-0.591442 -0.05849,-0.592925 -0.987896,-0.644851 -0.512353,-0.02862 -0.988722,-0.108663 -1.058601,-0.177861 -0.06988,-0.0692 0.02375,-0.807956 0.208051,-1.641683 0.490169,-2.217337 0.585998,-2.046292 -1.224267,-2.185181 C 28.482733,11.577519 25.88338,10.586247 21.644088,7.4947483 20.299749,6.5143907 18.159754,7.5741247 17.088146,9.7508684 l -0.540856,1.0986346 0.204822,1.731251 c 0.112653,0.952188 0.246577,2.006596 0.29761,2.343128 l 0.09279,0.611876 -0.866506,0.08326 c -1.568707,0.150733 -1.937887,1.050692 -1.136772,2.771138 0.547198,1.175143 4.019618,6.631628 4.936759,7.757515 0.920074,1.129487 2.235339,2.111793 3.369137,2.516242 1.35186,0.482235 3.783045,0.345282 5.000374,-0.281682 z"
     id="path900" /><path
     style="fill:#f2f2f2;fill-rule:evenodd;stroke-width:0.0169373;stroke-linejoin:round"
     d="m 95.61097,29.909376 c -2.116644,-0.525327 -4.001327,-2.076003 -5.782247,-4.757509 -3.287433,-4.949838 -4.445821,-7.099093 -4.459281,-8.273672 -0.008,-0.695527 0.468743,-1.595494 1.016542,-1.919087 l 0.47295,-0.279379 -0.02178,-3.571319 c -0.02027,-3.3234268 0.0052,-3.6471012 0.366398,-4.6631018 0.814135,-2.2898183 2.533861,-4.1175308 4.908643,-5.216872 1.654462,-0.76588806 3.290762,-1.09041183 5.446563,-1.0802047 5.366242,0.0254077 9.582232,2.9491926 10.483322,7.2701671 0.10294,0.4936493 0.18717,2.3773577 0.18717,4.1860184 0,3.109427 0.0183,3.298294 0.33699,3.468828 0.42282,0.226287 0.84862,1.032558 0.84862,1.606912 0,0.930166 -0.7379,2.535875 -2.45981,5.352662 -2.84067,4.646937 -4.0039,6.069723 -5.84176,7.145286 -1.479644,0.865931 -3.746091,1.167145 -5.50232,0.731271 z m 4.53117,-1.489788 c 1.94234,-0.906514 3.15393,-2.371567 6.25445,-7.562877 1.63965,-2.745319 1.91285,-3.405319 1.80414,-4.358452 -0.0533,-0.467306 -0.10536,-0.49691 -1.0169,-0.578161 -0.5284,-0.0471 -1.00431,-0.129222 -1.05759,-0.182495 -0.0533,-0.05327 0.0535,-0.776914 0.23723,-1.608092 0.48583,-2.197647 0.56114,-2.042732 -1.05591,-2.172013 C 101.63951,11.664241 99.653836,11.143619 96.973929,9.7725124 96.046766,9.2981527 94.897185,8.5915723 94.419305,8.2023336 92.979999,7.0300034 92.675217,6.9393551 91.428619,7.3128447 90.417096,7.6159046 89.387344,8.6255672 88.835391,9.8554834 l -0.479208,1.0678176 0.206931,1.694352 c 0.113813,0.931894 0.248905,1.969697 0.300206,2.306229 l 0.09327,0.611876 -0.866506,0.08326 c -1.576024,0.151436 -1.938115,1.050086 -1.125966,2.794461 0.59226,1.272085 4.063075,6.690862 5.029169,7.851742 1.642481,1.973641 3.249436,2.72893 5.650153,2.655639 1.235418,-0.03772 1.709039,-0.132731 2.4987,-0.501272 z"
     id="path939" /><path
     style="fill:#f2f2f2;fill-rule:evenodd;stroke-width:0.0169373;stroke-linejoin:round"
     d="m 71.939615,56.4435 c 0.02855,-0.628797 0.162826,-3.77278 0.298382,-6.98663 0.206481,-4.895373 0.30396,-6.049448 0.600858,-7.113659 0.45123,-1.617404 1.129401,-2.800425 2.149185,-3.749097 1.594075,-1.482918 2.327709,-1.779942 7.496534,-3.035096 4.150546,-1.007883 4.81321,-1.213688 6.331047,-1.966247 0.640848,-0.317739 1.180588,-0.555808 1.199426,-0.529043 0.01884,0.02676 0.896673,2.601958 1.950746,5.722653 1.054075,3.120695 1.975419,5.740291 2.047435,5.821326 0.07201,0.08103 0.204113,-0.109509 0.29355,-0.423432 0.08944,-0.313922 0.557347,-1.934421 1.039797,-3.601108 l 0.87718,-3.03034 -0.509524,-0.52649 c -0.659153,-0.6811 -1.039094,-1.599596 -0.858359,-2.075066 0.281184,-0.739731 0.788833,-0.90733 2.74827,-0.90733 1.720439,0 1.858667,0.02555 2.248847,0.415734 0.249951,0.249951 0.415731,0.611292 0.415731,0.906138 0,0.43123 -0.16889,0.721138 -1.242776,2.133289 -0.08257,0.10858 0.257405,1.566795 0.813491,3.489217 1.213185,4.194042 1.097575,3.869656 1.267625,3.556739 0.0759,-0.139733 0.9236,-2.820615 1.88371,-5.957516 l 1.74564,-5.703456 0.39727,0.312493 c 0.82556,0.649381 3.04894,1.392838 7.11181,2.378059 2.79977,0.678927 4.60911,1.212218 5.43143,1.600879 2.33442,1.103345 3.79148,3.095161 4.33784,5.929871 0.20112,1.043511 0.78202,11.598206 0.7807,14.184976 -1.4e-4,0.280973 -1.32521,0.296402 -25.453956,0.296402 H 71.887698 Z"
     id="path978" /><path
     style="fill:#f2f2f2;fill-rule:evenodd;stroke-width:0.0169373;stroke-linejoin:round"
     d="M 0.17036027,56.4435 C 0.17310177,53.269327 0.70211964,43.729468 0.92984954,42.747516 1.4350735,40.569033 2.7062025,38.690048 4.4176848,37.591793 c 1.0299854,-0.66094 2.6107875,-1.170475 6.2885052,-2.026954 3.284366,-0.764874 5.603765,-1.50687 6.677759,-2.136272 0.414837,-0.24311 0.776812,-0.413704 0.804393,-0.379097 0.02758,0.03461 0.912569,2.616216 1.966642,5.736911 1.054073,3.120695 1.974802,5.740412 2.046064,5.821595 0.130655,0.148841 0.241028,-0.188428 1.510962,-4.617021 l 0.698812,-2.436941 -0.498361,-0.527083 c -1.016052,-1.07461 -1.175426,-2.046763 -0.431481,-2.631951 0.389548,-0.306418 0.681165,-0.351039 2.294232,-0.351039 1.7362,0 1.873101,0.02514 2.263691,0.415734 0.69512,0.695119 0.529748,1.477255 -0.563449,2.664851 l -0.419115,0.455306 0.981641,3.44027 c 0.539903,1.892148 1.038766,3.506376 1.108581,3.587173 0.06982,0.0808 0.347758,-0.567054 0.617647,-1.439669 0.269891,-0.872615 1.09249,-3.542117 1.828,-5.932226 L 32.9295,32.889727 33.323185,33.1994 c 0.813032,0.639531 2.966274,1.358606 7.072346,2.361811 2.78953,0.681543 4.654935,1.232848 5.467303,1.615813 2.333314,1.099968 3.791261,3.092489 4.337839,5.928364 0.201123,1.043511 0.782026,11.598206 0.780703,14.184976 -1.42e-4,0.280969 -1.322929,0.296402 -25.406077,0.296402 H 0.16937284 Z"
     id="path1017" /><path
     style="fill:#f2f2f2;fill-rule:evenodd;stroke-width:0.0169373;stroke-linejoin:round"
     d="m 50.458274,30.982284 c -1.808366,-1.311291 -3.459427,-2.544061 -3.669026,-2.739489 -0.506243,-0.472016 -0.506243,-1.308046 0,-1.772375 1.116686,-1.024234 7.010445,-5.129442 7.364228,-5.129442 0.820232,0 1.454429,1.084932 1.129368,1.932028 -0.05614,0.146303 -0.81832,0.778645 -1.693729,1.405204 -0.875409,0.626559 -1.591652,1.19905 -1.591652,1.272203 0,0.07315 4.268195,0.133005 9.484879,0.133005 5.216683,0 9.484879,-0.03749 9.484879,-0.08331 0,-0.04582 -0.726958,-0.620207 -1.615463,-1.276419 -0.888504,-0.656212 -1.701025,-1.380902 -1.805601,-1.610422 -0.392316,-0.861039 0.655011,-1.997158 1.532714,-1.662658 0.510333,0.194492 6.772997,4.703541 7.096565,5.109449 0.116444,0.146075 0.211716,0.551156 0.211716,0.900179 0,0.629983 -0.02484,0.652691 -3.423173,3.129219 -1.882745,1.372047 -3.628061,2.571968 -3.87848,2.666491 -0.874035,0.329912 -1.933462,-0.796794 -1.546921,-1.645159 0.100407,-0.220371 0.908473,-0.925385 1.795702,-1.566698 0.88723,-0.641314 1.617597,-1.223188 1.623043,-1.293054 0.0054,-0.06987 -4.258298,-0.12703 -9.474981,-0.12703 -5.216684,0 -9.484879,0.06287 -9.484879,0.139714 0,0.07684 0.623841,0.586357 1.386313,1.132255 1.795326,1.285375 2.001143,1.503745 2.001143,2.123187 0,0.627266 -0.660057,1.347284 -1.235087,1.347284 -0.250411,0 -1.651678,-0.904998 -3.691558,-2.384166 z"
     id="path1056" /><path
     style="fill:#f2f2f2;fill-rule:evenodd;stroke-width:0.0169373;stroke-linejoin:round"
     d="m 0.23921289,55.793316 c 0.0560623,-1.016437 0.13790059,-2.953223 0.18186295,-4.303972 0.10662805,-3.276159 0.39982035,-7.487126 0.60142946,-8.638015 0.2264649,-1.292779 1.0390024,-2.867859 2.0502201,-3.974292 1.259722,-1.378337 2.538222,-1.931141 7.2590176,-3.138691 2.189144,-0.55997 4.094589,-1.067413 4.234321,-1.127652 0.139733,-0.06024 0.406495,-0.137774 0.592805,-0.172302 0.186311,-0.03453 0.892914,-0.324946 1.570231,-0.645375 1.076854,-0.509444 1.884638,-0.640321 1.654578,-0.268074 -0.06765,0.109457 2.096207,6.600346 2.629179,7.886717 0.11579,0.279465 0.234438,0.627937 0.263661,0.774383 0.149526,0.749283 0.850965,2.438228 0.997313,2.401358 0.09244,-0.02329 0.169238,-0.09951 0.170664,-0.169373 0.0014,-0.06987 0.05087,-0.203247 0.109867,-0.296403 0.114975,-0.181533 0.506425,-1.527658 0.56641,-1.947787 0.01995,-0.139733 0.08435,-0.368386 0.143116,-0.508119 0.254248,-0.604575 1.122112,-3.671018 1.12387,-3.970994 10e-4,-0.181212 -0.187355,-0.527049 -0.418703,-0.768525 -0.231348,-0.241476 -0.565089,-0.736029 -0.741643,-1.099006 l -0.321009,-0.659959 0.467903,-0.500654 c 0.46335,-0.495784 0.486291,-0.500721 2.357887,-0.507397 1.649378,-0.0059 1.930555,0.03487 2.208671,0.320096 0.613742,0.629443 0.510794,1.360409 -0.325384,2.31036 l -0.669785,0.760916 1.012494,3.435152 c 0.556872,1.889334 1.058145,3.509015 1.113938,3.599291 0.183398,0.296744 0.580129,-0.800324 2.240664,-6.196055 l 1.64035,-5.330135 0.672429,0.410066 c 0.605864,0.369472 3.152657,1.280813 4.167753,1.491383 1.038265,0.215377 6.272345,1.643519 7.175167,1.957777 1.910835,0.665131 3.446305,1.974842 4.275365,3.646761 0.8292,1.672201 1.045118,2.989339 1.291083,7.875837 0.420697,8.35784 0.426015,8.778925 0.112418,8.899264 -0.14188,0.05445 -11.564689,0.144551 -25.38402,0.200238 L 0.13728147,57.641382 Z"
     id="path1132" /><path
     style="fill:#f2f2f2;fill-rule:evenodd;stroke-width:0.0169373;stroke-linejoin:round"
     d="M 23.179725,29.59616 C 21.128145,28.879599 20.054898,27.88598 17.921907,24.728435 17.26116,23.750307 16.602312,22.854748 16.457799,22.738304 16.313286,22.62186 16.2461,22.526588 16.308496,22.526588 c 0.0624,0 -0.315491,-0.705014 -0.839748,-1.566699 -1.238679,-2.035924 -1.809916,-3.300396 -1.79219,-3.967128 0.02079,-0.78188 0.516927,-1.710509 1.094263,-2.048142 0.480447,-0.280972 0.497591,-0.331031 0.390677,-1.140732 -0.16012,-1.212652 -0.112104,-4.9050641 0.07906,-6.0792542 0.08937,-0.5489379 0.126127,-1.0568981 0.08169,-1.1288006 -0.04444,-0.071903 -0.02036,-0.156296 0.05352,-0.1875413 0.07387,-0.031245 0.354602,-0.511183 0.623845,-1.0665284 0.695023,-1.4335656 2.38418,-3.0673042 3.986393,-3.8556083 1.333126,-0.65590988 3.05786,-1.14067654 4.073417,-1.144905 0.330701,-0.001377 0.673681,-0.066397 0.762178,-0.14448916 0.248389,-0.21918429 3.576716,0.23704419 4.903344,0.67212293 0.652085,0.21385693 1.261828,0.39166183 1.354983,0.39512203 0.09316,0.00346 0.207481,0.049422 0.254059,0.1021377 0.04658,0.052716 0.520716,0.3825769 1.05364,0.733025 1.823076,1.1988449 3.259912,3.1688866 3.671855,5.0344734 0.09014,0.4082079 0.217729,2.3046605 0.283537,4.2143389 l 0.119652,3.472144 0.502783,0.577327 c 0.458383,0.526345 0.496544,0.66359 0.432126,1.554152 -0.07676,1.061265 -0.599588,2.195258 -2.297009,4.98218 -0.510639,0.838396 -0.931869,1.619628 -0.936069,1.736072 -0.0042,0.116444 -0.0574,0.211716 -0.118234,0.211716 -0.06083,0 -0.546804,0.642163 -1.079942,1.427029 -1.084472,1.596518 -2.80237,3.298307 -3.882065,3.845664 -0.392865,0.199164 -0.752408,0.409041 -0.798985,0.466392 -0.123222,0.151728 -0.570013,0.206787 -2.37122,0.292217 -1.373642,0.06515 -1.773669,0.01882 -2.73432,-0.316713 z m 4.558805,-0.891686 c 0.478351,-0.142056 0.982157,-0.370709 1.119567,-0.508118 0.137409,-0.137411 0.320916,-0.249837 0.407792,-0.249837 0.207573,0 1.562658,-1.308033 1.988234,-1.919196 0.183651,-0.26374 0.473817,-0.644829 0.644813,-0.846864 0.418205,-0.494118 2.722021,-4.138978 3.431668,-5.42923 0.939189,-1.707595 1.102743,-2.171588 1.049898,-2.978501 l -0.05003,-0.763896 -0.920555,-0.131697 c -0.506305,-0.07243 -0.947392,-0.158535 -0.980193,-0.191336 -0.0328,-0.0328 0.07306,-0.82885 0.235249,-1.768997 0.162188,-0.940147 0.251361,-1.752884 0.198162,-1.806082 -0.0532,-0.0532 -1.116731,-0.205877 -2.363404,-0.339285 C 28.375572,11.330102 26.636273,10.698951 22.958419,8.3091127 21.36182,7.2716566 21.008266,7.1084979 20.417826,7.1366766 19.055727,7.2016828 17.734222,8.2531956 16.869149,9.9603357 L 16.450398,10.7867 16.74588,13.094222 c 0.322838,2.521161 0.331433,2.48808 -0.646471,2.48808 -0.259284,0 -0.672248,0.157967 -0.917698,0.351038 -0.637731,0.50164 -0.611452,1.5024 0.07365,2.804804 0.285959,0.543618 0.609884,1.045605 0.719834,1.115529 0.10995,0.06992 0.145257,0.128303 0.07846,0.129729 -0.126594,0.0027 1.335922,2.386918 2.806783,4.57566 0.945927,1.407604 2.599511,3.218084 2.939205,3.218084 0.120353,0 0.218825,0.05889 0.218825,0.130858 0,0.158473 1.015676,0.721038 1.404941,0.778171 0.15344,0.02252 0.332,0.09396 0.3968,0.158764 0.22098,0.22098 3.041701,0.119863 3.918319,-0.140465 z"
     id="path1171" /><path
     style="fill:#f2f2f2;fill-rule:evenodd;stroke-width:0.0169373;stroke-linejoin:round"
     d="m 71.955057,57.23286 c -0.0325,-0.224549 -0.0081,-0.865578 0.05416,-1.424508 0.06229,-0.558931 0.157283,-2.426266 0.211104,-4.149635 0.27424,-8.781222 0.638474,-10.608324 2.522162,-12.651885 1.345749,-1.459964 2.509358,-2.0374 5.747633,-2.852238 0.957218,-0.240862 1.854724,-0.481391 1.994456,-0.53451 0.139733,-0.05312 0.420285,-0.118849 0.62345,-0.146068 0.513862,-0.06884 3.658096,-0.931701 3.864931,-1.060634 0.09315,-0.05807 0.304511,-0.126631 0.46968,-0.152358 0.16517,-0.02573 0.765258,-0.281482 1.333531,-0.568345 0.568273,-0.286863 1.093086,-0.458563 1.166254,-0.381556 0.07317,0.07701 0.7425,1.931131 1.487405,4.120275 0.744905,2.189144 1.449467,4.208915 1.565694,4.488381 0.116227,0.279465 0.23603,0.633154 0.266227,0.785976 0.132314,0.669608 0.680569,1.921485 0.830171,1.895601 0.14272,-0.02469 1.276658,-3.502988 1.228371,-3.767971 -0.0099,-0.05457 0.06027,-0.289761 0.156042,-0.522648 0.09577,-0.232888 0.312971,-0.966185 0.482672,-1.62955 l 0.30855,-1.206117 -0.615598,-0.719188 c -1.238188,-1.446544 -0.955144,-2.313525 0.837475,-2.565234 0.541552,-0.07604 1.469024,-0.0907 2.061047,-0.03258 0.97156,0.09538 1.1076,0.156838 1.396692,0.630924 0.176164,0.288885 0.320574,0.573724 0.320924,0.632975 3.4e-4,0.05925 -0.306066,0.567012 -0.680919,1.128358 -0.665168,0.996096 -0.677266,1.040325 -0.503298,1.840058 0.434299,1.996495 1.771237,6.326188 1.936407,6.271129 0.099,-0.033 0.18116,-0.129863 0.18259,-0.215255 10e-4,-0.08539 0.0506,-0.231476 0.1092,-0.324632 0.18119,-0.287877 0.63783,-1.947787 0.53583,-1.947787 -0.053,0 -0.0207,-0.09527 0.0717,-0.211716 0.17679,-0.222747 0.5873,-1.387939 0.64147,-1.820758 0.0175,-0.139733 0.091,-0.393568 0.16335,-0.564078 0.0724,-0.17051 0.56333,-1.712561 1.09106,-3.42678 0.95755,-3.110364 0.96028,-3.116227 1.33164,-2.856118 0.20467,0.143354 0.37212,0.212768 0.37212,0.154254 0,-0.05851 0.11707,0.01068 0.26016,0.153771 0.23325,0.233254 2.80955,1.146952 3.82797,1.357609 1.35831,0.280963 5.94239,1.533118 7.17516,1.959917 2.99401,1.036556 4.91084,3.587011 5.23958,6.971577 0.19613,2.019258 0.44254,6.322054 0.52724,9.20687 0.0465,1.583636 0.12047,3.157147 0.16439,3.496689 0.0619,0.478316 0.0134,0.642853 -0.21523,0.730581 -0.16229,0.06228 -11.58767,0.158736 -25.389742,0.214353 L 72.014142,57.64113 Z"
     id="path1210" /></svg>
