<svg  xmlns="http://www.w3.org/2000/svg"
  viewBox="0 0 122.88 122.88" >
<path
       d="M96.54,57.98c-0.89-0.59-1.89-0.87-2.89-0.87l0.79-1.19c0.8-1.22,1.04-2.65,0.77-3.98c-0.27-1.33-1.05-2.56-2.27-3.36 c0,0,0,0,0,0c-0.9-0.6-1.97-0.9-3.05-0.87l0.64-0.96c0.8-1.22,1.04-2.65,0.77-3.98c-0.27-1.33-1.05-2.56-2.27-3.36 c-1.22-0.8-2.65-1.04-3.98-0.77c-1.33,0.27-2.56,1.05-3.36,2.27l-0.64,0.98c-0.39-0.95-1.06-1.8-1.97-2.4 c-1.22-0.8-2.65-1.04-3.98-0.77c-1.33,0.27-2.56,1.05-3.36,2.27L57.83,61.98c-0.3,0.33-0.57,0.68-0.82,1.05l0,0l-0.82,1.24 l-0.04-0.18c-0.29-1.22-0.54-2.45-0.64-2.92c-0.64-3.13-2.4-4.88-4.35-5.43c-0.88-0.25-1.78-0.25-2.64-0.04 c-0.85,0.22-1.66,0.65-2.34,1.29c-1.61,1.5-2.52,4.14-1.61,7.59l0.01,0.06l0,0l0,0.01c0.72,3.63,1.02,11.81,3.22,17.59L35.57,97.12 c-0.23,0.27-0.62,0.7-0.99,1.12c-2.72,3.04-4.5,5.03-2.3,10.06c0.82,1.87,2.16,3.7,3.84,5.4c3.12,3.15,7.43,5.87,11.62,7.51 c4.32,1.69,8.58,2.25,11.45,1c0.67-0.29,1.26-0.68,1.77-1.17c0.12-0.11,0.23-0.24,0.3-0.4l10.61-23.04 c3.32-2.08,7.13-3.44,9.28-6.7l5.48-8.29c0.19-0.29,0.36-0.59,0.52-0.89c0.09-0.08,0.17-0.17,0.24-0.27c0,0,0.01-0.01,0.01-0.01 l10.64-16.11c0.8-1.22,1.04-2.65,0.77-3.98C98.54,60.01,97.76,58.78,96.54,57.98L96.54,57.98L96.54,57.98z M5.24,11.56 c1.06-0.01,2.06,0.29,2.9,0.83l-0.02-1.43C8.1,9.5,8.68,8.17,9.63,7.2c0.95-0.97,2.27-1.58,3.73-1.6c0,0,0,0,0.01,0 c1.08-0.01,2.14,0.31,3.04,0.92l-0.01-1.15c-0.02-1.46,0.56-2.79,1.51-3.76c0.95-0.97,2.27-1.58,3.73-1.6 c1.46-0.02,2.79,0.56,3.76,1.51c0.97,0.95,1.58,2.27,1.6,3.73L27,6.41c0.84-0.59,1.86-0.94,2.96-0.95 c1.46-0.02,2.79,0.56,3.76,1.51c0.97,0.95,1.58,2.27,1.6,3.73l0.3,25.19c0.07,0.44,0.11,0.88,0.12,1.33l0,0l0.02,1.48l0.13-0.13 c0.9-0.87,1.78-1.77,2.11-2.11c2.23-2.29,4.66-2.8,6.6-2.21c0.87,0.27,1.64,0.75,2.24,1.4c0.6,0.64,1.04,1.45,1.27,2.35 c0.54,2.14-0.12,4.84-2.75,7.25l-0.04,0.04l0,0l-0.01,0.01c-2.57,2.66-7.25,9.38-12.23,13.05l2.26,19.13 c0.05,0.35,0.14,0.93,0.23,1.48c0.64,4.03,1.06,6.66-3.51,9.7c-1.7,1.13-3.82,1.94-6.15,2.46c-4.33,0.96-9.42,0.92-13.83,0.03 c-4.55-0.92-8.44-2.75-10.17-5.36c-0.4-0.61-0.69-1.25-0.86-1.94c-0.05-0.16-0.06-0.32-0.04-0.5l3.54-25.12 c-1.66-3.55-4.13-6.75-4.18-10.65l-0.12-9.94c0-0.35,0.01-0.69,0.04-1.03c-0.04-0.12-0.06-0.24-0.06-0.36c0,0,0-0.01,0-0.01 L0,16.93c-0.02-1.46,0.56-2.79,1.51-3.76C2.46,12.19,3.78,11.58,5.24,11.56L5.24,11.56L5.24,11.56z M30.39,57.77 c4.64-3.93,11.45-12.34,13.19-14.14c0.04-0.04,0.08-0.08,0.12-0.12l0.81,0.89l-0.81-0.89c1.91-1.73,2.42-3.56,2.08-4.94 c-0.13-0.5-0.37-0.94-0.69-1.29c-0.32-0.35-0.72-0.6-1.18-0.74c-1.15-0.35-2.66,0.04-4.18,1.59c-0.35,0.35-1.27,1.3-2.17,2.17 c-0.85,0.81-1.72,1.6-2.29,1.93c-0.19,0.13-0.42,0.21-0.66,0.21c0,0,0,0,0,0l-0.96-0.45l-0.34-4.74 c-0.11-8.88-0.28-17.61-0.38-26.52c-0.01-0.79-0.34-1.51-0.88-2.03c-0.53-0.52-1.26-0.83-2.05-0.82c-0.79,0.01-1.51,0.34-2.03,0.87 c-0.52,0.53-0.84,1.26-0.83,2.05l0.21,17.28l-2.49,0.03L24.58,5.27c-0.01-0.79-0.34-1.51-0.87-2.03c-0.53-0.52-1.26-0.84-2.05-0.83 s-1.51,0.34-2.03,0.88c-0.52,0.53-0.84,1.26-0.83,2.05l0.27,22.83l-2.55,0.03l-0.21-17.34c-0.01-0.79-0.34-1.51-0.88-2.03 C14.91,8.31,14.18,8,13.39,8.01c-0.79,0.01-1.51,0.34-2.03,0.88c-0.52,0.53-0.84,1.26-0.83,2.05l0.21,17.34L8.33,28.3L8.19,16.83 c-0.01-0.79-0.34-1.51-0.87-2.03c-0.53-0.52-1.26-0.84-2.05-0.83c-0.79,0.01-1.51,0.34-2.03,0.88c-0.52,0.53-0.83,1.26-0.82,2.05 l0.14,11.47l0.02,1.78l0.09,7.21c0,0.08,0,0.16,0,0.25l0.12,9.94c0.03,2.67,2.83,7.43,4.04,10.01c0.1,0.21,0.13,0.44,0.1,0.65h0 L3.35,83.45c0.1,0.36,0.27,0.7,0.49,1.04c1.37,2.06,4.7,3.56,8.68,4.36c4.12,0.83,8.86,0.87,12.87-0.02 c2.06-0.46,3.91-1.16,5.36-2.12c3.32-2.21,2.99-4.26,2.49-7.39c-0.06-0.4-0.13-0.83-0.23-1.52L30.39,57.77L30.39,57.77z M2.59,31.46L2.59,31.46L2.59,31.46L2.59,31.46L2.59,31.46L2.59,31.46z M50.39,83.23c-1.78-5.82-2.95-16.57-3.44-19.03 c-0.01-0.06-0.02-0.11-0.03-0.17l-1.16,0.31l1.16-0.31c-0.67-2.49-0.11-4.3,0.93-5.27c0.38-0.35,0.82-0.6,1.28-0.71 c0.46-0.12,0.94-0.12,1.39,0.01c1.15,0.33,2.22,1.47,2.65,3.6c0.1,0.49,0.36,1.78,0.65,3c0.27,1.14,0.59,2.27,0.89,2.86 c0.09,0.22,0.25,0.4,0.44,0.53c0,0,0,0,0,0l1.05,0.14l2.86-3.8c4.89-7.41,9.76-14.66,14.67-22.09c0.44-0.66,1.11-1.09,1.83-1.23 c0.73-0.15,1.51-0.02,2.17,0.42c0.66,0.44,1.09,1.11,1.23,1.83c0.15,0.73,0.02,1.51-0.42,2.17L69.02,59.9l2.08,1.37l12.59-19.05 c0.44-0.66,1.11-1.09,1.83-1.23c0.73-0.15,1.51-0.02,2.17,0.41c0.66,0.44,1.09,1.11,1.23,1.83c0.15,0.73,0.02,1.51-0.42,2.17 L75.93,64.46l2.13,1.4l9.56-14.47c0.44-0.66,1.11-1.09,1.83-1.23c0.73-0.15,1.51-0.02,2.17,0.42c0.66,0.44,1.09,1.11,1.23,1.83 c0.15,0.73,0.02,1.51-0.42,2.17l-9.56,14.47l2.01,1.33l6.32-9.57c0.44-0.66,1.11-1.09,1.83-1.23c0.73-0.15,1.51-0.02,2.17,0.42 c0.66,0.44,1.09,1.11,1.23,1.84c0.15,0.73,0.02,1.51-0.42,2.17l-6.32,9.57l-0.98,1.49l-3.98,6.02c-0.04,0.07-0.09,0.14-0.13,0.21 l-5.48,8.29c-1.47,2.23-6.4,4.71-8.81,6.23c-0.2,0.12-0.34,0.3-0.44,0.5l0,0l-10.67,23.15c-0.28,0.25-0.61,0.45-0.97,0.61 c-2.26,0.99-5.88,0.45-9.66-1.03c-3.91-1.53-7.92-4.06-10.82-6.98c-1.48-1.5-2.66-3.09-3.36-4.68c-1.6-3.65-0.21-5.2,1.9-7.57 c0.27-0.31,0.56-0.62,1.02-1.16L50.39,83.23L50.39,83.23z M88.01,76.14L88.01,76.14L88.01,76.14L88.01,76.14L88.01,76.14 L88.01,76.14z"
       id="path2" /><path
     style="fill:#ffffff;fill-rule:evenodd;stroke-width:0.0157136;stroke-linejoin:round"
     d="M 15.713555,89.245882 C 11.425818,88.780254 7.5965219,87.543863 5.4112121,85.919495 4.4724596,85.221709 3.4553284,83.93594 3.4587158,83.45132 3.4596694,83.314893 4.272021,77.511037 5.2639417,70.55386 L 7.0674336,57.904449 5.427845,54.526035 C 3.6323769,50.826427 3.0221694,49.202677 2.9057835,47.814881 2.8638133,47.314424 2.752017,40.066791 2.6573473,31.709029 c -0.1293241,-11.41717 -0.127273,-15.33184 0.00825,-15.742473 0.2309851,-0.699892 1.2310374,-1.604702 2.0002814,-1.809781 1.4099569,-0.375892 2.9358933,0.534696 3.3411212,1.993782 0.097504,0.351077 0.1636082,2.842779 0.1655803,6.241258 0.00181,3.111284 0.06367,5.752167 0.1374768,5.868631 0.1038036,0.163795 0.402079,0.186647 1.3170789,0.100905 l 1.1828851,-0.110845 -0.08585,-8.979065 c -0.08539,-8.931125 -0.08407,-8.982558 0.248313,-9.6336556 0.999217,-1.9573728 3.728174,-2.0077072 4.852319,-0.089499 l 0.394701,0.6735056 0.12538,8.99202 c 0.06896,4.94561 0.131898,9.009696 0.139865,9.031302 0.008,0.02161 0.620967,0.03928 1.362222,0.03928 h 1.347737 l -0.08988,-5.46046 C 18.799156,4.2532087 18.796508,4.9367298 19.177146,4.150438 20.030572,2.3874938 22.479703,1.9901127 23.760758,3.4067283 24.469801,4.1908 24.48147,4.33788 24.581501,13.75153 c 0.05233,4.925005 0.136676,10.174321 0.187425,11.665145 l 0.09227,2.710588 h 1.332574 1.332574 l -0.08567,-0.589259 c -0.04712,-0.324092 -0.106365,-4.407652 -0.131664,-9.074577 -0.04247,-7.835005 -0.02493,-8.5238366 0.228826,-8.9878875 0.833175,-1.5236309 2.995848,-1.9413563 4.268018,-0.8243776 1.069515,0.9390463 1.009467,0.2350319 1.186548,13.9115521 0.1501,11.592757 0.378005,18.608041 0.626744,19.292207 0.0585,0.160913 0.32573,0.384803 0.593836,0.497532 0.428804,0.180299 0.565196,0.166507 1.133387,-0.114611 0.355255,-0.175768 1.735573,-1.367785 3.067369,-2.648927 2.52759,-2.431454 2.873805,-2.686125 4.056571,-2.983949 0.859853,-0.216512 1.587751,-0.02882 2.338676,0.603041 0.633145,0.532757 0.917485,1.235525 0.917331,2.267252 -1.57e-4,1.246798 -0.642925,2.445593 -2.215091,4.131445 -0.726185,0.778697 -2.273008,2.511116 -3.437386,3.849821 -3.250503,3.73716 -6.810977,7.566556 -8.365665,8.997523 l -1.405083,1.293265 1.272778,9.742404 c 0.700026,5.358322 1.420766,10.732358 1.601643,11.942302 0.410713,2.747373 0.346215,3.842002 -0.293603,4.983013 -1.162011,2.072255 -4.464945,3.798686 -8.685039,4.539635 -2.091523,0.367223 -6.418069,0.515709 -8.485319,0.291215 z"
     id="path900" /><path
     style="fill:#ffffff;fill-rule:evenodd;stroke-width:0.0157136;stroke-linejoin:round"
     d="m 53.504654,120.34878 c -3.094941,-0.44599 -7.451333,-2.26855 -10.999694,-4.60189 -4.480591,-2.94635 -7.492665,-6.38607 -8.467447,-9.66963 -0.63498,-2.13894 -0.169616,-3.37462 2.337468,-6.206676 0.617389,-0.697416 3.903407,-4.55609 7.302264,-8.574832 3.398856,-4.018741 6.321605,-7.464035 6.494997,-7.656209 l 0.315257,-0.349408 -0.407756,-1.536219 c -0.574844,-2.165722 -1.256767,-5.784887 -1.917867,-10.178675 -0.312088,-2.074189 -0.78219,-5.071318 -1.044672,-6.660287 -0.515117,-3.118332 -0.507666,-3.802718 0.05441,-4.998491 0.624923,-1.329466 2.031853,-2.116233 3.20506,-1.792295 1.517647,0.419043 2.309175,1.749723 3.047247,5.122889 0.615,2.810703 1.201258,4.593407 1.576649,4.794311 0.159763,0.0855 0.527094,0.155459 0.816291,0.155459 0.489741,0 0.62409,-0.132047 1.958478,-1.92491 0.787965,-1.058701 4.793001,-6.986586 8.90008,-13.173077 4.107077,-6.186491 7.645233,-11.364679 7.862571,-11.507084 0.931801,-0.610539 2.356459,-0.582894 3.264008,0.06334 0.913733,0.650634 1.387811,2.410828 0.898303,3.335286 -0.09996,0.188774 -2.296184,3.548023 -4.880504,7.464997 -2.584319,3.916974 -4.733435,7.212126 -4.775813,7.322558 -0.04579,0.119324 0.34424,0.475269 0.961329,0.877318 0.887248,0.578064 1.069367,0.644381 1.251303,0.45565 0.11711,-0.121483 2.875012,-4.251406 6.12867,-9.177605 3.25366,-4.926199 6.133695,-9.265243 6.400077,-9.642318 0.852679,-1.207004 2.238365,-1.576739 3.542755,-0.945295 1.238922,0.599753 1.892608,2.144555 1.403157,3.315974 -0.130711,0.312837 -3.038806,4.816794 -6.462435,10.008795 -3.423627,5.192 -6.260841,9.533985 -6.304921,9.648854 -0.04981,0.129802 0.338554,0.487269 1.026056,0.944427 l 1.1062,0.735574 2.095688,-3.183185 c 6.527818,-9.915244 7.641684,-11.557607 8.100053,-11.943299 0.695702,-0.585394 1.578367,-0.804039 2.377354,-0.588895 1.398691,0.376628 2.394869,1.894452 2.093552,3.189832 -0.103746,0.446002 -1.739157,3.059737 -5.052892,8.075587 -2.694725,4.078885 -4.8995,7.4527 -4.8995,7.497368 0,0.116194 1.839612,1.350008 2.012856,1.350008 0.07946,0 1.645003,-2.260706 3.478984,-5.023792 3.404064,-5.128579 3.714895,-5.497755 4.826673,-5.732639 1.05322,-0.222515 2.445936,0.492425 2.983215,1.53141 0.315664,0.610424 0.319179,1.804995 0.0071,2.408514 -0.132608,0.256434 -3.69778,5.695769 -7.922606,12.087411 -4.224825,6.391641 -8.079335,12.225565 -8.565578,12.964275 -1.392064,2.11485 -2.743302,3.201998 -7.288426,5.863953 -1.133574,0.663904 -2.170099,1.329175 -2.303387,1.478382 -0.133289,0.149206 -2.655654,5.510369 -5.605258,11.913709 l -5.362913,11.64243 -0.678711,0.33897 c -1.241437,0.62 -2.830542,0.77587 -4.887715,0.47943 z"
     id="path939" /></svg>
