<svg  xmlns="http://www.w3.org/2000/svg"
  viewBox="0 0 122.88 122.88" ><g
     id="g6"><path
       class="st0"
       d="M101.08,84.71V57.73H88.94c-5.15,0.92-10.29,3.71-15.44,6.95h-9.43c-4.27,0.26-6.5,4.58-2.36,7.42 c3.31,2.42,7.67,2.29,12.14,1.89c3.08-0.15,3.22,3.99,0,4.01c-1.12,0.09-2.33-0.18-3.39-0.18c-5.58-0.01-10.18-1.07-12.99-5.48 l-1.41-3.3l-14.02-6.95c-7.02-2.31-12,5.03-6.83,10.13c10.16,7.39,20.57,13.47,31.23,18.38c7.74,4.71,15.48,4.55,23.21,0 L101.08,84.71L101.08,84.71z M78.32,42.94c0.96,4.46,3.85,6.69,3.85,8.92c0,2.23-0.96,4.46-3.85,4.46c-2.88,0-3.85-2.23-3.85-4.46 C74.47,49.63,77.36,47.4,78.32,42.94L78.32,42.94z M76.21,22.32c0.96,4.84,3.85,7.26,3.85,9.68c0,2.42-0.96,4.84-3.85,4.84 s-3.85-2.42-3.85-4.84C72.37,29.58,75.25,27.16,76.21,22.32L76.21,22.32z M63.08,18.72L74.16,8.7l4.22,5.65L67.22,24.3L63.08,18.72 L63.08,18.72z M122.88,55.14h-18.15v32.29h18.15V55.14L122.88,55.14z M25.33,50.81l48.7-48.39c-3.36-2.97-9.3-3.14-13.99-0.87 L25.98,26.1h-3.94v-6.01H7.72v6.67c-9.92,4.06-10.67,21.37,0,26.05L25.33,50.81L25.33,50.81z M11.84,5.03h5.71 c2.89,0,5.26,2.37,5.26,5.26v7.29H6.52v-7.23C6.52,7.42,8.91,5.03,11.84,5.03L11.84,5.03z"
       id="path4" /></g><path
     style="fill:#000000;fill-rule:evenodd;stroke-width:0.0240614;stroke-linejoin:round"
     d="M 73.192841,93.317704 C 70.092371,92.56566 56.888611,85.929935 48.996648,81.157585 42.897076,77.469111 36.829751,73.382997 35.168686,71.844974 c -1.811797,-1.677588 -2.402595,-4.206455 -1.48243,-6.345435 1.066088,-2.478189 3.326802,-3.797979 6.182855,-3.609512 1.527924,0.100826 2.116811,0.343512 8.855187,3.649311 l 7.218414,3.541303 0.819043,1.93986 c 1.399,3.313458 3.856454,5.300995 7.818916,6.323778 0.780749,0.201526 3.247964,0.476201 5.482699,0.610391 3.366774,0.202164 4.202671,0.185685 4.877201,-0.09615 0.898416,-0.375383 1.334008,-0.998844 1.334008,-1.909363 0,-1.813328 -0.76661,-2.11101 -4.973757,-1.931359 -3.676172,0.156978 -5.957877,-0.17209 -7.979687,-1.150832 -1.313424,-0.635817 -2.824869,-1.952773 -3.303565,-2.878467 -0.834567,-1.613876 -0.08807,-3.466986 1.829492,-4.54154 1.036384,-0.580763 1.264546,-0.605776 6.607568,-0.724351 l 5.534118,-0.122817 2.285831,-1.39746 c 2.559402,-1.564711 5.829929,-3.195082 8.183938,-4.079727 3.176329,-1.193676 4.604076,-1.375287 10.8119,-1.375287 h 5.787383 l -0.001,13.41422 -10e-4,13.41422 -2.585189,1.326822 c -12.783015,6.560766 -13.165023,6.741092 -15.549027,7.339849 -3.054843,0.767246 -6.757014,0.795893 -9.727921,0.07528 z"
     id="path902" /><path
     style="fill:#000000;fill-rule:evenodd;stroke-width:0.0240614;stroke-linejoin:round"
     d="M 104.90762,71.341996 V 55.341178 h 8.90271 8.90272 v 16.000818 16.000819 h -8.90272 -8.90271 z"
     id="path941" /><path
     style="fill:#000000;fill-rule:evenodd;stroke-width:0.0240614;stroke-linejoin:round"
     d="m 77.178475,56.016987 c -1.060752,-0.284568 -1.989636,-1.297338 -2.33699,-2.548039 -0.510968,-1.839818 -0.445949,-2.06479 1.68415,-5.827413 0.636812,-1.124869 1.293204,-2.512472 1.458648,-3.083562 l 0.300808,-1.038344 0.51551,1.399265 c 0.28353,0.769596 1.080127,2.373751 1.770217,3.56479 1.467923,2.533518 1.585083,2.901864 1.372945,4.316502 -0.3731,2.48801 -2.394776,3.852739 -4.765288,3.216801 z"
     id="path980" /><path
     style="fill:#000000;fill-rule:evenodd;stroke-width:0.0240614;stroke-linejoin:round"
     d="m 75.184286,36.565832 c -1.611923,-0.485393 -2.591949,-2.059099 -2.617591,-4.203274 -0.01563,-1.30659 0.106537,-1.67217 1.286452,-3.849821 0.717043,-1.323376 1.543769,-3.091085 1.837169,-3.928243 l 0.533453,-1.522106 0.418593,1.281492 c 0.230227,0.70482 1.05373,2.502075 1.830009,3.9939 1.199334,2.304837 1.411416,2.902774 1.411416,3.979298 0,1.462356 -0.746037,3.149307 -1.684297,3.808559 -0.7592,0.533439 -2.070037,0.724811 -3.015204,0.440195 z"
     id="path1019" /><path
     style="fill:#000000;fill-rule:evenodd;stroke-width:0.0240614;stroke-linejoin:round"
     d="m 65.253575,21.405644 -1.966298,-2.623948 1.139994,-1.053381 c 4.334582,-4.005256 9.487246,-8.58499 9.658982,-8.58499 0.11281,0 0.83281,0.8391407 1.599999,1.864757 0.767189,1.025616 1.644079,2.196609 1.948645,2.602206 l 0.553755,0.737449 -4.850643,4.307665 c -2.667853,2.369216 -5.135829,4.547633 -5.48439,4.840928 l -0.633746,0.533262 z"
     id="path1058" /><path
     style="fill:#000000;fill-rule:evenodd;stroke-width:0.0240614;stroke-linejoin:round"
     d="M 6.0814266,51.728212 C 5.2575769,51.184466 4.1426988,50.232005 3.6039197,49.611633 2.3826658,48.205433 0.85136189,45.080865 0.48241511,43.242323 0.09295297,41.301547 0.15165078,37.690768 0.60060724,35.971765 1.5608213,32.295218 3.9778877,28.898251 6.6136061,27.52104 l 1.3255064,-0.6926 5.717e-4,-3.30844 5.717e-4,-3.30844 h 6.9778011 6.9778 v 3.007673 3.007673 l 2.105371,-0.007 2.105371,-0.007 17.154596,-12.368655 C 61.711994,0.5411115 61.434754,0.71388435 65.024428,0.28172848 67.93849,-0.06909143 71.528624,0.65476777 73.1466,1.9193583 l 0.601534,0.470152 -7.819949,7.8439947 C 61.627213,14.547703 50.691316,25.419339 41.62619,34.392696 L 25.144144,50.707894 17.324195,51.5881 c -4.300972,0.484115 -8.2530542,0.936127 -8.7824046,1.004474 -0.8320875,0.107436 -1.1653521,-0.0096 -2.4603638,-0.864362 z"
     id="path1097" /><path
     style="fill:#000000;fill-rule:evenodd;stroke-width:0.0240614;stroke-linejoin:round"
     d="m 6.7371868,13.346338 c 0,-4.7510981 0.1259194,-5.2853924 1.5779845,-6.69562 1.3819702,-1.3421524 2.7916037,-1.6595066 6.9286357,-1.5598611 3.085854,0.074327 3.531604,0.1408827 4.58016,0.6838747 0.674525,0.3493012 1.47857,1.0399058 1.917515,1.6469772 l 0.75591,1.0454428 0.07474,4.5488284 0.07474,4.548829 H 14.692027 6.7371868 Z"
     id="path1136" /></svg>
