<svg  xmlns="http://www.w3.org/2000/svg"
  viewBox="0 0 122.88 122.88" ><path
       class="st0"
       d="M60.83,17.19C68.84,8.84,74.45,1.62,86.79,0.21c23.17-2.66,44.48,21.06,32.78,44.41 c-3.33,6.65-10.11,14.56-17.61,22.32c-8.23,8.52-17.34,16.87-23.72,23.2l-17.4,17.26L46.46,93.56C29.16,76.9,0.95,55.93,0.02,29.95 C-0.63,11.75,13.73,0.09,30.25,0.3C45.01,0.5,51.22,7.84,60.83,17.19L60.83,17.19L60.83,17.19z"
       id="path4" /><path
     style="fill:#f2f2f2;fill-rule:evenodd;stroke-width:0.0274706;stroke-linejoin:round"
     d="M 54.095211,100.63493 C 50.405567,97.083699 43.616428,90.7024 39.008237,86.45426 21.683694,70.483334 14.780334,63.141363 9.119456,54.666472 4.8040259,48.205849 1.7023314,40.857331 0.67746107,34.665746 0.04416004,30.839761 0.22871101,24.436631 1.0618305,21.329763 3.6612669,11.635952 11.320911,4.2269004 21.564412,1.4979445 23.760176,0.91297448 25.160551,0.73672722 28.542362,0.61971968 34.997396,0.39638156 39.293673,1.2256221 44.059515,3.6147455 c 4.167187,2.0890147 6.879352,4.2066309 12.766772,9.9680885 l 3.945403,3.86099 3.609009,-3.738875 C 71.534538,6.293687 75.212756,3.5839999 80.626179,1.7371508 84.883382,0.28475895 91.174443,-0.14875403 95.938338,0.68199963 105.84795,2.4100912 114.96369,9.1783831 119.52206,18.192536 c 4.42777,8.755913 4.18749,18.650738 -0.66558,27.408642 -4.08305,7.368326 -12.62526,17.248473 -26.417947,30.555715 -3.777206,3.644265 -12.440274,12.095429 -19.251263,18.78037 L 60.803652,107.0917 Z"
     id="path902" /></svg>
