<svg  xmlns="http://www.w3.org/2000/svg"
  viewBox="0 0 122.88 122.88" >
  <path
     class="cls-1"
     d="M29.73,20.38C44.68,1.91,61.9-8.13,74.84,8.3c14.87.78,21.24,23.34,11,34.47a4.27,4.27,0,0,1,2,.47,3.51,3.51,0,0,1,1.67,2.1,6.82,6.82,0,0,1-.13,3.77l-.06.18c-.18.53-.34,1.23-.5,1.94-.69,3-1.44,6.24-4.83,6.06l-.54-.06c-.12,6-2.95,8.8-6.7,12.33l0,.16-.24.28a43.25,43.25,0,0,0,3.3,4.41h0c6.64,6,23.76,7.18,31.07,11.26A19.3,19.3,0,0,1,117,90.81c4.2,5.55,4.88,11.42,5.72,18.12a5.47,5.47,0,0,1,.18,1.39,1.67,1.67,0,0,1-1.67,1.67H1.67A1.67,1.67,0,0,1,0,110.32a6.05,6.05,0,0,1,.18-1.41C1,102.22,1.7,96.36,5.91,90.81A19.16,19.16,0,0,1,12,85.66c7.08-4,23.2-5.2,30.4-10.7a28.41,28.41,0,0,0,1.37-2.76c.58-1.34,1.13-2.76,1.58-4a15.41,15.41,0,0,1-5.55-11h-.34a4.7,4.7,0,0,1-2.27-.6,6.54,6.54,0,0,1-2.85-4.56,23,23,0,0,1-.1-7.28l.09-.34a4.19,4.19,0,0,1,2.12-2.76c-.39-7.37.86-19-6.71-21.34ZM74.83,72l-.73.88-.67.62a20,20,0,0,1-25.2-1.72l-.62-.58,0,.11,0-.1-.42-.57c-.32.84-.67,1.7-1,2.53a24.5,24.5,0,0,1-2,3.76c7.06,14.31,27.92,14.81,34.68.09a35.74,35.74,0,0,1-4-5ZM57.5,37.81c1.59.6,1.93,1.93,1,2.43s-2.36-.29-3.38-.61c-2.66-.85-5.83-1-8.12.49a12.4,12.4,0,0,0-1.88,1.47,6.61,6.61,0,0,1,1.14-2.28c2.31-2.91,8.12-3.08,11.21-1.5Zm-8.29,5.71a.65.65,0,0,1-.84-.46.79.79,0,0,1,.41-1,10.93,10.93,0,0,1,7.94,0,.78.78,0,0,1,.43.93.64.64,0,0,1-.82.48c-.43-.15-.88-.28-1.31-.39a2.07,2.07,0,0,1,.07.49,1.84,1.84,0,1,1-3.68,0,1.78,1.78,0,0,1,.14-.7,9.6,9.6,0,0,0-2.34.6Zm17-5.71c-1.59.6-1.92,1.93-1,2.43,1,.59,2.36-.29,3.38-.61,2.66-.85,5.82-1,8.13.49a12.87,12.87,0,0,1,1.87,1.47,6.61,6.61,0,0,0-1.14-2.28c-2.31-2.91-8.12-3.08-11.21-1.5Zm3,5.16a1.75,1.75,0,0,0-.13.65,1.84,1.84,0,1,0,3.49-.81,12,12,0,0,1,2.43.53.64.64,0,0,0,.81-.51.78.78,0,0,0-.45-.92,12.59,12.59,0,0,0-4-.65,12.34,12.34,0,0,0-3.92.65.77.77,0,0,0-.45.93.64.64,0,0,0,.81.5A14.1,14.1,0,0,1,69.23,43ZM45.3,63.8l0-.68-.05-.1A30.12,30.12,0,0,1,44,55.12a1.34,1.34,0,0,1,0-.35L39.85,45h0c-1.4-.48-2.28-.65-2.69.35a19.31,19.31,0,0,0,.08,6.1,3.82,3.82,0,0,0,1.42,2.6,1.72,1.72,0,0,0,.84.22,4.4,4.4,0,0,0,1.22-.21,1.55,1.55,0,0,1,.43-.07,1.47,1.47,0,0,1,1.51,1.44A13.49,13.49,0,0,0,45.3,63.8ZM42.64,45.64,46,53.5h0a46.67,46.67,0,0,1,15.6-3.37,34.74,34.74,0,0,1,15.64,3.24l3.54-7.83,0-.11c1.39-8.15.75-13.47-1-17.09a14.56,14.56,0,0,0-6.58-6.53l-.43.31A15.77,15.77,0,0,1,62.3,26.86c-1,.19-2.07.31-3.08.44-3.4.42-6.79.84-11.27,3.94a10.77,10.77,0,0,0-4.27,5.34,13.45,13.45,0,0,0-.19,7.29,1.49,1.49,0,0,1,0,.91,1.51,1.51,0,0,1-.82.86Zm40,1.48-3.38,7.45a.36.36,0,0,1,0,.09,1.15,1.15,0,0,1,.08.41A25.79,25.79,0,0,1,78,63.88l0,.24a11.63,11.63,0,0,0,2.52-9,1.45,1.45,0,0,1,.24-.94,1.47,1.47,0,0,1,2-.42,4,4,0,0,0,.79.41,2.19,2.19,0,0,0,.62.14h0c.91.05,1.37-1.95,1.79-3.76.18-.79.36-1.56.59-2.25a4.18,4.18,0,0,0,.16-2.11.58.58,0,0,0-.27-.37,1.3,1.3,0,0,0-.75-.1,5.2,5.2,0,0,0-2.5,1.11,1.88,1.88,0,0,1-.55.27Z"
     id="path8" />
  <path
     style="fill:#F70B0B;fill-rule:evenodd;stroke-width:0.14321;stroke-miterlimit:4.5"
     d="m 1.3979591,111.88801 c -0.2156892,-0.033 -0.58624437,-0.25401 -0.82345582,-0.49122 -0.55608051,-0.55608 -0.5560056,-0.84596 0.001284,-4.96738 C 1.3151946,100.96115 2.1445714,97.754694 3.5774875,94.824533 6.0288034,89.811851 9.5484064,86.545972 14.678996,84.523318 c 2.35924,-0.930093 3.341748,-1.210818 13.390108,-3.825857 6.371648,-1.658193 10.476738,-3.1656 13.122351,-4.818585 1.224412,-0.765015 1.225331,-0.766044 1.927356,-2.158076 0.611953,-1.213427 1.915479,-4.312962 2.194529,-5.218168 0.07766,-0.251905 -0.100023,-0.505568 -0.952958,-1.360492 -2.382246,-2.387805 -4.016425,-5.727961 -4.366828,-8.925513 l -0.109648,-1.000589 -0.761642,-0.109517 c -1.250303,-0.179781 -2.095925,-0.630715 -2.986375,-1.592508 -1.559921,-1.684901 -1.955455,-3.185886 -1.967715,-7.467153 -0.0066,-2.311965 0.03897,-3.01782 0.236437,-3.660985 0.294479,-0.959125 0.931915,-1.87661 1.609515,-2.316635 l 0.498327,-0.323608 -0.07464,-3.437033 C 36.23701,29.061621 35.576534,25.626849 33.463304,22.839842 32.691783,21.822329 32.054273,21.298952 30.84576,20.690914 l -0.894031,-0.449813 1.740043,-2.065004 c 2.158027,-2.561049 6.176928,-6.680578 8.550155,-8.76424 9.079526,-7.9717001 17.552029,-10.8862768 24.68511,-8.4917807 2.683678,0.9008806 4.956142,2.3683033 7.32904,4.7326568 0.950835,0.947412 1.926907,1.9542832 2.169048,2.2374916 0.403759,0.4722366 0.521774,0.5225618 1.423571,0.6070536 6.600885,0.618455 12.449401,6.7621697 14.2896,15.0108577 1.513384,6.783741 0.180476,13.529843 -3.612961,18.28588 -0.628052,0.787424 -0.715609,0.961912 -0.501234,0.998899 2.245198,0.387368 3.383426,1.54638 3.573816,3.639073 0.09421,1.035521 0.02683,1.415313 -0.867688,4.89096 -0.726262,2.821886 -1.239599,4.057592 -2.018979,4.860094 -0.684111,0.704408 -1.386184,0.991796 -2.449075,1.002509 l -0.875997,0.0088 -0.08934,1.16235 c -0.270592,3.520314 -1.663804,6.208394 -4.91524,9.483535 -0.959332,0.966327 -1.781779,1.875234 -1.827661,2.019793 -0.09158,0.288552 0.758102,1.584057 2.316387,3.531771 2.527486,3.159123 7.159548,5.18019 18.225865,7.952329 7.301591,1.829068 10.605931,2.857235 13.030771,4.054611 4.56981,2.25655 7.89039,5.935265 9.87233,10.937063 1.09966,2.775201 1.69359,5.522587 2.58668,11.965507 0.32932,2.37581 0.25648,2.84834 -0.51722,3.3553 -0.38524,0.25242 -2.53693,0.26228 -60.339058,0.27652 -32.966762,0.008 -60.1160416,-0.0122 -60.3317309,-0.0451 z M 64.685344,87.708778 c 5.925149,-0.879801 10.608992,-4.098071 13.598088,-9.343254 0.343816,-0.603321 0.625121,-1.169076 0.625121,-1.257233 0,-0.08816 -0.4234,-0.637495 -0.940889,-1.220749 -0.51749,-0.583256 -1.433606,-1.7279 -2.035816,-2.543653 l -1.094924,-1.483187 -0.566326,0.670941 c -0.735657,0.871554 -1.888339,1.644571 -3.863013,2.590635 -3.047149,1.459882 -5.736797,2.006656 -9.253111,1.881043 -1.223022,-0.04369 -2.690784,-0.183311 -3.261694,-0.310269 -3.648182,-0.811279 -7.002497,-2.56984 -9.647032,-5.057627 -1.089074,-1.024523 -1.130969,-1.048672 -1.256443,-0.724228 -0.918394,2.374711 -1.816714,4.301245 -2.539515,5.446237 l -0.345086,0.54665 0.417187,0.823223 c 1.127863,2.225578 3.827665,5.232923 6.032276,6.719434 4.182255,2.819981 9.242099,3.987995 14.131177,3.262037 z M 78.757918,63.205564 c 1.382175,-2.102289 1.90062,-3.989436 1.88863,-6.874639 -0.0076,-1.822747 0.0038,-1.895418 0.349717,-2.24137 0.551553,-0.551554 1.003358,-0.600677 1.786704,-0.194263 1.01381,0.525984 1.527875,0.604701 1.878253,0.287613 0.484246,-0.438238 0.674104,-0.946154 1.414134,-3.783174 0.719436,-2.758066 0.889245,-4.192615 0.53788,-4.54398 -0.262838,-0.262838 -1.401639,-0.198877 -2.099849,0.117942 -0.343635,0.155925 -0.930454,0.481564 -1.304041,0.723641 -0.668867,0.43341 -0.70497,0.496998 -2.361544,4.159283 -1.393363,3.080392 -1.667544,3.797976 -1.596422,4.178146 0.226157,1.208869 -0.339687,5.45534 -1.053407,7.905452 -0.461423,1.584007 -0.343701,1.639793 0.559945,0.265349 z M 44.988015,61.684155 C 44.48062,59.626677 44.28388,58.365844 44.121235,56.129294 l -0.119119,-1.637997 -2.041573,-4.772215 c -2.238995,-5.233689 -2.063392,-4.971904 -3.445529,-5.136513 -0.555885,-0.0662 -0.715351,-0.02398 -1.073732,0.284282 l -0.420889,0.362034 -0.0516,2.239372 c -0.08287,3.596248 0.321445,5.465248 1.384136,6.398303 l 0.509393,0.447253 1.425561,-0.09819 c 1.417666,-0.09764 1.427832,-0.09601 1.835484,0.294548 0.31917,0.305785 0.410012,0.521549 0.410327,0.97458 7.17e-4,1.134586 0.319885,3.175293 0.673206,4.3053 0.372897,1.192619 1.288927,3.090837 1.81318,3.757319 0.470802,0.598527 0.462984,0.144172 -0.03206,-1.86322 z m 2.431908,-8.631636 c 1.860094,-0.709839 4.360004,-1.417967 6.752698,-1.912776 7.79839,-1.612712 14.574321,-1.112415 21.28876,1.571845 0.978992,0.391377 1.822374,0.661918 1.874184,0.601208 0.05181,-0.06071 0.874235,-1.850385 1.827611,-3.977049 l 1.733413,-3.866662 0.319901,-2.434565 c 0.420843,-3.20279 0.450884,-7.867537 0.06456,-10.02468 -0.747184,-4.172076 -2.464363,-7.261753 -5.280168,-9.500473 -0.992396,-0.78901 -2.512832,-1.740559 -2.782058,-1.741122 -0.09689,-1.43e-4 -0.611684,0.394324 -1.143993,0.876724 -1.281507,1.161351 -2.376176,1.890953 -3.961049,2.640053 -1.612433,0.762126 -2.985245,1.150024 -5.029899,1.421239 -0.866419,0.114925 -2.574195,0.340021 -3.795058,0.50021 -5.69209,0.746855 -8.683701,1.874234 -12.305864,4.637422 -1.69197,1.290729 -3.185918,3.685392 -3.675734,5.891867 -0.324976,1.463917 -0.328457,4.176139 -0.0072,5.618315 0.259141,1.163367 0.182965,1.552415 -0.392614,2.005164 l -0.363324,0.285792 1.646223,3.83578 c 1.661601,3.871596 1.755823,4.079623 1.8478,4.079623 0.02798,0 0.649802,-0.228562 1.381832,-0.507915 z"
     id="path865" />
  <path
     style="fill:none;stroke:#000000;stroke-width:0.1;stroke-linecap:butt;stroke-linejoin:miter;stroke-opacity:1;stroke-miterlimit:4;stroke-dasharray:none"
     d="m 85.84,42.77 -3.2,4.35"
     id="path1146" />
  <path
     style="fill:none;stroke:#000000;stroke-width:0.1;stroke-linecap:butt;stroke-linejoin:miter;stroke-opacity:1;stroke-miterlimit:4;stroke-dasharray:none"
     d="M 82.64,47.12 80.78,45.54"
     id="path1148" />
  <path
     style="fill:none;stroke:#000000;stroke-width:1px;stroke-linecap:butt;stroke-linejoin:miter;stroke-opacity:1"
     d="m 85.84,42.77 v 0 0"
     id="path1154" />
  <path
     style="fill:none;stroke:#000000;stroke-width:0.1;stroke-linecap:butt;stroke-linejoin:miter;stroke-opacity:1;stroke-miterlimit:4;stroke-dasharray:none"
     d="M 36.512453,41.745632 39.85,45 l 2.82,0.64"
     id="path1429" />
  <path
     style="fill:none;stroke:#000000;stroke-width:0.1;stroke-linecap:butt;stroke-linejoin:miter;stroke-opacity:1;stroke-miterlimit:4;stroke-dasharray:none"
     d="m 45.3,63.8 2.31,7.4 v 0.11"
     id="path1579" />
  <path
     style="fill:#1a1a1a;stroke:#000000;stroke-width:0.1;stroke-linecap:butt;stroke-linejoin:round;stroke-opacity:1;stroke-miterlimit:4;stroke-dasharray:none"
     d="M 78,64.12 C 76.943126,66.747182 75.88646,69.373847 74.83,72"
     id="path1581" />
  <path
     style="fill:#1a1a1a;fill-rule:evenodd;stroke-width:0.0176777;stroke-linejoin:round;stroke-miterlimit:4;stroke-dasharray:none"
     d="m 81.784048,46.185188 c -0.672853,-0.542487 -0.809517,-0.746711 -0.740875,-1.107131 0.607971,-3.192253 0.728366,-10.329674 0.21465,-12.725145 -0.645916,-3.011916 -1.898706,-5.555881 -3.710821,-7.535338 -1.070819,-1.169703 -3.721642,-3.074041 -4.279044,-3.074041 -0.176079,0 -0.763836,0.38283 -1.306129,0.850733 -3.127579,2.698549 -5.090391,3.451857 -11.337124,4.351079 -6.832085,0.983483 -9.062604,1.681247 -12.304793,3.849256 -2.208117,1.476536 -3.206994,2.577576 -4.217747,4.649126 -1.132943,2.32198 -1.381609,4.373201 -0.935943,7.720521 0.200386,1.50507 0.193473,1.589419 -0.159158,1.942049 -0.361913,0.361913 -0.392362,0.363359 -1.667893,0.07926 -1.26838,-0.282505 -1.339836,-0.328172 -3.007464,-1.922014 L 36.623493,41.63091 36.434491,36.57712 c -0.103951,-2.779581 -0.314271,-5.951921 -0.467376,-7.04964 -0.629193,-4.511126 -2.1836,-7.369732 -4.764383,-8.761863 -0.534975,-0.288577 -0.972959,-0.568772 -0.973299,-0.622655 -0.0014,-0.215224 4.146318,-4.81798 6.377472,-7.077205 4.815889,-4.8764774 8.841178,-7.951563 13.377434,-10.2195767 6.379335,-3.18950601 11.86835,-3.47403757 17.078819,-0.8853067 1.974382,0.9809376 2.897838,1.6930789 5.503675,4.2442668 l 2.298097,2.2499017 1.383407,0.2060237 c 6.835083,1.017914 12.283373,7.2382362 14.019157,16.0056962 0.426129,2.152379 0.427918,6.311418 0.0036,8.453039 -0.386888,1.952879 -1.298577,4.529152 -2.126981,6.010477 -0.457572,0.818216 -5.033554,7.215597 -5.488867,7.673629 -0.02541,0.02556 -0.417463,-0.252865 -0.871237,-0.618719 z"
     id="path1772" />
  <path
     style="fill:#1a1a1a;fill-rule:evenodd;stroke-width:0.0176777;stroke-linejoin:round;stroke-miterlimit:4;stroke-dasharray:none"
     d="M 2.7457327,111.77585 C 0.17375763,111.66574 0.04146101,111.40482 0.54230211,107.43017 1.246404,101.84245 2.2133515,97.952856 3.6280839,95.017473 5.7465536,90.621928 8.6996226,87.564999 12.81631,85.506092 c 2.334482,-1.167561 4.544446,-1.882212 11.558636,-3.737804 3.462695,-0.91605 7.250405,-1.953702 8.417131,-2.305894 4.397573,-1.327466 8.589397,-3.257583 9.617248,-4.428239 0.467983,-0.533003 2.132692,-4.063879 2.762592,-5.859499 l 0.321788,-0.917305 -1.047513,-1.173256 c -2.436284,-2.728734 -3.699174,-5.1741 -4.232982,-8.196417 -0.143922,-0.814861 -0.261677,-1.540526 -0.261677,-1.612591 0,-0.07207 -0.31943,-0.182107 -0.709845,-0.244536 -1.294479,-0.206996 -2.094913,-0.654355 -3.085818,-1.724649 -0.777688,-0.839996 -1.051149,-1.303174 -1.372038,-2.323905 -0.362012,-1.151542 -0.400765,-1.625239 -0.400765,-4.898736 0,-4.085029 0.09964,-4.478926 1.427937,-5.64519 l 0.653271,-0.57358 1.308056,1.297424 1.308054,1.297424 -0.757349,0.0565 c -1.392415,0.103882 -1.419595,0.183978 -1.329691,3.918554 0.08698,3.613029 0.217882,4.224878 1.132543,5.293452 l 0.587201,0.686012 1.420227,-0.09735 c 1.293739,-0.08867 1.457144,-0.06266 1.834723,0.292054 0.341087,0.320433 0.436637,0.643221 0.539514,1.822578 0.219151,2.512306 1.190332,5.473369 2.273286,6.931094 0.504804,0.679496 2.541301,7.159681 2.30078,7.321138 -0.09479,0.06363 -0.391682,0.672535 -0.659771,1.353125 -0.268089,0.68059 -0.917496,2.063948 -1.443127,3.074129 l -0.955694,1.836692 0.530069,0.991735 c 1.858692,3.477534 5.700926,6.932468 9.438892,8.487451 5.148761,2.141869 11.158978,2.051863 16.122532,-0.241438 3.431018,-1.585229 6.627086,-4.677902 8.458289,-8.184661 0.54466,-1.043026 0.613408,-0.826848 -0.800374,-2.516762 -1.265704,-1.512912 -2.642294,-3.391274 -2.642787,-3.606091 -0.0011,-0.491194 2.953732,-7.502979 3.500585,-8.306781 1.438766,-2.114789 1.938304,-3.744399 2.092262,-6.825458 0.09413,-1.883665 0.163741,-2.268397 0.471805,-2.607456 0.446446,-0.491366 0.738074,-0.496765 1.786326,-0.03307 1.219579,0.539478 1.702013,0.419492 2.177039,-0.54145 0.665195,-1.345638 1.662213,-5.574165 1.602979,-6.798501 l -0.05168,-1.068062 -0.747449,-0.05417 c -0.473309,-0.0343 -1.048866,0.07916 -1.569268,0.30936 -0.452,0.199941 -0.854613,0.363529 -0.894693,0.363529 -0.09631,0 1.836446,-2.643693 2.251724,-3.079985 0.293321,-0.308163 0.394631,-0.318947 1.083571,-0.11535 1.758762,0.519755 2.605648,1.739458 2.612272,3.762254 0.0039,1.197079 -0.794562,4.727414 -1.57256,6.952779 -0.754025,2.156796 -2.022094,3.26368 -3.738931,3.26368 h -0.821036 l -0.117219,1.26123 c -0.164657,1.771647 -0.411674,2.682714 -1.167817,4.307238 -0.807138,1.734082 -1.756296,3.021499 -3.863844,5.240834 -0.890673,0.937913 -1.619405,1.857046 -1.619405,2.042516 0,0.776743 2.393339,3.927427 3.924469,5.166322 1.887871,1.527547 5.239131,3.070272 9.454774,4.352432 1.148794,0.349397 4.674077,1.311748 7.83396,2.138557 6.906078,1.807031 9.973398,2.785994 12.304368,3.927047 6.03858,2.955998 9.73806,8.244384 11.38074,16.268694 0.56258,2.74814 1.30852,8.38624 1.17822,8.90541 -0.0661,0.2634 -0.33419,0.61914 -0.59574,0.79051 -0.45164,0.29595 -3.41956,0.31241 -59.084801,0.32783 -32.235098,0.009 -59.3226532,-0.0143 -60.1945663,-0.0516 z"
     id="path1848" />
  <path
     style="fill:#ffffff;fill-rule:evenodd;stroke-width:0.0176777;stroke-linejoin:round;stroke-miterlimit:4;stroke-dasharray:none"
     d="M 60.192465,87.673346 C 55.846529,87.305088 51.750738,85.513447 48.594214,82.59987 47.277487,81.384488 45.694168,79.432734 44.902617,78.049247 l -0.574331,-1.003827 0.89196,-1.708963 c 0.775081,-1.485027 1.103082,-2.216149 1.807683,-4.029371 0.137274,-0.353262 0.207947,-0.318103 1.175219,0.58466 3.910612,3.649807 9.27575,5.581485 14.729355,5.303194 4.211583,-0.214911 8.959335,-2.006931 11.14028,-4.204854 l 0.807896,-0.814184 0.554268,0.837614 c 0.304848,0.460687 1.172936,1.574985 1.929084,2.476217 l 1.374817,1.638604 -0.500916,0.901228 c -1.433728,2.579506 -3.611387,5.035 -5.723119,6.453298 -2.525927,1.696482 -5.926919,2.932056 -8.573569,3.114761 -0.797874,0.05508 -1.649556,0.121612 -1.892624,0.14785 -0.243068,0.02624 -1.078338,-0.0062 -1.856155,-0.07213 z"
     id="path1961" />
  <path
     style="fill:#ffffff;fill-rule:evenodd;stroke-width:0.0176777;stroke-linejoin:round;stroke-miterlimit:4;stroke-dasharray:none"
     d="m 44.429852,49.576773 -1.620478,-3.804952 0.445394,-0.445394 c 0.344422,-0.344423 0.426435,-0.573342 0.361768,-1.009795 -0.535586,-3.614799 -0.551924,-3.947689 -0.276471,-5.633204 0.687899,-4.209305 3.118444,-6.981696 8.214434,-9.369757 2.006253,-0.940162 4.047581,-1.426253 8.372801,-1.993773 4.718493,-0.619121 6.421141,-1.001055 8.219439,-1.843766 1.710567,-0.801599 2.778951,-1.505892 4.102165,-2.704199 0.917133,-0.830561 0.959821,-0.848436 1.427166,-0.597602 2.594193,1.392359 5.278653,4.358866 6.354316,7.02194 1.447557,3.583789 1.742813,7.703541 0.992523,13.848854 l -0.280578,2.298097 -1.743685,3.872584 c -0.959027,2.12992 -1.766943,3.895842 -1.79537,3.924267 -0.02843,0.02843 -0.839393,-0.265308 -1.802148,-0.652742 -2.03463,-0.818779 -4.919303,-1.614226 -7.430489,-2.048954 -1.304997,-0.225917 -2.716444,-0.30346 -5.391689,-0.296214 -3.870666,0.01048 -5.820684,0.225212 -9.511504,1.04737 -1.687769,0.375965 -5.595112,1.57834 -6.751952,2.077726 -0.207665,0.08964 -0.616561,-0.710627 -1.885642,-3.690486 z M 72.079347,45.15463 c 0.4756,-0.311626 0.752651,-0.929692 0.752651,-1.679071 0,-0.602613 0.07655,-0.614837 1.445325,-0.230779 1.228182,0.344611 1.610609,0.165294 1.524713,-0.714929 -0.04777,-0.489548 -0.152767,-0.578717 -1.025494,-0.870934 -0.53475,-0.179052 -1.730952,-0.368674 -2.658227,-0.421381 -3.548389,-0.201695 -6.157908,0.832763 -5.006146,1.984525 0.277647,0.277647 0.529319,0.274262 1.521383,-0.02047 0.225579,-0.06702 0.309359,0.0086 0.309359,0.279238 0,1.673722 1.72863,2.596227 3.136436,1.673798 z m -17.79911,0.09496 c 0.402773,-0.215558 0.874092,-1.065877 0.874092,-1.576972 0,-0.398454 0.270826,-0.452244 0.959228,-0.190514 0.554309,0.210748 0.93729,0.08121 1.078887,-0.364925 0.222706,-0.701685 -0.07437,-1.024193 -1.289015,-1.399359 -1.702212,-0.525759 -3.391127,-0.622793 -5.124062,-0.294393 -1.970378,0.373396 -2.417679,0.604671 -2.484162,1.284427 -0.08391,0.857887 0.326773,1.082572 1.346013,0.736411 1.674542,-0.568719 1.708745,-0.56344 1.741406,0.268738 0.03933,1.002117 0.807084,1.718604 1.841572,1.718604 0.393766,0 0.868985,-0.08191 1.056041,-0.182017 z m -6.524004,-5.399891 c 1.988604,-1.007702 4.682647,-0.9772 7.920052,0.08967 0.905401,0.298369 1.856597,0.54249 2.11377,0.54249 1.096185,0 1.603146,-1.012934 0.963802,-1.925726 -0.633297,-0.904157 -3.490127,-1.7797 -5.820964,-1.783972 -3.696401,-0.0068 -6.328017,1.275069 -7.434532,3.62131 -0.613966,1.301845 -0.52199,1.414425 0.49731,0.608714 0.504687,-0.398932 1.29694,-0.91755 1.760562,-1.152486 z m 30.475719,0.544838 c -1.142216,-2.334608 -3.756623,-3.624988 -7.344497,-3.624988 -3.257069,0 -6.187185,1.193825 -6.187185,2.520862 0,1.249206 1.084866,1.511992 3.104181,0.751925 3.910681,-1.471978 7.086815,-1.213994 9.68072,0.786324 0.600638,0.463188 1.119682,0.770228 1.153433,0.682312 0.03375,-0.08792 -0.149244,-0.590312 -0.406652,-1.116435 z"
     id="path2037" />
  <path
     style="fill:#ffffff;fill-rule:evenodd;stroke-width:0.0176777;stroke-linejoin:round;stroke-miterlimit:4;stroke-dasharray:none"
     d="m 78.316881,63.374445 c -3.35e-4,-0.09723 0.118285,-0.614299 0.263599,-1.149048 0.471427,-1.73483 0.790818,-4.1152 0.791545,-5.899252 l 7.11e-4,-1.744998 1.635184,-3.626587 c 1.602789,-3.554738 1.652696,-3.638205 2.519068,-4.212985 0.486136,-0.322518 1.255585,-0.684502 1.709887,-0.804408 1.600625,-0.42246 1.720244,0.230246 0.75511,4.120295 -0.667423,2.690102 -1.156047,3.93702 -1.611228,4.11169 -0.153468,0.05889 -0.722486,-0.09594 -1.264483,-0.344079 -1.098088,-0.502721 -1.7334,-0.468985 -2.2668,0.120371 -0.276829,0.30587 -0.330672,0.681576 -0.346907,2.42066 -0.02217,2.374797 -0.329069,3.752444 -1.223107,5.490433 -0.688343,1.338122 -0.961714,1.769205 -0.962579,1.517908 z"
     id="path2076" />
  <path
     style="fill:#ffffff;fill-rule:evenodd;stroke-width:0.0176777;stroke-linejoin:round;stroke-miterlimit:4;stroke-dasharray:none"
     d="m 44.509988,62.365964 c -1.037645,-1.814331 -1.723236,-4.278518 -1.727415,-6.208767 -0.0024,-1.104245 -0.04781,-1.252041 -0.5343,-1.738529 -0.52471,-0.524709 -0.549062,-0.530059 -1.855571,-0.407629 -1.649712,0.154591 -2.052006,-0.06544 -2.704321,-1.479142 -0.424519,-0.920019 -0.467635,-1.231583 -0.529995,-3.829918 -0.04163,-1.734379 0.0044,-3.014556 0.118943,-3.309625 0.241309,-0.621531 0.933701,-0.799667 1.843521,-0.474295 l 0.69455,0.248387 2.016655,4.757097 2.016654,4.757097 0.168148,2.048806 c 0.176414,2.149516 0.354062,3.260538 0.817064,5.109962 0.153748,0.614138 0.241466,1.154691 0.194929,1.201228 -0.04654,0.04654 -0.280026,-0.257063 -0.518862,-0.674672 z"
     id="path2115" />
  <path
     style="fill:#000000;fill-rule:evenodd;stroke-width:0.0157136;stroke-linejoin:round"
     d="M 1.4218968,111.56354 C 0.8023071,111.41767 0.48006671,111.05623 0.45190948,110.47554 0.3774047,108.93903 0.96174759,104.51885 1.6475876,101.431 3.6986631,92.196457 8.3220902,86.826316 16.5778,84.089457 c 1.037095,-0.34381 4.9262,-1.449807 8.642455,-2.457772 9.147476,-2.481084 11.481129,-3.254272 14.65596,-4.855837 2.393984,-1.207662 2.580982,-1.396498 3.713629,-3.75012 0.550276,-1.143466 1.231083,-2.692909 1.512904,-3.443206 L 45.61515,68.218345 44.709978,67.225489 C 42.952514,65.297777 41.438386,62.841095 40.792059,60.86864 40.646608,60.424755 40.4063,59.406515 40.258037,58.605883 L 39.988471,57.150191 39.04692,56.888503 c -1.278262,-0.35527 -1.752819,-0.627816 -2.649131,-1.521432 -1.637217,-1.632292 -2.090033,-3.590037 -1.933053,-8.35751 0.09637,-2.926856 0.314169,-3.621634 1.407276,-4.489278 l 0.595083,-0.472342 1.210709,1.210709 1.210709,1.21071 h -0.666558 c -0.457046,0 -0.765341,0.09878 -0.980831,0.314271 -0.289531,0.289531 -0.314025,0.521465 -0.311158,2.946291 0.0037,3.143788 0.18756,4.593404 0.691626,5.453527 0.683496,1.166295 0.881684,1.264018 2.56353,1.264018 1.413704,0 1.512489,0.02171 1.787721,0.392839 0.187083,0.252265 0.37475,0.983247 0.524448,2.042762 0.370315,2.620969 1.198102,5.134946 2.114624,6.422081 0.324948,0.456348 1.630873,4.144752 2.133311,6.025245 0.331639,1.241237 0.389028,1.055911 -1.606618,5.1882 l -1.193801,2.471947 0.44277,0.8279 c 1.770837,3.311159 5.085081,6.462331 8.650478,8.224852 2.586885,1.278802 4.789099,1.802461 8.009105,1.90447 4.604899,0.145881 8.198407,-0.818909 11.564687,-3.104906 1.182346,-0.802917 3.325535,-2.82759 4.219022,-3.985713 0.871398,-1.129495 2.208311,-3.377995 2.208311,-3.714072 0,-0.151024 -0.539186,-0.934972 -1.19819,-1.742105 -1.484381,-1.818036 -2.573063,-3.333909 -2.573063,-3.582711 0,-0.59804 2.858988,-7.233098 3.749919,-8.702701 1.18461,-1.954034 1.602287,-3.554349 1.841017,-7.053805 0.07021,-1.029102 0.171372,-1.470229 0.405422,-1.767774 0.376539,-0.478693 0.662399,-0.492491 1.703283,-0.08221 1.092396,0.430583 1.470517,0.400911 1.93567,-0.151893 0.860668,-1.022845 2.14059,-6.331966 1.895705,-7.863391 l -0.100288,-0.627171 h -0.745838 c -0.410212,0 -1.048603,0.106822 -1.418648,0.237382 -0.370046,0.130559 -0.690223,0.218948 -0.711503,0.196419 -0.119838,-0.12686 2.195584,-2.947423 2.417176,-2.944518 0.398265,0.0052 1.629625,0.599977 2.046344,0.988399 0.527945,0.492098 0.913275,1.322587 1.034406,2.229428 0.180055,1.347966 -0.993977,6.487415 -1.908696,8.355512 -0.754137,1.540151 -2.025281,2.405136 -3.537805,2.407397 -0.667746,10e-4 -0.625693,-0.09805 -0.886348,2.087717 -0.313806,2.631481 -1.716943,5.251727 -4.35198,8.12697 -1.727291,1.884746 -2.110752,2.388693 -2.110752,2.773948 0,0.452026 0.939979,1.937973 2.123621,3.357085 2.552667,3.060486 6.269512,4.845535 15.004154,7.205886 12.435404,3.360398 13.496024,3.688977 16.269884,5.040355 5.14709,2.507578 8.54994,6.614055 10.48829,12.656996 0.30494,0.95067 0.69939,2.402913 0.87656,3.227203 0.34281,1.59493 1.0362,6.24007 1.21118,8.11386 0.0983,1.05291 0.0803,1.15223 -0.27356,1.50609 -0.36059,0.36058 -0.50655,0.38387 -3.0298,0.48338 -3.81719,0.15055 -117.1250682,0.0974 -117.7734432,-0.0553 z"
     id="path1179" />
</svg>
