
<svg  xmlns="http://www.w3.org/2000/svg"
  viewBox="0 0 122.88 122.88" >
 
  <path
     class="cls-1"
     d="M23.49,48ZM19.54,14.28c-6.68-1.34-11.09.38-13.38,3.48A10.64,10.64,0,0,0,4.22,22.9a15.16,15.16,0,0,0,.66,6.2c1.83,5.81,7,11.25,15.36,12.46l-.59,4.1C9.54,44.18,3.19,37.49.93,30.34a19.26,19.26,0,0,1-.82-7.91A14.72,14.72,0,0,1,2.84,15.3c3.2-4.32,9-6.79,17.51-5.08l-.81,4.06Zm83-4.06C111,8.51,116.84,11,120,15.3a14.82,14.82,0,0,1,2.73,7.13,19.26,19.26,0,0,1-.82,7.91c-2.26,7.15-8.61,13.84-18.72,15.32l-.59-4.1C111,40.35,116.17,34.91,118,29.1a15.16,15.16,0,0,0,.66-6.2,10.74,10.74,0,0,0-1.94-5.14c-2.3-3.1-6.7-4.82-13.38-3.48l-.81-4.06ZM34.94,23c21.1-3.35,32.18-3.25,53,.09-20,3.63-33,3.85-53-.09Zm1.73,21.83c13.94,6,33.7,6,49.54-.22-11.51,10.25-30.56,16.93-49.54.22ZM29.52,32.21a162.17,162.17,0,0,0,63.84-.06,70.17,70.17,0,0,1-14.65,5.51C62.43,42.13,44.29,41,29.52,32.21Zm-6-20.27a2,2,0,0,1,2-2c6-.58,10.94-2.68,15.85-4.78,1.76-.75,3.51-1.5,5.23-2.15A38.77,38.77,0,0,1,62.27,0c4.9.19,9.72,1.49,15.47,3.7,1.81.69,3.64,1.45,5.43,2.2C88.25,8,93,10,97.55,10.38a2,2,0,0,1,1.84,2V48A2,2,0,0,1,99,49.22a32.49,32.49,0,0,1-7.44,7.84,51.15,51.15,0,0,1-26.3,9.83A47.3,47.3,0,0,1,35.3,59.8,45.6,45.6,0,0,1,23.91,49.22,2.06,2.06,0,0,1,23.48,48V11.94Z"
     id="path8" />
  <path
     style="fill:#483737;fill-rule:evenodd;stroke-width:0.17156;stroke-miterlimit:4.5"
     d="M 57.154541,66.907412 C 47.140198,66.068591 38.013316,62.399073 30.880819,56.343908 c -3.057295,-2.595506 -6.88679,-6.816545 -7.217911,-7.9559 -0.117963,-0.405901 -0.159624,-6.663667 -0.125121,-18.79389 0.04724,-16.609173 0.07639,-18.220191 0.336234,-18.587105 0.486269,-0.686632 0.936916,-0.886496 2.409019,-1.0684106 4.302363,-0.5316625 7.881127,-1.6241811 14.523014,-4.4335594 7.458558,-3.1548131 10.101212,-4.0689252 13.678163,-4.73137245 5.421649,-1.00408312 9.979138,-0.87023369 15.254966,0.44802495 3.545817,0.8859846 6.480462,1.9342539 13.724809,4.9025687 6.862156,2.8117143 9.815872,3.7690889 12.932321,4.1916938 1.804039,0.244635 2.292851,0.473465 2.658816,1.24468 0.258059,0.543819 0.278827,2.191507 0.237583,18.850992 l -0.04519,18.255086 -0.51468,0.750219 c -1.60318,2.33686 -4.448022,5.35968 -6.709706,7.129474 -3.263053,2.553377 -8.936774,5.69089 -12.989999,7.183348 -3.858631,1.420803 -8.16634,2.440757 -12.296255,2.91143 -2.953876,0.336646 -7.300058,0.457395 -9.582341,0.266225 z m 7.14437,-12.018087 c 7.081624,-0.771393 13.863659,-3.701807 20.200656,-8.728393 0.99255,-0.787303 1.771102,-1.464995 1.730115,-1.505982 -0.04099,-0.04099 -1.336251,0.348929 -2.878366,0.866478 -6.237963,2.093524 -12.027118,3.16983 -19.230131,3.575218 -8.893976,0.500556 -18.518426,-0.870091 -25.627866,-3.649744 -0.991025,-0.387472 -1.837682,-0.668674 -1.88146,-0.624897 -0.156758,0.156757 3.553093,3.02405 5.763487,4.454518 6.84097,4.427172 14.591601,6.411464 21.923565,5.612802 z m 3.124211,-14.998291 c 6.414643,-0.730731 13.317537,-2.40864 19.214732,-4.670586 2.549455,-0.977876 6.921452,-2.965288 6.796983,-3.089755 -0.03822,-0.03822 -1.370863,0.169026 -2.961441,0.460538 -9.893034,1.813126 -18.842368,2.608508 -29.312218,2.605155 -8.034709,-0.0026 -14.143153,-0.401732 -21.558031,-1.408719 -2.661893,-0.361501 -8.008892,-1.239326 -9.256631,-1.519674 -0.667691,-0.150021 -1.01858,-0.128226 -0.823881,0.05117 0.03932,0.03623 0.804903,0.471521 1.701304,0.96732 6.390418,3.534536 14.693986,6.020847 22.302814,6.678059 1.179476,0.101878 2.45331,0.215567 2.830742,0.252641 1.45741,0.143164 8.861519,-0.07507 11.065627,-0.326151 z m 0.887043,-14.161115 c 5.050493,-0.337326 10.40609,-0.991638 16.869428,-2.060993 1.132297,-0.187336 2.251726,-0.388691 2.487622,-0.447454 l 0.4289,-0.106841 -0.51468,-0.140763 C 87.29836,22.89645 85.175304,22.562719 82.863532,22.232246 67.550819,20.043259 57.623307,19.910875 43.404707,21.706059 c -3.864835,0.48796 -8.033082,1.098223 -8.406445,1.230769 -0.141537,0.05025 0.669084,0.274819 1.801381,0.499048 4.752836,0.941208 12.273739,1.949762 16.984451,2.277616 3.013664,0.209745 11.48823,0.219328 14.526071,0.01644 z"
     id="path902" />
  <path
     style="fill:#483737;fill-rule:evenodd;stroke-width:0.17156;stroke-miterlimit:4.5"
     d="m 103.21831,45.163198 c -0.22281,-0.796375 -0.47664,-3.346674 -0.34492,-3.465444 0.0816,-0.07362 0.62868,-0.224922 1.21562,-0.336225 4.6136,-0.87489 9.16352,-3.806063 11.69171,-7.532082 4.05115,-5.970548 4.00108,-13.594961 -0.1141,-17.372492 -1.03528,-0.950343 -2.86307,-1.902926 -4.49567,-2.342994 -1.03957,-0.280216 -4.03841,-0.352625 -7.11063,-0.171691 l -0.67713,0.03988 -0.36786,-1.832516 -0.36785,-1.832517 0.35874,-0.08769 c 1.27578,-0.3118417 3.7055,-0.484347 5.59133,-0.3969732 6.68179,0.3095802 11.37074,3.7021942 13.38957,9.6877932 0.51182,1.51749 0.56932,1.898826 0.63945,4.240827 0.0881,2.942895 -0.15228,4.624142 -1.01253,7.081123 -2.49988,7.139961 -8.51079,12.445057 -16.19035,14.289238 -1.70324,0.409016 -2.09824,0.414705 -2.20538,0.03176 z"
     id="path941" />
  <path
     style="fill:#483737;fill-rule:evenodd;stroke-width:0.17156;stroke-miterlimit:4.5"
     d="M 17.070231,45.044134 C 12.767222,43.922638 9.4350275,42.040938 6.4285308,39.034731 3.9570349,36.563475 2.3546306,34.039719 1.2268574,30.842198 0.36421998,28.396404 0.12216639,26.71003 0.210469,23.761075 0.28059717,21.419074 0.3380964,21.037738 0.84991644,19.520248 2.4633135,14.736703 5.858404,11.559606 10.722507,10.281562 c 1.883583,-0.4949114 5.427959,-0.6229207 7.68962,-0.277719 0.926758,0.141453 1.71005,0.283817 1.740648,0.316365 0.0306,0.03255 -0.107483,0.894119 -0.306841,1.914602 l -0.36247,1.855423 -1.292397,-0.139822 c -0.710818,-0.0769 -2.218821,-0.132315 -3.351118,-0.123139 -4.173779,0.03382 -7.0663977,1.403948 -8.968706,4.248134 -0.457015,0.683295 -1.0192802,1.817488 -1.2494784,2.52043 -0.3682773,1.124587 -0.418542,1.58713 -0.418542,3.851479 0,2.006076 0.072605,2.838153 0.329339,3.774323 1.3256698,4.833997 4.3573994,8.69383 8.7644174,11.158375 1.359058,0.760029 3.897621,1.68621 5.407797,1.973008 0.610729,0.115984 1.17722,0.271113 1.258869,0.344733 0.131724,0.11877 -0.12211,2.669069 -0.344916,3.465444 -0.112096,0.400655 -0.651016,0.375477 -2.548498,-0.119064 z"
     id="path980" />
  <path
     style="fill:#f2f2f2;fill-rule:evenodd;stroke-width:0.017156;stroke-linejoin:round"
     d="M 56.786395,66.79976 C 56.5505,66.765685 55.662677,66.65262 54.813454,66.548502 46.84335,65.571349 39.036568,62.435326 32.709563,57.669261 29.787922,55.468418 24.781556,50.364702 23.931094,48.720092 23.694581,48.262725 23.670311,46.156994 23.713019,29.79946 c 0.04451,-17.047224 0.06977,-18.439121 0.342209,-18.85483 0.344826,-0.526163 0.921187,-0.731895 2.793929,-0.9972926 4.288783,-0.6077898 7.420771,-1.6219183 15.86931,-5.1384349 7.012102,-2.918632 10.035967,-3.8078337 14.953184,-4.39715325 5.253395,-0.62961003 10.997057,0.21855392 17.558427,2.59284485 1.226121,0.4436827 4.699776,1.7948279 7.719234,3.0025446 7.913654,3.1652876 9.722519,3.7607919 13.281198,4.3723613 1.953712,0.33575 2.491969,0.592398 2.741071,1.306975 0.134557,0.385986 0.190161,5.873098 0.190161,18.765139 v 18.219644 l -1.060415,1.441276 c -0.583229,0.792704 -2.14657,2.527787 -3.474092,3.855741 -2.036887,2.037551 -2.826026,2.68761 -5.055137,4.164205 -7.614278,5.043811 -16.121915,7.973647 -24.979718,8.602448 -2.271835,0.161273 -6.873746,0.199495 -7.805985,0.06483 z M 67.399411,54.481748 c 4.272093,-0.907812 8.156312,-2.427543 11.956799,-4.678194 2.992437,-1.772121 7.480249,-5.197926 6.809294,-5.197926 -0.103972,0 -1.29476,0.35253 -2.646196,0.783402 -5.28099,1.683709 -9.675094,2.644292 -14.981795,3.275127 -3.210001,0.381589 -12.343185,0.438159 -15.2681,0.09457 -5.144628,-0.60434 -8.894489,-1.421199 -13.26968,-2.89063 -1.825557,-0.613123 -3.353306,-1.080659 -3.394997,-1.038968 -0.130607,0.130607 1.523006,1.518187 3.645034,3.058621 4.834411,3.50942 9.728331,5.687697 14.963375,6.660173 2.718044,0.504912 2.584299,0.495845 6.462713,0.438117 3.104079,-0.0462 3.896318,-0.116006 5.723553,-0.504292 z m 0.538391,-14.58252 c 6.821935,-0.815693 14.784781,-2.909656 20.924598,-5.502475 2.911272,-1.229417 4.802589,-2.191879 4.457267,-2.268234 -0.146503,-0.03239 -2.076555,0.248987 -4.289002,0.625291 -8.044541,1.36825 -13.832554,1.949768 -22.513898,2.261963 -11.059726,0.397724 -21.638904,-0.329605 -32.947075,-2.265148 -3.533086,-0.604735 -4.536551,-0.708464 -4.218617,-0.436083 0.03932,0.03368 0.920706,0.531421 1.958645,1.106084 5.773473,3.196535 13.794619,5.68181 20.86107,6.463601 1.26475,0.139924 2.569751,0.288032 2.900004,0.329129 1.313689,0.163475 10.812,-0.06841 12.867008,-0.314128 z m 4.546343,-14.408941 c 5.693886,-0.629474 14.961188,-2.016891 15.505107,-2.321283 0.300012,-0.167896 0.11559,-0.211534 -2.914666,-0.689663 -3.367925,-0.531409 -9.850899,-1.328471 -13.534021,-1.663965 -4.174212,-0.380227 -15.714994,-0.434692 -19.557853,-0.0923 -5.612369,0.500054 -15.258057,1.709281 -16.564981,2.076663 l -0.505249,0.142028 0.4289,0.194102 c 1.259921,0.570188 10.378877,1.899012 18.271151,2.662492 0.377433,0.03651 4.198934,0.04614 8.492226,0.0214 5.86607,-0.0338 8.445518,-0.115683 10.379386,-0.329478 z"
     id="path900" />
  <path
     style="fill:#f2f2f2;fill-rule:evenodd;stroke-width:0.017156;stroke-linejoin:round"
     d="M 17.928031,45.175475 C 16.78434,44.920185 14.036849,43.989938 12.910448,43.476622 8.6334769,41.527543 4.4963935,37.529393 2.4083929,33.327251 0.72809106,29.945611 0.27119273,27.764423 0.38438972,23.664859 c 0.0837469,-3.032992 0.28919589,-3.92963 1.41276928,-6.165728 1.9348246,-3.850623 5.5421915,-6.520332 9.868928,-7.30371 2.257283,-0.408693 8.406446,-0.2099868 8.406446,0.271649 0,0.184161 -0.514863,2.942337 -0.609708,3.266271 -0.06679,0.228106 -0.278806,0.244938 -1.492561,0.118493 -1.866333,-0.194428 -5.272793,-0.04014 -6.561517,0.297192 -2.7851646,0.729032 -4.9535741,2.477783 -6.2187726,5.015237 -0.9634045,1.932182 -1.1275052,2.878088 -1.0345779,5.963495 0.086943,2.886717 0.3840445,4.060113 1.6897783,6.67374 1.5404736,3.083495 4.2422392,5.881875 7.3649532,7.628321 1.130479,0.632245 3.721094,1.580432 5.470167,2.002129 l 1.266942,0.305457 -0.103849,1.219661 c -0.188851,2.217987 -0.237996,2.337696 -0.950331,2.314901 -0.342048,-0.01094 -0.77631,-0.05437 -0.965026,-0.09649 z"
     id="path939" />
  <path
     style="fill:#f2f2f2;fill-rule:evenodd;stroke-width:0.017156;stroke-linejoin:round"
     d="m 103.21413,44.756041 c -0.0641,-0.318623 -0.16331,-1.127463 -0.22035,-1.797426 l -0.10372,-1.218111 1.60993,-0.388905 c 3.81931,-0.922614 7.0062,-2.70559 9.6136,-5.378543 5.99074,-6.141354 6.33921,-16.507503 0.68105,-20.259473 -2.48377,-1.647006 -4.05848,-1.9974 -8.54511,-1.901412 l -2.77692,0.05941 -0.25648,-1.145637 c -0.14106,-0.6301 -0.30788,-1.42929 -0.3707,-1.775978 l -0.11423,-0.630341 0.83156,-0.141679 c 0.45736,-0.07792 2.2598,-0.140338 4.00543,-0.138699 2.75448,0.0026 3.36285,0.05426 4.60409,0.391041 4.89305,1.327612 7.99368,4.250956 9.77211,9.213344 0.37483,1.045895 0.44043,1.564992 0.50826,4.021227 0.11319,4.099564 -0.3437,6.280752 -2.02401,9.662392 -2.07721,4.180433 -5.95636,7.971793 -10.23264,10.00106 -1.75716,0.833848 -4.67625,1.778252 -5.8879,1.904894 l -0.97733,0.10215 z"
     id="path978" />
  <path
     style="fill:#ffffff;fill-rule:evenodd;stroke-width:0.017156;stroke-linejoin:round"
     d="m 54.813454,25.615393 c -4.691806,-0.310539 -10.147662,-0.989258 -15.794659,-1.964885 -2.156455,-0.372569 -3.108118,-0.600279 -2.88901,-0.691271 0.179706,-0.07463 1.986582,-0.364941 4.01528,-0.645138 16.960293,-2.342501 27.128987,-2.254261 44.691408,0.387813 l 2.573402,0.38714 -2.199358,0.386725 c -5.218176,0.917539 -11.809903,1.728468 -16.929594,2.082718 -2.260102,0.156385 -11.382097,0.194924 -13.467469,0.0569 z"
     id="path1144" />
  <path
     style="fill:#ffffff;fill-rule:evenodd;stroke-width:0.017156;stroke-linejoin:round"
     d="M 55.070794,39.966229 C 47.42506,39.304112 40.364758,37.477434 34.226241,34.573218 c -2.454075,-1.161057 -4.298881,-2.21703 -3.602762,-2.062232 1.331496,0.296088 7.67277,1.300283 10.207826,1.616497 11.564095,1.442464 23.750837,1.651609 35.341383,0.606518 4.5726,-0.4123 12.421799,-1.513705 15.94318,-2.237157 0.242445,-0.04981 -0.138206,0.190423 -0.845891,0.53385 -6.497393,3.153068 -15.71656,5.739363 -23.846855,6.68987 -2.767237,0.323516 -9.831092,0.464003 -12.352328,0.245665 z"
     id="path1183" />
  <path
     style="fill:#ffffff;fill-rule:evenodd;stroke-width:0.017156;stroke-linejoin:round"
     d="M 57.558416,54.711219 C 52.865405,54.140204 47.732219,52.318197 43.443829,49.701294 41.784336,48.688622 38.29192,46.17519 37.9176,45.724162 c -0.299005,-0.360279 -0.141893,-0.333672 1.443009,0.244375 12.501729,4.559642 29.408555,4.52417 43.530866,-0.09133 1.321495,-0.431896 2.428617,-0.759365 2.460272,-0.727711 0.03165,0.03165 -0.727676,0.662902 -1.687402,1.402771 -5.412298,4.17244 -11.456858,6.908539 -17.527397,7.933862 -1.910564,0.322696 -6.735783,0.449305 -8.578532,0.22509 z"
     id="path1222" />
</svg>
