<svg  xmlns="http://www.w3.org/2000/svg"
  viewBox="0 0 122.88 122.88" >  <path
     class="cls-1"
     d="M68.58,63.51v16a4.08,4.08,0,0,0,4.21,3.9h0A4.08,4.08,0,0,0,77,79.48v-16h2v16a4.09,4.09,0,0,0,4.22,3.9h0a4.08,4.08,0,0,0,4.21-3.9v-16h6l-6-28.22c.21.46.41.92.61,1.39A51.08,51.08,0,0,1,91.19,47,4,4,0,0,0,95,50.23h.06a3,3,0,0,0,2.75-1.13A3.93,3.93,0,0,0,99,45.56l-.08-.47a38,38,0,0,1,1.47-5.2c.22-.59.45-1.17.69-1.73v1.12L96.92,58.91H101V69.78a2.83,2.83,0,0,0,2.89,2.76h0a2.84,2.84,0,0,0,2.9-2.76V58.91h1.8V69.78a2.83,2.83,0,0,0,2.89,2.76h0a2.84,2.84,0,0,0,2.9-2.76V58.91h4.52l-4.52-20V38.5c.23.54.44,1.09.65,1.66A38,38,0,0,1,117,48a3,3,0,0,0,5.86-.81,44.45,44.45,0,0,0-2.23-9,39.06,39.06,0,0,0-4-8,3,3,0,0,0-2.24-1.32h0c-3.16-1-9.1-1-13.35-.26h0a2.92,2.92,0,0,0-2.25,1.32A37.42,37.42,0,0,0,96,35c-.18-.46-.36-.91-.55-1.36a52,52,0,0,0-5.85-10.47,3.91,3.91,0,0,0-2.41-1.54v0a48.89,48.89,0,0,0-18.29,0v0a3.88,3.88,0,0,0-2.63,1.58A50.93,50.93,0,0,0,61,32.3a50.72,50.72,0,0,0-4.75-9.19,3.87,3.87,0,0,0-2.62-1.69v-.08C49,20,40.29,20,35.32,21.19v.12a3.83,3.83,0,0,0-3,1.73A51.2,51.2,0,0,0,27,33.75l-.18.49a37,37,0,0,0-2.54-4.55A3,3,0,0,0,22,28.37c-1.42-.61-12.74-1-14.15.13a3,3,0,0,0-1.56,1.19,39.06,39.06,0,0,0-4,8,44.45,44.45,0,0,0-2.23,9,3,3,0,0,0,5.85.81,38.39,38.39,0,0,1,1.8-7.44V69.55a3.05,3.05,0,0,0,3.11,3h0a3,3,0,0,0,3.1-3V53.44h1.93V69.55a3.05,3.05,0,0,0,3.11,3h0a3,3,0,0,0,3.1-3V38.06c.23.55.45,1.1.66,1.68a37.22,37.22,0,0,1,1.45,5l-.15,1a3.85,3.85,0,0,0,7.63,1.06,51.18,51.18,0,0,1,2.59-10.48c.35-1,.72-1.9,1.11-2.79v45.9a4.08,4.08,0,0,0,4.21,3.9h0a4.09,4.09,0,0,0,4.22-3.9v-25h1.43v25a4.09,4.09,0,0,0,4.22,3.9h0a4.08,4.08,0,0,0,4.21-3.9V34.59c.25.6.49,1.22.72,1.85A51.9,51.9,0,0,1,56.78,46a4,4,0,0,0,7.82,1.05,51.08,51.08,0,0,1,3.08-10.33c.31-.75.64-1.48,1-2.18l-6.1,29ZM107.8,13.33a6.44,6.44,0,1,1-6.43,6.43,6.43,6.43,0,0,1,6.43-6.43ZM15,12.52a6.9,6.9,0,1,1-6.9,6.9,6.9,6.9,0,0,1,6.9-6.9ZM44.22,0A9.12,9.12,0,1,1,35.1,9.12,9.12,9.12,0,0,1,44.22,0ZM77.76,0a9.12,9.12,0,1,1-9.12,9.12A9.12,9.12,0,0,1,77.76,0Z"
     id="path8" />
  <path
     style="fill:#000000;fill-rule:evenodd;stroke-width:0.0213248;stroke-linejoin:round"
     d="m 71.651353,83.138741 c -1.105318,-0.327865 -2.127145,-1.194618 -2.577504,-2.186341 -0.367328,-0.808879 -0.39897,-1.534 -0.403286,-9.241879 l -0.0047,-8.364133 -2.951176,-0.05917 -2.951179,-0.05917 3.01832,-14.340933 c 1.660076,-7.887513 2.952972,-14.340933 2.873104,-14.340933 -0.499421,0 -3.053039,7.205085 -3.816744,10.769028 -0.504854,2.355967 -1.091822,3.345451 -2.371681,3.998071 -0.917585,0.467889 -2.363384,0.479145 -3.318663,0.02584 -0.967293,-0.45901 -1.964906,-1.696062 -2.122728,-2.632209 C 56.283168,42.305971 54.369659,35.305298 53.735297,34.670936 53.5974,34.533037 53.52525,42.290014 53.52525,57.253755 c 0,22.79096 -3.9e-5,22.792943 -0.452331,23.727256 -0.27248,0.56287 -0.79622,1.161965 -1.317227,1.506751 -0.735892,0.48699 -1.092349,0.572362 -2.389805,0.572362 -1.343723,0 -1.618477,-0.07137 -2.312379,-0.60063 C 45.429097,81.220483 45.54067,82.235919 45.42184,67.609223 l -0.106624,-13.12434 -0.79968,-0.06619 -0.799681,-0.06618 -0.0047,12.754444 c -0.0044,11.959628 -0.02929,12.807602 -0.399606,13.607438 -0.746984,1.61341 -2.031237,2.452353 -3.754049,2.452353 -1.174372,0 -1.967188,-0.297238 -2.737951,-1.026495 -1.407841,-1.332037 -1.302889,0.538093 -1.420378,-25.309642 L 35.292547,33.373323 34.486139,35.41299 c -1.105574,2.796355 -1.989161,5.952857 -2.617277,9.349878 -0.595791,3.222189 -0.953805,3.969268 -2.251731,4.698742 -2.668684,1.499885 -5.776865,-0.637417 -5.455476,-3.751387 0.134165,-1.299918 -0.667002,-4.582542 -1.637353,-6.708736 l -0.524814,-1.149955 -0.0178,16.10023 c -0.01646,14.886072 -0.04592,16.155371 -0.390656,16.83144 -1.070608,2.099589 -3.789034,2.232594 -5.113373,0.250183 -0.483027,-0.72305 -0.484058,-0.742701 -0.484058,-9.222979 V 53.312018 H 14.92736 13.86112 v 8.373313 c 0,9.556082 0.01864,9.44403 -1.721763,10.351561 -1.487999,0.775919 -2.9473823,0.36074 -3.8320656,-1.090181 C 7.9057898,70.288229 7.8917461,69.756298 7.8909759,55.177939 7.890536,46.852472 7.8076507,40.090638 7.7060386,40.090638 c -0.2310349,0 -1.1789795,3.359783 -1.6216172,5.747471 C 5.621408,48.335704 5.0101125,49.131593 3.3475845,49.401384 2.3401835,49.564862 0.9904213,48.807763 0.51930896,47.814967 0.09128303,46.912971 0.20378948,45.790038 1.0828648,42.190089 2.0558149,38.205707 3.5036486,34.611839 5.4939016,31.240843 7.3208542,28.146438 7.6254982,28.040884 14.714117,28.0462 c 5.699319,0.0043 7.372698,0.192305 8.654061,0.972421 0.443023,0.269719 1.117847,1.210669 2.070296,2.886744 1.304931,2.296355 1.429353,2.447628 1.626313,1.977276 0.117301,-0.280124 0.560162,-1.372972 0.984133,-2.42855 1.709753,-4.256842 4.39441,-8.76635 5.62175,-9.443042 3.762432,-2.074408 18.081838,-2.056275 21.17293,0.02681 0.383472,0.258422 1.060112,0.947406 1.503645,1.531075 0.847217,1.114902 4.428456,8.023421 4.428456,8.542876 0,0.685917 0.376899,0.175993 1.386113,-1.875342 1.164172,-2.366303 4.00334,-6.82304 4.819069,-7.564656 0.709611,-0.64514 1.269349,-0.82562 3.94216,-1.271103 3.290516,-0.548436 10.968922,-0.547048 14.267957,0.0026 2.567953,0.427827 3.133523,0.648963 3.977433,1.555152 1.485908,1.595569 5.174791,8.113419 6.43758,11.374498 l 0.371593,0.959616 1.21819,-2.340144 c 0.670004,-1.287079 1.602037,-2.73768 2.071183,-3.223556 0.781301,-0.809169 0.987601,-0.902981 2.454651,-1.116255 5.53743,-0.805006 12.25726,-0.335855 14.06502,0.981962 0.85364,0.622281 3.0582,4.510581 4.23515,7.469746 1.64897,4.145939 2.90724,9.484504 2.55544,10.842155 -0.0956,0.368919 -0.5128,0.968397 -0.92712,1.332175 -0.62678,0.550325 -0.93166,0.66141 -1.81525,0.66141 -0.90093,0 -1.17669,-0.105148 -1.81863,-0.693442 -0.69512,-0.637025 -0.79732,-0.892927 -1.25618,-3.145409 -0.48531,-2.382237 -1.81776,-6.817023 -2.24239,-7.463296 -0.17814,-0.271123 -0.21067,-0.260402 -0.21344,0.07034 -0.003,0.338413 4.09154,18.810412 4.39206,19.81504 0.10138,0.338914 -0.0953,0.373185 -2.14185,0.373185 h -2.25347 v 5.726163 c 0,5.598167 -0.0108,5.742359 -0.48406,6.450754 -0.93678,1.402276 -2.58027,1.77478 -3.9296,0.89066 -1.06987,-0.701002 -1.13079,-1.094278 -1.13079,-7.299289 v -5.768288 h -1.06624 -1.06624 v 5.768288 c 0,6.624391 -0.0344,6.782798 -1.62503,7.486414 -1.08125,0.478288 -1.88047,0.396599 -2.7408,-0.280144 -1.12939,-0.888376 -1.17862,-1.193822 -1.17862,-7.312895 v -5.661663 h -2.04023 c -1.84311,0 -2.029525,-0.03606 -1.929447,-0.373185 0.557208,-1.877092 3.972997,-18.904322 3.924987,-19.56551 -0.0606,-0.83451 -0.0767,-0.812942 -0.7446,0.995355 -0.983341,2.662444 -1.344287,4.212374 -1.400404,6.013454 -0.04343,1.394058 -0.129522,1.696536 -0.71147,2.499807 -1.232874,1.70175 -2.996792,2.139908 -4.795542,1.191217 C 92.090117,48.935776 91.59205,48.095376 91.049247,45.68 90.244303,42.098147 87.483485,34.262727 87.443996,35.448008 c -0.0068,0.202785 1.283197,6.461003 2.866564,13.907152 1.583367,7.446149 2.878849,13.634986 2.878849,13.752968 0,0.130578 -1.14733,0.237731 -2.932161,0.273844 l -2.932161,0.05933 -0.106624,8.636547 c -0.07655,6.200881 -0.179502,8.763613 -0.365036,9.087111 -0.40569,0.707356 -1.717099,1.769645 -2.357788,1.909894 -0.320386,0.07013 -0.708097,0.16663 -0.861578,0.214434 -0.53398,0.166314 -2.275274,-0.362948 -2.991542,-0.909273 -1.492349,-1.138269 -1.517563,-1.31503 -1.5228,-10.67535 l -0.0047,-8.369987 H 78.06007 77.005102 l -0.06458,8.476611 -0.06459,8.476611 -0.565521,0.961909 c -0.9286,1.579475 -2.945534,2.397205 -4.659058,1.888932 z"
     id="path902" />
  <path
     style="fill:#000000;fill-rule:evenodd;stroke-width:0.0213248;stroke-linejoin:round"
     d="M 12.86578,25.847847 C 8.9840257,24.46037 7.1680436,20.127111 8.9507583,16.505904 c 1.1839387,-2.40492 3.4479407,-3.821239 6.0832307,-3.805559 5.581196,0.03321 8.673208,6.401783 5.27438,10.863567 -1.645075,2.15956 -4.951686,3.174272 -7.442589,2.283935 z"
     id="path941" />
  <path
     style="fill:#000000;fill-rule:evenodd;stroke-width:0.0213248;stroke-linejoin:round"
     d="M 42.168937,17.894569 C 40.858446,17.58571 39.238407,16.658215 38.055764,15.539721 34.373388,12.057083 34.298623,6.4100484 37.887315,2.8167111 c 4.329224,-4.3348285 11.644655,-3.13698217 14.345368,2.3489454 1.67082,3.3939165 1.143148,7.1313325 -1.407361,9.9681115 -2.13497,2.374601 -5.60257,3.480531 -8.656385,2.760801 z"
     id="path980" />
  <path
     style="fill:#000000;fill-rule:evenodd;stroke-width:0.0213248;stroke-linejoin:round"
     d="m 75.23343,17.728274 c -3.417738,-1.13193 -5.713034,-3.742028 -6.342167,-7.212 -0.665829,-3.6723754 1.458743,-7.7294428 4.939564,-9.4325523 4.417739,-2.1615283 9.836319,-0.30375313 11.997402,4.1133424 2.189516,4.4752086 0.310279,9.7299849 -4.293702,12.0061709 -1.956223,0.967148 -4.361144,1.167538 -6.301097,0.525039 z"
     id="path1019" />
  <path
     style="fill:#000000;fill-rule:evenodd;stroke-width:0.0213248;stroke-linejoin:round"
     d="m 105.98291,25.817019 c -1.7517,-0.532843 -3.58142,-2.332952 -4.16877,-4.101299 -0.7622,-2.294746 0.0366,-5.101909 1.90733,-6.703227 3.15516,-2.700692 7.80123,-1.726206 9.76121,2.047353 0.69092,1.330243 0.70955,4.170019 0.0357,5.437826 -1.16895,2.19921 -3.29748,3.525341 -5.61482,3.498181 -0.76237,-0.0089 -1.62664,-0.08941 -1.92062,-0.178834 z"
     id="path1058" />
</svg>
