<svg  xmlns="http://www.w3.org/2000/svg"
  viewBox="0 0 122.88 122.88" >  <path
     class="cls-1"
     d="M30.22,55.25l-.11,7H42.65A4.84,4.84,0,0,1,47.48,67v4.83h0V90.73a4.85,4.85,0,0,1-4.83,4.83H37.77v-22c0-2,.38-1.75-1.54-1.75H23.81v0H17.62a7.29,7.29,0,0,1-7.26-7.26V40.79a7.4,7.4,0,0,1,7.38-7.39h3.65c5.79,0,6.37,2.77,7.85,5.67l6.17,2.43c4.46,2,3.32,2.41,6.35-1.34l3.94-4.89c1.93-3.08,9.56.14,6.29,5.31l-5.72,7.81c-2.39,3.26-5.55,3.72-9.38,2.12l-6.67-2.35v7.09ZM57.57,31.38a14.8,14.8,0,0,0,16.57,2.83l5.13,2-1.7-4c5.7-4.57,4.68-10.85.48-15.13a14.8,14.8,0,0,1-1.63,4.65,17.2,17.2,0,0,1-4.72,5.37,21,21,0,0,1-6.59,3.34,23.72,23.72,0,0,1-7.54,1Zm7.88-19.24a2.23,2.23,0,1,1-2.23,2.23,2.23,2.23,0,0,1,2.23-2.23Zm-14.75,0a2.23,2.23,0,1,1-2.23,2.23,2.23,2.23,0,0,1,2.23-2.23Zm7.38,0a2.23,2.23,0,1,1-2.23,2.23,2.23,2.23,0,0,1,2.23-2.23ZM58.52,0h0A19.85,19.85,0,0,1,70.8,4.53a13.25,13.25,0,0,1,4.94,10.39v0a13.27,13.27,0,0,1-5.56,10.12,19.88,19.88,0,0,1-12.54,3.79,21.34,21.34,0,0,1-3.9-.47,19.82,19.82,0,0,1-3.33-1l-7.67,3,2.56-6.1a14.6,14.6,0,0,1-3.55-4.48,12.27,12.27,0,0,1-1.33-5.89A13.24,13.24,0,0,1,46,3.8,19.87,19.87,0,0,1,58.51,0Zm-.05,1.87h0A18,18,0,0,0,47.11,5.3,11.41,11.41,0,0,0,42.29,14a10.4,10.4,0,0,0,1.14,5A13.11,13.11,0,0,0,47,23.28l.56.44L46.19,27l4.24-1.66.35.15a18.7,18.7,0,0,0,3.35,1.05,19.8,19.8,0,0,0,3.56.44,18,18,0,0,0,11.36-3.41,11.41,11.41,0,0,0,4.81-8.65v0A11.37,11.37,0,0,0,69.58,6a18,18,0,0,0-11.1-4.08ZM118.91,91a1.39,1.39,0,0,0-.4-.81,17.79,17.79,0,0,0-6.19-4,20.8,20.8,0,0,0-5.44-1.29l.37-5.75h13.1a2.49,2.49,0,0,0,2.48-2.49c0-10.27-2.42-18,0-29.7.72-3.47-6.44-4-6.44.18V73.52H91.62c-1.36,0-2.48,1.82-2.48,3.18v1.94a.55.55,0,0,0,.55.55h13.14l.51,5.69a20.85,20.85,0,0,0-5.77,1.2,18.25,18.25,0,0,0-6,3.6,1.41,1.41,0,0,0-.41,1.39,2.26,2.26,0,0,0-1.06,2.11,2.64,2.64,0,1,0,5.28,0,2.27,2.27,0,0,0-1.08-2.12,15.7,15.7,0,0,1,4.25-2.33,18,18,0,0,1,5.54-1.06l.29,2.85v.12a2.53,2.53,0,0,0-1.93,2.54,2.64,2.64,0,1,0,5.27,0,2.51,2.51,0,0,0-1.91-2.53v-.14L106,87.7a17.38,17.38,0,0,1,5.28,1.16h0a15.24,15.24,0,0,1,4.22,2.44,2.11,2.11,0,0,0-.79,1.88,2.9,2.9,0,0,0,2.64,2.64A2.84,2.84,0,0,0,120,93.18a2.27,2.27,0,0,0-1.1-2.14ZM97.78,10.6a10.1,10.1,0,1,0,10.1,10.1,10.1,10.1,0,0,0-10.1-10.1Zm-4.2,39.62.19,12H81.23A4.84,4.84,0,0,0,76.4,67v4.83h.06V90.73a4.84,4.84,0,0,0,4.82,4.83h4.83V73.24c0-2.12.8-1.39,3.19-1.39h10.78v0h6.19a7.29,7.29,0,0,0,7.26-7.26V39.37A7.4,7.4,0,0,0,106.15,32h-3.66c-7.6,0-6.39,5.24-9.76,8.53s-2.48,3.62-7,3.62H75.92c-4.39-.09-5.23,8,1,7.63h9c4,0,4.34.64,7.64-1.55ZM80.45,53.33H45a.43.43,0,0,0-.43.43v6.15a.44.44,0,0,0,.43.43H58.64V98a.58.58,0,0,0,.57.57h6.51a.57.57,0,0,0,.56-.57V60.34H80.45a.43.43,0,0,0,.43-.43V53.76a.43.43,0,0,0-.43-.43ZM1.34,48.44H4.86a1.4,1.4,0,0,1,1.31,1.3,155.84,155.84,0,0,1,2,25.16H32.26A1.74,1.74,0,0,1,34,76.63v3.49H32.61V98a.53.53,0,0,1-.53.52H27.47a.53.53,0,0,1-.53-.52V90.21H7.23c-.29,2.37-.64,4.73-1.06,7.1a1.42,1.42,0,0,1-1.31,1.31H1.34C.62,98.62-.17,98,0,97.31,4.67,81.16,3.7,65.36,0,49.74c-.16-.69.59-1.3,1.31-1.3ZM26.94,87.8V80.12H8.11c-.11,3.27-.33,4.42-.68,7.68ZM21.17,10.24a10.11,10.11,0,1,1-10.1,10.11,10.11,10.11,0,0,1,10.1-10.11Z"
     id="path8" />
  <path
     style="fill:#000000;fill-rule:evenodd;stroke-width:0.03567;stroke-linejoin:round"
     d="M 37.810212,83.467827 V 71.696723 H 27.340787 c -6.878511,0 -10.885303,-0.139241 -11.681929,-0.40596 C 13.841765,70.682375 12.2065,69.325659 11.411111,67.766568 10.738177,66.447509 10.701003,65.6493 10.701003,52.518962 v -13.85568 l 1.076666,-1.697725 c 0.828621,-1.3066 1.533789,-1.907003 3.060866,-2.606122 1.80018,-0.824149 2.320603,-0.895853 5.611461,-0.773148 4.71473,0.175797 6.022943,0.804031 7.537224,3.619547 1.00145,1.862004 1.260087,2.084832 3.40239,2.931319 1.275203,0.503871 3.467909,1.41299 4.872679,2.020267 1.404771,0.607276 2.799581,1.00995 3.099578,0.89483 0.299998,-0.11512 2.034523,-2.069652 3.854501,-4.343404 2.020584,-2.524376 3.6388,-4.216857 4.155915,-4.346645 1.256722,-0.315417 3.495989,0.482452 4.330097,1.54285 1.288151,1.637619 0.989572,3.255663 -1.150972,6.237251 -5.219402,7.270172 -6.120064,8.223234 -8.354022,8.840059 -1.577448,0.435554 -3.064603,0.134994 -7.782872,-1.572949 -1.906688,-0.690193 -3.68833,-1.254896 -3.959205,-1.254896 -0.402449,0 -0.492499,1.304405 -0.492499,7.134002 v 7.134002 l 6.866477,0.0013 c 6.176799,0.0012 6.98097,0.07114 8.006372,0.696371 2.471134,1.506746 2.427106,1.222048 2.427106,15.694813 0,12.140891 -0.04615,13.111461 -0.672572,14.14617 -1.099473,1.816078 -2.257593,2.277737 -5.713891,2.277737 h -3.06609 z"
     id="path902" />
  <path
     style="fill:#000000;fill-rule:evenodd;stroke-width:0.03567;stroke-linejoin:round"
     d="m 18.15929,29.786754 c -2.198354,-0.705903 -4.86854,-3.121846 -5.90108,-5.339205 -1.764819,-3.789916 -0.80096,-8.532957 2.302576,-11.330713 2.092805,-1.886609 3.738952,-2.514887 6.662871,-2.54299 2.115167,-0.02033 2.789135,0.135785 4.408386,1.021142 4.505504,2.463472 6.455168,7.299132 4.846457,12.02044 -1.646576,4.832433 -7.444147,7.736734 -12.31921,6.171326 z"
     id="path941" />
  <path
     style="fill:#000000;fill-rule:evenodd;stroke-width:0.03567;stroke-linejoin:round"
     d="M 78.693353,94.494034 C 76.706137,92.930892 76.690411,92.807263 76.691858,78.759264 76.69364,61.457365 76.083636,62.42252 87.017115,62.42252 h 6.795015 v -6.248261 -6.248261 l -1.771642,0.89776 c -1.717893,0.870522 -1.988789,0.897759 -8.92896,0.897759 -9.201602,0 -10.344704,-0.413866 -10.344704,-3.745351 0,-3.331385 1.06685,-3.745352 9.652284,-3.745352 h 6.834111 l 2.278515,-2.229375 c 1.467327,-1.435683 2.81856,-3.234721 3.795431,-5.053255 1.660288,-3.090778 2.632199,-4.011347 4.754825,-4.503642 2.01396,-0.467094 6.42291,-0.414442 8.13511,0.09715 1.89507,0.566234 4.20862,2.879783 4.77485,4.774853 0.56527,1.891828 0.6177,27.122268 0.0605,29.128601 -0.20579,0.741056 -0.87079,1.912992 -1.47776,2.604298 -2.15558,2.455067 -2.12666,2.449741 -14.373948,2.647278 l -11.057704,0.17835 -0.09405,11.681929 -0.09405,11.681929 h -3.157323 c -2.661708,0 -3.305974,-0.11693 -4.104304,-0.744897 z"
     id="path980" />
  <path
     style="fill:#000000;fill-rule:evenodd;stroke-width:0.03567;stroke-linejoin:round"
     d="M 58.855519,79.373316 V 60.297401 l -7.044827,-0.09672 -7.044827,-0.09672 v -3.210302 -3.210301 l 17.92418,-0.09247 17.924181,-0.09247 v 3.39195 3.391951 H 73.301874 65.989521 V 79.365776 98.449232 H 62.42252 58.855519 Z"
     id="path1019" />
  <path
     style="fill:#000000;fill-rule:evenodd;stroke-width:0.03567;stroke-linejoin:round"
     d="M 0.47517606,98.068326 C 0.20510389,97.798254 0.29219753,96.941992 0.774497,95.12555 2.3014679,89.374656 2.9240524,84.506795 3.1094698,76.868875 3.3112611,68.556478 2.7955276,62.459224 1.2321678,54.674484 0.20202382,49.544889 0.17425125,49.014254 0.9209239,48.727729 c 1.0882797,-0.417612 4.014437,-0.223997 4.5387498,0.300316 0.9056545,0.905654 1.9696339,9.87498 2.2765008,19.190852 l 0.2203084,6.688127 H 20.128729 c 14.209956,0 13.757782,-0.100315 13.757782,3.052178 0,1.698314 -0.08864,1.941624 -0.707378,1.941624 -0.684592,0 -0.710445,0.295867 -0.802576,9.185028 l -0.0952,9.185028 h -2.4969 -2.496901 L 27.187064,94.079656 27.086569,89.888429 H 17.138627 7.1906859 l -0.1906516,0.980926 c -0.104858,0.539508 -0.3812696,2.265045 -0.6142472,3.834526 -0.232978,1.56948 -0.5808804,3.054244 -0.7731168,3.299476 -0.4327326,0.552025 -4.5977658,0.604699 -5.13749424,0.06497 z M 27.109209,84.002877 V 79.900826 H 17.530955 7.9527004 l -0.236362,3.299476 c -0.129999,1.814712 -0.3329271,3.660635 -0.4509513,4.102051 L 7.0507974,88.104929 H 17.080003 27.109209 Z"
     id="path1058" />
  <path
     style="fill:#000000;fill-rule:evenodd;stroke-width:0.03567;stroke-linejoin:round"
     d="m 104.51313,95.67489 c -1.92991,-0.621664 -2.43984,-3.078201 -0.89175,-4.295932 0.90647,-0.71303 1.22142,-2.559548 0.60269,-3.533507 -0.42557,-0.669897 -4.46098,0.08813 -7.023288,1.31928 -3.203509,1.539236 -3.231249,1.567016 -2.544317,2.547748 0.772189,1.102453 0.734479,1.810189 -0.156824,2.943297 -0.490227,0.623223 -1.082356,0.939855 -1.757611,0.939855 -1.037991,0 -2.496901,-1.376392 -2.496901,-2.355672 0,-0.883935 1.488957,-3.340415 2.582462,-4.260537 2.117581,-1.781828 6.937358,-3.728094 9.232329,-3.728094 0.54137,0 1.08718,-0.166447 1.21291,-0.369884 0.12573,-0.203433 0.11635,-1.567811 -0.0209,-3.031951 l -0.24945,-2.662067 -6.467872,-0.0055 c -3.557327,-0.003 -6.691827,-0.147273 -6.965553,-0.320596 -0.631603,-0.399932 -0.346583,-2.894239 0.473788,-4.146284 l 0.575392,-0.87816 H 103.62957 116.6409 V 59.951098 c 0,-12.445951 0.0612,-13.947047 0.5904,-14.476228 1.35856,-1.358565 3.78997,-1.443013 4.94058,-0.171598 0.52497,0.580085 0.52652,0.951296 0.0182,4.374413 -0.68865,4.637822 -0.69469,10.003663 -0.0204,18.095337 0.70873,8.504572 0.69202,9.473934 -0.17835,10.344303 -0.66584,0.665841 -1.189,0.713401 -7.8474,0.713401 h -7.13401 l -0.003,1.337625 c -0.002,0.735694 -0.10432,2.180329 -0.22803,3.210301 l -0.22494,1.872676 1.20896,0.0075 c 3.15052,0.01962 9.14668,3.172708 11.0623,5.817144 1.25472,1.732097 1.28676,2.507823 0.15048,3.644098 -1.12121,1.121212 -2.13309,1.109641 -3.28024,-0.03751 -0.70468,-0.704683 -0.86123,-1.132042 -0.68596,-1.872676 0.12489,-0.527795 0.26216,-1.198769 0.30503,-1.491056 0.11357,-0.774211 -3.92578,-2.799279 -6.7711,-3.394598 -1.31831,-0.275825 -2.46222,-0.436197 -2.54204,-0.356382 -0.36404,0.364037 -0.48305,3.390656 -0.13332,3.390656 0.74904,0 1.49866,1.144814 1.49866,2.288744 0,1.568058 -1.51662,2.858285 -2.8536,2.427616 z"
     id="path1097" />
  <path
     style="fill:#000000;fill-rule:evenodd;stroke-width:0.03567;stroke-linejoin:round"
     d="m 94.671243,30.025117 c -5.866449,-2.027914 -8.598941,-9.131643 -5.463808,-14.204397 1.229882,-1.98999 3.83548,-4.013462 5.965399,-4.632646 6.425396,-1.8679134 13.028996,3.601462 12.441266,10.304382 -0.34916,3.982137 -3.23397,7.489942 -7.10515,8.639559 -2.340469,0.695045 -3.583664,0.67228 -5.837707,-0.106898 z"
     id="path1136" />
  <path
     style="fill:#000000;fill-rule:evenodd;stroke-width:0.03567;stroke-linejoin:round"
     d="m 18.15929,29.786754 c -2.198354,-0.705903 -4.86854,-3.121846 -5.90108,-5.339205 -1.775977,-3.813876 -0.800974,-8.532845 2.349914,-11.37348 2.110566,-1.902749 3.670944,-2.494959 6.615533,-2.510795 2.103476,-0.01131 2.798084,0.151251 4.408386,1.031714 4.505504,2.463472 6.455168,7.299132 4.846457,12.02044 -1.646576,4.832433 -7.444147,7.736734 -12.31921,6.171326 z"
     id="path1175" />
</svg>
