<svg  xmlns="http://www.w3.org/2000/svg"
  viewBox="0 0 122.88 122.88" > 
   <path
     style="fill:#333333;fill-rule:evenodd;stroke-width:0.010587;stroke-linejoin:round"
     d="M 0,62.251305 V 48.064783 h 8.2071384 8.2071386 l -0.06094,1.720381 c -0.08652,2.442421 -0.578868,24.145618 -0.578815,25.514565 l 4.3e-5,1.138098 H 7.8872827 0 Z"
     id="path939" />
  <path
     style="fill:#000000;fill-rule:evenodd;stroke-width:0.010587;stroke-linejoin:round"
     d="M 37.689566,82.672668 C 34.963955,82.364197 32.283719,81.407192 29.22,79.648525 c -0.611396,-0.35096 -3.112565,-1.724663 -5.558152,-3.052673 -2.445587,-1.328009 -4.483755,-2.44669 -4.529262,-2.485958 -0.08345,-0.07201 0.429759,-23.410137 0.516703,-23.497081 0.02572,-0.02572 2.439773,0.0073 5.364555,0.07344 l 5.317787,0.12021 1.276853,0.3678 c 3.16708,0.912284 6.568691,2.596601 11.020476,5.456818 l 0.863416,0.554735 4.112454,0.09861 c 2.261849,0.05424 4.398301,0.150433 4.747671,0.213767 0.875206,0.158658 1.704921,0.583207 2.309339,1.181645 0.658553,0.652037 0.946184,1.300997 0.946038,2.134474 -1.06e-4,0.868059 -0.325383,1.538084 -1.136164,2.340677 -0.772297,0.764499 -2.40127,1.625268 -3.694834,1.952397 -1.781769,0.450591 -4.154673,0.518088 -7.024353,0.199808 -1.365093,-0.151404 -1.875625,-0.03439 -2.404628,0.551156 -0.636332,0.704344 -0.63181,1.614824 0.01156,2.326955 0.425925,0.471448 0.843044,0.619262 1.848814,0.65516 1.389286,0.04959 5.796183,-0.142009 6.848023,-0.297727 2.678532,-0.39654 4.673509,-1.306882 6.192259,-2.825634 0.873801,-0.8738 1.184611,-1.352694 1.871446,-2.88352 0.313504,-0.698739 0.620949,-1.327935 0.683211,-1.398213 0.216724,-0.244626 12.388492,-5.867351 13.027709,-6.018126 1.34141,-0.316406 2.774184,-0.162685 4.028197,0.43218 2.645664,1.25502 3.694665,4.222788 2.398192,6.784807 -0.638038,1.260856 -1.02783,1.61967 -3.709355,3.414567 -7.460104,4.993471 -15.163778,9.300366 -22.777734,12.734351 -0.902538,0.407055 -2.498522,1.163002 -3.546631,1.67988 -1.048108,0.516879 -2.386439,1.104745 -2.974069,1.306369 -2.505679,0.859735 -5.151426,1.175849 -7.559952,0.903265 z"
     id="path978" />
  <path
     style="fill:#000000;fill-rule:evenodd;stroke-width:0.010587;stroke-linejoin:round"
     d="M 0,62.251305 V 48.064783 l 8.178424,-1.03e-4 8.178424,-1.04e-4 -0.02791,1.138202 c -0.01535,0.62601 -0.05729,2.18631 -0.0932,3.467331 -0.06126,2.185257 -0.09297,3.497478 -0.219359,9.078104 -0.02803,1.237467 -0.07616,3.298049 -0.106957,4.57907 -0.0308,1.281022 -0.07987,4.079949 -0.10905,6.219837 l -0.05305,3.890707 H 7.8736601 0 Z"
     id="path1054" />
  <path
     style="fill:#000000;fill-rule:evenodd;stroke-width:0.010587;stroke-linejoin:round"
     d="m 57.832591,40.818314 c -2.447884,-0.558106 -3.939326,-2.773972 -3.816074,-5.669618 0.0521,-1.223904 0.256585,-1.704572 1.869162,-4.393587 1.412372,-2.355169 2.039348,-3.647907 2.588957,-5.338078 l 0.450663,-1.385886 0.298781,0.917453 c 0.469101,1.440443 1.517993,3.408994 2.981031,5.594772 1.513618,2.261343 2.015407,3.219787 2.165127,4.135505 0.188007,1.149906 -0.165305,2.950548 -0.787143,4.011634 -0.316601,0.540239 -1.165972,1.345267 -1.713764,1.624294 -1.095228,0.557873 -2.84244,0.775807 -4.03674,0.503511 z"
     id="path1093" />
  <path
     style="fill:#000000;fill-rule:evenodd;stroke-width:0.010587;stroke-linejoin:round"
     d="m 75.06289,39.959976 c -0.832375,-1.761122 -1.063697,-2.526468 -1.13539,-3.756523 -0.08231,-1.412186 0.148546,-2.494378 0.833496,-3.907221 0.463433,-0.955924 0.659819,-1.229098 1.450493,-2.017643 0.798012,-0.795862 1.079675,-0.996044 2.211392,-1.571674 0.713297,-0.362807 1.296902,-0.697068 1.296902,-0.742803 0,-0.04574 -0.724539,-1.580329 -1.610087,-3.410209 -2.157167,-4.457527 -2.158039,-4.525306 -0.07099,-5.517685 0.633451,-0.301202 1.151731,-0.580368 1.151731,-0.620369 0,-0.137921 -2.544341,-5.341016 -2.625242,-5.368531 -0.04459,-0.01517 -3.943985,1.826848 -8.665326,4.093364 -4.721342,2.266515 -8.674077,4.13051 -8.783856,4.14221 -0.478058,0.05095 -0.690143,-0.04424 -1.686554,-0.75702 -1.272106,-0.909995 -3.809931,-2.927359 -4.177066,-3.32043 -0.567658,-0.607758 -0.249984,-1.718859 0.606665,-2.121879 0.219503,-0.103267 7.283264,-3.497421 15.697248,-7.5425648 8.413984,-4.0451437 15.428251,-7.39311201 15.587262,-7.43992954 0.367092,-0.10808304 0.956247,0.0523183 1.299529,0.35380514 0.152187,0.13365877 0.762607,1.2856454 1.429414,2.6975972 1.703401,3.6069247 1.705799,3.5962543 -1.112136,4.9479016 l -1.845945,0.8854239 1.262787,2.6144415 c 0.694533,1.437943 1.280384,2.667232 1.301891,2.731754 0.02377,0.07132 0.489912,-0.08892 1.189077,-0.408763 1.537969,-0.70357 2.055865,-0.687899 2.625329,0.07944 0.139861,0.188459 0.933913,1.771893 1.764558,3.518741 0.830646,1.746848 1.539964,3.208422 1.576261,3.247943 0.0363,0.03952 0.61387,-0.183725 1.283495,-0.496101 0.669625,-0.312374 1.550989,-0.654196 1.958587,-0.759603 0.977928,-0.252896 2.803635,-0.24892 3.758365,0.0082 1.62022,0.436316 3.23319,1.49666 4.2188,2.773369 0.44986,0.582733 1.92169,3.359662 1.92162,3.625557 -2e-5,0.05725 -31.303402,15.093602 -31.895929,15.320976 -0.14481,0.05557 -0.297924,-0.18483 -0.81638,-1.281766 z m 12.232493,-15.51426 5.317171,-2.551024 -0.505556,-1.075009 c -1.402891,-2.983091 -2.324219,-4.833378 -2.406721,-4.833378 -0.122498,0 -10.536417,4.968132 -10.656798,5.084001 -0.05399,0.05197 0.324744,0.960884 0.889661,2.135042 0.541026,1.124499 1.169232,2.437584 1.396017,2.917968 0.226783,0.480383 0.465596,0.873423 0.530695,0.873423 0.0651,0 2.511088,-1.14796 5.435531,-2.551023 z m -3.896632,-7.945517 c 1.120894,-0.535046 2.037989,-1.031911 2.037989,-1.104143 0,-0.199966 -2.514707,-5.33823 -2.613413,-5.33995 -0.158376,-0.0028 -4.160298,1.95907 -4.134608,2.026874 0.135259,0.356996 2.579271,5.382878 2.619108,5.385948 0.02911,0.0022 0.97003,-0.433684 2.090924,-0.968729 z"
     id="path1132" />
  <path
     style="fill:#000000;fill-rule:evenodd;stroke-width:0.010587;stroke-linejoin:round"
     d="m 75.058379,39.959101 c -0.823492,-1.744948 -1.059337,-2.528186 -1.130879,-3.755648 -0.08231,-1.412186 0.148546,-2.494378 0.833496,-3.907221 0.463433,-0.955924 0.659819,-1.229098 1.450493,-2.017643 0.798794,-0.796641 1.079204,-0.995806 2.216417,-1.574236 1.076713,-0.547658 1.291318,-0.695636 1.240599,-0.85544 -0.03373,-0.106276 -0.760904,-1.639717 -1.615941,-3.407647 -2.093099,-4.327831 -2.093326,-4.416274 -0.01386,-5.405048 0.633451,-0.301202 1.151731,-0.581105 1.151731,-0.622006 0,-0.07419 -2.518477,-5.299283 -2.587516,-5.368321 -0.05263,-0.05263 -0.55718,0.185125 -9.375745,4.418176 -5.504682,2.642334 -8.10135,3.836846 -8.340692,3.836864 -0.240107,1.7e-5 -0.567372,-0.151214 -1.058695,-0.489232 -1.020738,-0.702242 -3.615389,-2.723502 -4.276804,-3.331675 -0.532084,-0.489252 -0.563266,-0.5464 -0.563266,-1.032289 0,-0.644929 0.299958,-1.096004 0.924716,-1.390583 0.248374,-0.117111 7.311936,-3.510897 15.696806,-7.5417483 8.38487,-4.0308512 15.375316,-7.36721376 15.534327,-7.41413907 0.367065,-0.10832375 0.956039,0.0519396 1.299529,0.35360917 0.152187,0.13365877 0.762607,1.2856454 1.429414,2.6975972 1.703401,3.6069247 1.705799,3.5962543 -1.112136,4.9479016 l -1.845945,0.8854239 1.262787,2.6144415 c 0.694533,1.437943 1.280096,2.666368 1.30125,2.729832 0.02307,0.0692 0.437924,-0.06864 1.036359,-0.34434 0.548841,-0.252854 1.13819,-0.501016 1.309663,-0.551475 0.466754,-0.137348 1.067536,0.06578 1.390064,0.469993 0.151687,0.190106 0.984624,1.820179 1.850967,3.622384 0.866344,1.802206 1.629197,3.263202 1.695228,3.246658 0.06603,-0.01654 0.629591,-0.262857 1.252356,-0.547364 0.622766,-0.284506 1.439703,-0.601505 1.815415,-0.704442 0.930536,-0.254945 2.866473,-0.255323 3.806263,-7.41e-4 1.62714,0.440776 3.2333,1.498274 4.2246,2.781496 0.45792,0.592763 1.91584,3.346298 1.91584,3.618398 0,0.04101 -1.6079,0.843562 -3.5731,1.783457 -1.9652,0.939892 -8.218125,3.933908 -13.895381,6.653366 -12.153255,5.821521 -14.48562,6.931671 -14.563066,6.931671 -0.03169,0 -0.34007,-0.598514 -0.685294,-1.33003 z M 87.28662,24.445747 92.613922,21.894755 92.055288,20.713844 c -2.048908,-4.331236 -2.267078,-4.745241 -2.467157,-4.681739 -0.298172,0.09464 -10.438086,4.937318 -10.538916,5.03324 -0.124641,0.118573 2.638311,5.931394 2.819312,5.931394 0.04994,0 2.488078,-1.147946 5.418093,-2.550992 z m -3.887869,-7.947621 c 1.120894,-0.535619 2.037989,-1.031148 2.037989,-1.101174 0,-0.270091 -2.535279,-5.339051 -2.667284,-5.332887 -0.208408,0.0097 -4.026132,1.94315 -4.031324,2.041592 -0.0062,0.117244 2.503665,5.35264 2.569695,5.360234 0.02911,0.0033 0.97003,-0.432146 2.090924,-0.967765 z"
     id="path1171" />
  <path
     style="fill:#000000;fill-rule:evenodd;stroke-width:0.010587;stroke-linejoin:round"
     d="M 83.377151,57.280519 C 80.934241,52.18275 78.452824,47.010863 77.86289,45.787438 l -1.072607,-2.224412 15.981935,-7.674393 c 8.790062,-4.220917 16.011792,-7.686249 16.048282,-7.700739 0.0702,-0.02787 11.02557,22.738393 11.02144,22.90355 -10e-4,0.05307 -5.56345,2.762382 -12.36027,6.020694 -6.79683,3.258312 -14.00149,6.714594 -16.010365,7.680627 l -3.6525,1.756426 z m 19.048059,-1.713492 c 1.22508,-0.603886 1.86465,-0.980452 2.01152,-1.184362 0.39069,-0.542426 0.28157,-0.980704 -0.83253,-3.343691 -0.56025,-1.188265 -1.00626,-2.168448 -0.99114,-2.178183 0.0151,-0.0097 1.00413,-0.483665 2.19781,-1.05318 1.19368,-0.569515 2.27759,-1.134137 2.40869,-1.254717 0.29841,-0.27445 0.45986,-0.836442 0.35018,-1.218872 -0.0867,-0.30226 -0.46878,-1.140369 -1.32148,-2.898567 -0.86563,-1.784873 -1.06277,-1.799968 -4.13352,-0.316507 -1.22085,0.589783 -2.248233,1.03739 -2.283083,0.994682 -0.03485,-0.04271 -0.536677,-1.070667 -1.115172,-2.284351 -1.153624,-2.420304 -1.317177,-2.626657 -2.08742,-2.63366 -0.677273,-0.0062 -4.123327,1.684125 -4.417648,2.166849 -0.365075,0.598767 -0.284953,0.908864 0.847932,3.281795 0.582282,1.219644 1.058696,2.24899 1.058696,2.287437 0,0.03845 -1.024607,0.54092 -2.276904,1.116609 -3.225751,1.482899 -3.211241,1.444615 -1.7098,4.511191 1.334725,2.726073 1.287194,2.713977 4.538843,1.155103 1.224265,-0.586924 2.265315,-1.027606 2.313446,-0.979293 0.04813,0.04831 0.534719,1.040669 1.081307,2.205234 1.442851,3.074147 1.431794,3.070023 4.360273,1.626483 z"
     id="path1210" />
  <path
     style="fill:#1a1a1a;fill-rule:evenodd;stroke-width:0.010587;stroke-linejoin:round"
     d="M 95.153439,75.16974 C 93.605981,74.776227 92.062897,73.818155 91.085488,72.644026 90.70392,72.185662 90.241932,71.413899 89.767183,70.441769 89.3652,69.618638 89.036305,68.902226 89.036305,68.849742 c 0,-0.05248 7.181927,-3.556372 15.959835,-7.786419 l 15.95984,-7.690994 0.60301,1.236934 c 0.70312,1.442298 0.98223,2.226213 1.15392,3.240914 0.27112,1.602348 -0.17928,3.68506 -1.12585,5.206137 -0.57552,0.924813 -1.80876,2.115094 -2.70952,2.615132 -1.38767,0.77034 -19.051775,9.172924 -19.747182,9.39348 -1.056955,0.335227 -2.881721,0.383319 -3.976919,0.104814 z"
     id="path1249" />
  <path
     style="fill:#1a1a1a;fill-rule:evenodd;stroke-width:0.0157136;stroke-linejoin:round"
     d="M 0,62.225676 V 48.083477 H 8.1584546 16.31691 l -0.06767,1.453504 c -0.0879,1.888082 -0.348858,13.167325 -0.481707,20.82046 L 15.6632,76.367876 H 7.8316014 0 Z"
     id="path1545" />
  <path
     style="fill:#1a1a1a;fill-rule:evenodd;stroke-width:0.0157136;stroke-linejoin:round"
     d="M 36.156401,82.320866 C 34.594616,81.99307 32.581479,81.274213 31.027263,80.489337 29.628379,79.782902 19.426001,74.167414 19.279206,74.023089 c -0.113232,-0.111324 -0.0041,-6.928907 0.3069,-19.165041 l 0.105372,-4.14635 5.357125,0.07744 5.357125,0.07744 1.911237,0.64124 c 3.010538,1.010068 5.618639,2.309472 9.470877,4.718566 l 1.639711,1.025434 4.312223,0.129242 c 2.371722,0.07108 4.568359,0.200337 4.881414,0.287229 1.998461,0.5547 3.110692,2.084648 2.783476,3.828855 -0.167774,0.894311 -1.333716,2.042087 -2.817462,2.773559 -2.039208,1.005312 -3.033237,1.149003 -7.148565,1.033361 l -3.509083,-0.09861 -0.537157,0.537157 c -0.455219,0.455219 -0.537157,0.647039 -0.537157,1.257501 0,0.566934 0.09369,0.825207 0.43994,1.212724 0.629609,0.704655 1.488932,0.801795 5.408299,0.61137 4.46084,-0.216732 6.144454,-0.605148 8.08117,-1.864352 1.426144,-0.927242 2.245142,-1.880814 3.276933,-3.815378 l 0.942814,-1.767735 2.592736,-1.220789 c 5.786408,-2.724528 9.966019,-4.56051 10.76214,-4.727499 0.615451,-0.129092 1.090821,-0.130386 1.766084,-0.0048 4.036292,0.750627 5.805047,4.58235 3.618822,7.839596 -0.321358,0.478791 -1.009481,1.118979 -1.847711,1.718998 -3.029808,2.168789 -8.773109,5.722598 -13.539946,8.378178 -4.103166,2.285851 -15.542275,7.786455 -17.567867,8.447673 -2.72315,0.888927 -5.931909,1.079532 -8.632255,0.512771 z"
     id="path1584" />
  <path
     style="fill:#1a1a1a;fill-rule:evenodd;stroke-width:0.0157136;stroke-linejoin:round"
     d="m 57.406715,40.574754 c -1.905393,-0.682813 -3.023699,-2.214164 -3.293528,-4.509991 -0.159753,-1.359253 0.156726,-2.319028 1.580585,-4.793384 1.695757,-2.946852 2.32262,-4.217679 2.771696,-5.619001 0.200797,-0.626578 0.410685,-1.139233 0.466419,-1.139233 0.05573,0 0.189406,0.300522 0.29705,0.667826 0.286857,0.978814 1.516603,3.259101 3.068988,5.690746 1.906477,2.986293 2.022457,3.28207 1.937119,4.940116 -0.115784,2.249578 -1.081068,3.798655 -2.854409,4.58072 -1.089599,0.480527 -2.908702,0.563931 -3.97392,0.182201 z"
     id="path1623" />
  <path
     style="fill:#1a1a1a;fill-rule:evenodd;stroke-width:0.0157136;stroke-linejoin:round"
     d="m 75.271363,40.233509 c -0.828395,-1.641041 -1.260521,-3.164882 -1.260521,-4.445074 0,-2.962452 1.571478,-5.447379 4.44086,-7.022188 0.668811,-0.367064 1.21602,-0.758869 1.21602,-0.870676 0,-0.111807 -0.63492,-1.54845 -1.410936,-3.19254 -0.776014,-1.644089 -1.496944,-3.310833 -1.602066,-3.703875 -0.172272,-0.644105 -0.160968,-0.748034 0.114566,-1.053251 0.168135,-0.186247 0.782999,-0.579208 1.366364,-0.873247 0.583366,-0.294038 1.060665,-0.602504 1.060665,-0.685483 0,-0.337591 -2.505042,-5.344925 -2.673931,-5.344925 -0.100364,0 -3.870836,1.757218 -8.378827,3.904929 -4.50799,2.147709 -8.462605,4.000796 -8.788033,4.117969 -0.718627,0.258746 -0.876153,0.181053 -3.152002,-1.554579 -2.544244,-1.94032 -3.091707,-2.48696 -3.091707,-3.087059 0,-0.284902 0.123744,-0.667075 0.274987,-0.849272 0.151243,-0.182198 5.224757,-2.707691 11.274475,-5.6122075 17.474677,-8.3897258 20.489055,-9.80489495 20.884898,-9.80489495 0.204684,0 0.519007,0.12374424 0.698495,0.2749872 0.353525,0.29789345 2.00339,3.54387385 2.472229,4.86392045 0.467943,1.3175262 0.321565,1.5232856 -1.89951,2.6700983 -1.144921,0.5911596 -1.866066,1.0541006 -1.83583,1.1785166 0.04456,0.1833558 2.373693,5.1591459 2.473639,5.2844999 0.02248,0.02819 0.558579,-0.166265 1.19134,-0.432123 1.223541,-0.514077 1.697749,-0.583162 2.190982,-0.319191 0.174851,0.09358 1.049205,1.64785 2.033116,3.614117 0.949482,1.897462 1.819639,3.449931 1.933681,3.449931 0.114045,0 0.794801,-0.254574 1.512793,-0.565718 2.377599,-1.030345 4.52401,-1.036563 6.66274,-0.0193 1.66156,0.790296 2.67737,1.810982 3.7716,3.789701 0.50637,0.915665 0.88515,1.757386 0.84175,1.870489 -0.0434,0.113105 -3.074,1.644168 -6.73467,3.402362 -12.83687,6.165457 -24.955263,11.950089 -25.034589,11.950089 -0.04405,0 -0.292705,-0.421202 -0.552578,-0.936004 z M 87.35081,24.488876 c 4.944081,-2.353349 5.323579,-2.562447 5.204689,-2.867724 -0.07053,-0.181107 -0.702302,-1.513695 -1.403931,-2.961306 -0.808035,-1.667145 -1.362063,-2.63202 -1.5113,-2.63202 -0.129585,0 -1.807698,0.748931 -3.729141,1.664293 -1.921444,0.915362 -4.253676,2.021907 -5.18274,2.458991 -0.946539,0.445304 -1.689207,0.889954 -1.689207,1.011359 0,0.49207 2.589788,5.864845 2.826977,5.864845 0.08345,0 2.55154,-1.142297 5.484653,-2.538438 z m -3.821683,-7.989103 c 1.073935,-0.51825 1.95261,-1.017565 1.95261,-1.109589 0,-0.39391 -2.540343,-5.333509 -2.742923,-5.333509 -0.388128,0 -4.013905,1.892475 -4.013905,2.095059 0,0.35453 2.496819,5.290312 2.676163,5.290312 0.0965,0 1.05412,-0.424023 2.128055,-0.942273 z"
     id="path1662" />
  <path
     style="fill:#1a1a1a;fill-rule:evenodd;stroke-width:0.0157136;stroke-linejoin:round"
     d="m 82.410295,55.048402 c -3.001757,-6.25528 -5.421904,-11.409072 -5.378106,-11.45287 0.142405,-0.142405 31.145781,-15.0046 31.478221,-15.089825 0.28586,-0.07328 0.54431,0.370121 2.26983,3.894236 4.29736,8.776711 8.93511,18.596703 8.83135,18.699518 -0.11466,0.113616 -8.10303,3.978085 -22.99788,11.125496 l -8.745676,4.196682 z m 19.982145,0.60074 c 1.02775,-0.50581 1.96579,-1.036713 2.08453,-1.179785 0.36085,-0.434792 0.12129,-1.463647 -0.82501,-3.543334 -0.48803,-1.072549 -0.85852,-1.978902 -0.82331,-2.014118 0.0352,-0.03522 1.05522,-0.548093 2.26667,-1.139724 2.23222,-1.090147 2.54253,-1.350921 2.54253,-2.136676 0,-0.510285 -1.28435,-3.384875 -1.84545,-4.130425 -0.36523,-0.485292 -0.45271,-0.522499 -1.06594,-0.453379 -0.36743,0.04142 -1.53632,0.473776 -2.59754,0.960802 -1.06122,0.487025 -2.00811,0.885501 -2.10421,0.885501 -0.0961,0 -0.632077,-0.923434 -1.191063,-2.052075 -0.558988,-1.128641 -1.172561,-2.198838 -1.3635,-2.378214 -0.512086,-0.481081 -1.476252,-0.312503 -3.251416,0.568488 -1.732671,0.859903 -2.294436,1.326104 -2.294436,1.90412 0,0.227898 0.430279,1.344972 0.956176,2.482388 0.525898,1.137416 0.967842,2.167454 0.982097,2.288972 0.01609,0.137149 -0.748797,0.604151 -2.016841,1.231385 -2.376573,1.175559 -2.749872,1.46983 -2.749872,2.16771 0,0.691856 1.75359,4.22155 2.263204,4.555461 0.532264,0.348753 0.959706,0.237599 3.40398,-0.885188 1.109113,-0.509476 2.060123,-0.926321 2.113354,-0.926321 0.05323,0 0.515739,0.886413 1.027794,1.969804 1.032673,2.184907 1.473458,2.744263 2.162543,2.744263 0.25139,0 1.29796,-0.413845 2.32571,-0.919655 z"
     id="path1701" />
  <path
     style="fill:#1a1a1a;fill-rule:evenodd;stroke-width:0.0157136;stroke-linejoin:round"
     d="M 94.901231,74.971692 C 92.596619,74.234185 91.148949,72.922346 89.905693,70.44487 l -0.79227,-1.578782 3.330346,-1.61683 c 10.946821,-5.314509 28.295661,-13.666037 28.388811,-13.666037 0.19751,0 1.40444,2.7261 1.66935,3.770577 0.32226,1.27056 0.21396,2.715404 -0.31218,4.164882 -0.73966,2.037754 -2.1024,3.434608 -4.54801,4.661871 -5.17297,2.595918 -18.155772,8.674992 -19.039185,8.914918 -0.931888,0.25309 -2.70941,0.193647 -3.701324,-0.123777 z"
     id="path1740" />
  <path
     style="fill:#1a1a1a;fill-rule:evenodd;stroke-width:0.0157136;stroke-linejoin:round"
     d="m 87.606009,65.689183 c -0.157506,-0.349286 -0.358132,-0.635067 -0.445835,-0.635067 -0.0877,0 -0.118408,-0.04105 -0.06823,-0.09123 0.118182,-0.118182 -1.412133,-3.399432 -1.658477,-3.556052 -0.103086,-0.06554 -0.13855,-0.120246 -0.07881,-0.121569 0.154358,-0.0034 -1.585821,-3.666214 -1.809346,-3.80838 -0.101697,-0.06468 -0.136023,-0.118686 -0.07628,-0.120009 0.115816,-0.0026 -1.551236,-3.635203 -1.730778,-3.771503 -0.05849,-0.0444 -0.126278,-0.175905 -0.150651,-0.292237 -0.08289,-0.395605 -1.651148,-3.638307 -1.759588,-3.638307 -0.05935,0 -0.107913,-0.09252 -0.107913,-0.205593 0,-0.113077 -0.586301,-1.459541 -1.302891,-2.992147 -0.71659,-1.532604 -1.273181,-2.816264 -1.236869,-2.852576 0.03631,-0.03631 1.194194,-0.603789 2.57307,-1.26106 1.378877,-0.65727 2.530766,-1.261442 2.559753,-1.342605 0.02899,-0.08116 0.117377,-0.107599 0.19642,-0.05875 0.07904,0.04885 0.143714,0.0022 0.143714,-0.103778 0,-0.105929 0.04156,-0.15104 0.09235,-0.100247 0.119346,0.119347 3.709097,-1.56478 3.867884,-1.814613 0.06626,-0.104255 0.121559,-0.139189 0.122882,-0.07763 0.0034,0.158657 3.659571,-1.578383 3.805507,-1.807996 0.06626,-0.104254 0.121559,-0.139188 0.122882,-0.07763 0.0026,0.120136 3.628974,-1.544019 3.768629,-1.729428 0.04598,-0.06104 0.17878,-0.130927 0.295112,-0.155301 0.395604,-0.08289 3.638307,-1.651148 3.638307,-1.759588 0,-0.05935 0.08896,-0.107912 0.19768,-0.107912 0.276401,0 3.416439,-1.490088 3.416439,-1.621252 0,-0.05898 0.0906,-0.107239 0.20124,-0.107239 0.11067,0 1.57244,-0.651073 3.24836,-1.446829 1.67591,-0.795755 3.13141,-1.414482 3.23444,-1.374948 0.10302,0.03953 0.56123,0.802565 1.01825,1.695626 0.45701,0.893061 0.87319,1.659102 0.92483,1.702314 0.0516,0.04321 0.11722,0.184635 0.14573,0.314272 0.0285,0.129636 1.06107,2.321677 2.2946,4.871201 1.23352,2.549525 2.54629,5.289576 2.91725,6.089003 0.37097,0.799427 0.73911,1.453504 0.8181,1.453504 0.079,0 0.11065,0.05335 0.0703,0.118557 -0.0403,0.06521 0.5501,1.461749 1.312,3.103427 0.76189,1.641678 1.3387,3.031971 1.28179,3.089538 -0.0569,0.05757 -2.26015,1.145474 -4.8961,2.417569 -8.11019,3.913937 -26.310459,12.668571 -26.489814,12.742045 -0.09329,0.03822 -0.298481,-0.216297 -0.455988,-0.565584 z m 14.650701,-9.905209 c 0.79901,-0.371238 1.45275,-0.735432 1.45275,-0.809322 0,-0.07389 0.10102,-0.134346 0.22448,-0.134346 0.38033,0 0.71845,-0.469047 0.71605,-0.993322 -0.003,-0.585073 -0.25676,-1.352203 -1.1183,-3.376398 -0.34558,-0.81194 -0.60606,-1.496252 -0.57883,-1.520696 0.0272,-0.02445 0.72125,-0.37967 1.54228,-0.789387 0.82103,-0.409718 1.53605,-0.812832 1.58892,-0.89581 0.0529,-0.08298 0.14127,-0.144832 0.19642,-0.13745 0.28026,0.03751 0.39687,-0.02132 0.85766,-0.432718 0.57641,-0.514615 0.65102,-1.120446 0.25176,-2.044282 -0.65079,-1.505874 -1.39703,-3.009323 -1.49368,-3.009323 -0.059,0 -0.14018,-0.125561 -0.18031,-0.279024 -0.0907,-0.346987 -0.88403,-0.43086 -1.67675,-0.177279 -0.31097,0.09948 -1.29532,0.495925 -2.18744,0.880998 -0.89212,0.385072 -1.71067,0.666119 -1.819,0.624547 -0.108334,-0.04157 -0.403729,-0.471267 -0.656432,-0.954879 -0.252704,-0.483612 -0.516668,-0.879462 -0.586587,-0.879668 -0.06992,-2.05e-4 -0.08342,-0.07108 -0.03001,-0.157508 0.05341,-0.08642 0.01806,-0.157136 -0.07857,-0.157136 -0.09663,0 -0.137162,-0.06233 -0.09008,-0.138507 0.04708,-0.07618 -0.07249,-0.376701 -0.265713,-0.667827 -0.193223,-0.291125 -0.452675,-0.725682 -0.576557,-0.965681 -0.428704,-0.830534 -1.552649,-0.763585 -3.505226,0.208789 -0.713829,0.355484 -1.535775,0.827052 -1.826549,1.047929 -0.48179,0.365978 -0.521893,0.458899 -0.452174,1.047704 0.04208,0.35536 0.472685,1.529997 0.956905,2.610304 l 0.880402,1.964194 -0.349659,0.292951 c -0.192314,0.161124 -0.986059,0.61199 -1.76388,1.001926 -0.777821,0.389937 -1.687213,0.924327 -2.020873,1.187535 -0.562182,0.443477 -0.601306,0.525995 -0.533711,1.125691 0.04012,0.355923 0.367337,1.245346 0.727154,1.976496 1.193589,2.425381 1.481003,2.749605 2.317151,2.613917 0.612243,-0.09935 4.197719,-1.647557 4.273782,-1.845413 0.144031,-0.374658 0.614006,0.242073 1.439751,1.889332 1.214413,2.422601 1.466821,2.713591 2.282816,2.631754 0.34611,-0.03471 1.28304,-0.366854 2.08205,-0.738091 z"
     id="path1816" />
  <path
     style="fill:#1a1a1a;fill-rule:evenodd;stroke-width:0.0157136;stroke-linejoin:round"
     d="m 75.875977,41.004032 c -0.138913,-0.07774 -0.341129,-0.355151 -0.449372,-0.616472 -0.108244,-0.261323 -0.247153,-0.475131 -0.308688,-0.475131 -0.06154,0 -0.114889,-0.08839 -0.118563,-0.19642 -0.0037,-0.10803 -0.199916,-0.762098 -0.436095,-1.453483 -0.543623,-1.591397 -0.581499,-3.446795 -0.09864,-4.831939 0.173234,-0.496941 0.265747,-0.904612 0.205583,-0.905935 -0.06016,-0.0013 -0.03401,-0.05436 0.05812,-0.117851 0.09213,-0.0635 0.384998,-0.435264 0.650821,-0.826153 0.602803,-0.886411 1.593149,-1.800079 2.717223,-2.50684 0.475335,-0.298865 0.899601,-0.586227 0.942813,-0.63858 0.04321,-0.05235 0.202312,-0.140842 0.353555,-0.196644 0.32083,-0.118372 0.352192,-0.463082 0.08612,-0.946613 -0.103874,-0.188773 -0.202067,-0.413936 -0.218208,-0.50036 -0.0771,-0.412849 -1.383833,-3.064143 -1.510211,-3.064143 -0.07921,0 -0.107102,-0.05975 -0.06197,-0.132772 0.04513,-0.07302 -0.161964,-0.691745 -0.460213,-1.374936 -0.844082,-1.933512 -0.790705,-2.107501 0.945718,-3.082648 0.51802,-0.290909 0.96471,-0.647613 0.992646,-0.792673 0.04646,-0.241233 -2.16955,-4.883919 -2.484502,-5.205202 -0.07479,-0.07629 -0.264479,-0.08329 -0.421531,-0.01555 -0.157053,0.06774 -0.356261,0.141408 -0.442686,0.163703 -0.439799,0.113456 -2.372434,1.072275 -2.472479,1.226648 -0.0635,0.09797 -0.116529,0.129929 -0.117852,0.07101 -0.0025,-0.111373 -3.006832,1.246882 -3.145116,1.421904 -0.04321,0.05469 -0.165599,0.116667 -0.271971,0.13772 -0.376666,0.07455 -3.342147,1.501384 -3.342147,1.608068 0,0.05958 -0.09781,0.108334 -0.21736,0.108334 -0.276273,0 -3.082486,1.328432 -3.082486,1.459218 0,0.0537 -0.123745,0.10789 -0.274988,0.120424 -0.151243,0.01254 -1.038051,0.381135 -1.970686,0.819116 -1.776858,0.834444 -2.112585,0.911722 -2.675142,0.61576 -0.548352,-0.288488 -4.069707,-3.037202 -4.570672,-3.567794 -0.532573,-0.564069 -0.599831,-1.375636 -0.142596,-1.720626 0.156485,-0.11807 1.486606,-0.818294 2.955823,-1.556052 1.469217,-0.737759 2.70666,-1.385809 2.749872,-1.440112 0.04321,-0.0543 0.184634,-0.121989 0.314271,-0.150414 0.309935,-0.06796 11.683182,-5.532271 11.785166,-5.6622208 0.04321,-0.055062 0.170252,-0.1188886 0.28231,-0.1418373 0.303796,-0.062215 7.157855,-3.3321628 7.255078,-3.4612665 0.04603,-0.061119 0.189753,-0.1318518 0.319389,-0.157183 0.129637,-0.025331 1.541403,-0.6528913 3.137256,-1.394578 2.8883,-1.34236194 3.427198,-1.50737453 3.830282,-1.17284504 0.116422,0.0966219 0.623717,0.97167044 1.12732,1.94455234 0.503606,0.972882 0.974697,1.7925935 1.046872,1.8215811 0.07217,0.028988 0.0959,0.1098645 0.05272,0.1797263 -0.04318,0.069862 0.02709,0.3797507 0.156157,0.688642 0.542275,1.2978477 0.210354,1.8256617 -1.792999,2.8511923 -0.570067,0.2918213 -1.223595,0.6938189 -1.452286,0.8933281 l -0.415801,0.362744 1.213011,2.5834865 c 0.667157,1.420917 1.283444,2.606963 1.369528,2.635657 0.08608,0.02869 0.630517,-0.126242 1.209854,-0.344304 1.34579,-0.506554 2.030749,-0.517385 2.345452,-0.03708 0.129516,0.197665 0.68184,1.205297 1.227384,2.239181 0.545547,1.033884 1.049198,1.903507 1.119222,1.932495 0.07003,0.02899 0.08735,0.117378 0.0385,0.19642 -0.04885,0.07904 -0.01394,0.143714 0.07759,0.143714 0.09152,0 0.148732,0.06115 0.127126,0.135899 -0.06477,0.224077 1.045691,2.060457 1.247076,2.062297 0.102526,9.43e-4 0.7352,-0.209617 1.405942,-0.467897 1.616504,-0.62246 2.839106,-0.848375 4.029103,-0.744509 2.88158,0.251515 5.10679,1.896597 6.59584,4.876248 0.32409,0.648523 0.58925,1.240387 0.58925,1.315254 0,0.07487 -1.34351,0.804902 -2.98557,1.622299 -1.64207,0.817397 -2.98558,1.528912 -2.98558,1.581145 0,0.05223 -0.0884,0.09563 -0.19642,0.09645 -0.22385,0.0017 -22.303384,10.542402 -22.428218,10.707177 -0.0448,0.05913 -0.187515,0.129034 -0.317152,0.155344 -0.381464,0.07742 -2.262354,0.977486 -2.354607,1.126753 -0.04777,0.07729 -0.194626,0.07536 -0.337189,-0.0044 z m 6.77732,-14.272884 c 0.04321,-0.05317 0.152956,-0.109684 0.243873,-0.125586 0.272093,-0.04759 5.175904,-2.360014 7.495053,-3.534341 1.794339,-0.908583 2.159434,-1.152139 2.153651,-1.436703 -0.0092,-0.451947 -2.513732,-5.312568 -2.835999,-5.503874 -0.181553,-0.107774 -0.65593,0.03734 -1.728492,0.528763 -0.813046,0.372518 -1.530215,0.754038 -1.593711,0.847823 -0.06349,0.09379 -0.116528,0.121587 -0.117851,0.06178 -0.0026,-0.115934 -3.008013,1.239259 -3.143454,1.417421 -0.04413,0.05805 -0.18007,0.127031 -0.302097,0.153303 -0.512859,0.110414 -3.410523,1.569071 -3.616496,1.82051 -0.189074,0.230808 -0.191963,0.364545 -0.01843,0.852656 0.359753,1.011884 2.171842,4.685532 2.446892,4.960582 0.246743,0.246744 0.800864,0.22368 1.017059,-0.04233 z m 0.880652,-10.171335 c 0.997876,-0.485227 1.854054,-0.985776 1.902618,-1.112331 0.150555,-0.392341 -2.375877,-5.390807 -2.724737,-5.390807 -0.595916,0 -3.986921,1.824107 -3.986921,2.144666 0,0.294392 0.961188,2.412265 1.094798,2.412265 0.06045,0 0.110018,0.08839 0.110153,0.196419 4.72e-4,0.377824 1.339703,2.632021 1.563695,2.632021 0.12434,0 1.042518,-0.397005 2.040394,-0.882233 z"
     id="path1855" />
  <path
     style="fill:#1a1a1a;fill-rule:evenodd;stroke-width:0.0157136;stroke-linejoin:round"
     d="m 57.248286,40.440791 c -0.945952,-0.335189 -2.005836,-1.338382 -2.514892,-2.380376 -0.386237,-0.790594 -0.438904,-1.077504 -0.440851,-2.401579 -0.0022,-1.463912 0.01619,-1.540872 0.692692,-2.907008 0.382196,-0.771808 0.680193,-1.42349 0.662214,-1.448182 -0.01798,-0.02469 0.07344,-0.15103 0.203164,-0.28075 0.258376,-0.258376 1.984637,-3.415628 2.036651,-3.724941 0.01776,-0.10564 0.106861,-0.333495 0.197991,-0.506344 0.09113,-0.172849 0.296154,-0.685504 0.455607,-1.139233 0.159453,-0.453729 0.335931,-0.824962 0.392173,-0.824962 0.0978,0 0.613325,1.119299 0.706643,1.534261 0.08513,0.378544 2.142167,3.887843 2.39352,4.083335 0.1389,0.108031 0.206173,0.19642 0.149496,0.19642 -0.05668,0 0.270422,0.618721 0.726888,1.374936 1.197114,1.983227 1.256256,2.178728 1.166141,3.854852 -0.05668,1.054326 -0.174264,1.652045 -0.432103,2.196593 -0.478039,1.009607 -1.709144,2.093196 -2.718815,2.393036 -0.998126,0.296411 -2.811312,0.28652 -3.676519,-0.02006 z"
     id="path1894" />
  <path
     style="fill:#1a1a1a;fill-rule:evenodd;stroke-width:0.0157136;stroke-linejoin:round"
     d="m 36.062608,82.245006 c -0.604972,-0.134595 -1.736348,-0.49087 -2.514169,-0.791723 -0.777821,-0.300855 -1.520286,-0.560517 -1.649923,-0.577025 -0.129637,-0.01651 -0.271059,-0.06936 -0.314271,-0.117432 -0.04321,-0.04808 -1.033166,-0.604647 -2.199898,-1.236822 -1.166731,-0.632175 -3.906782,-2.135714 -6.089002,-3.341198 l -3.967673,-2.191788 -0.02475,-2.306838 c -0.01361,-1.26876 -0.01735,-2.412903 -0.0083,-2.54254 0.02625,-0.37606 0.191262,-7.275797 0.272461,-11.392327 0.04091,-2.074189 0.11656,-4.494614 0.168101,-5.378723 l 0.09371,-1.60747 5.209852,0.08921 5.209852,0.08921 1.728491,0.559523 c 0.95067,0.307737 2.347212,0.826566 3.103427,1.152953 0.756215,0.326387 1.376018,0.545686 1.377342,0.487332 0.0013,-0.05836 0.05436,-0.03042 0.117851,0.06207 0.15438,0.224886 3.197203,1.8853 3.363325,1.835306 0.0718,-0.02161 0.130535,0.02039 0.130535,0.09332 0,0.07293 0.760144,0.592653 1.689207,1.154933 l 1.689208,1.022327 4.520775,0.17475 c 4.013321,0.155134 4.604208,0.211642 5.264041,0.503414 0.902305,0.398991 1.572732,1.004317 1.862567,1.681705 0.282866,0.661099 0.275979,1.830255 -0.01408,2.391175 -0.340217,0.657908 -1.508917,1.623527 -2.637306,2.179031 -1.771406,0.872061 -2.4571,0.972218 -6.708717,0.979929 l -3.85714,0.007 -0.511437,0.495703 c -0.448047,0.434261 -0.51144,0.596989 -0.51144,1.312846 0,0.735243 0.05446,0.864957 0.543343,1.294206 0.710519,0.623842 1.46368,0.727867 4.323205,0.597116 3.539918,-0.161863 5.748126,-0.419735 6.604347,-0.771248 0.216061,-0.0887 0.519361,-0.185803 0.674,-0.215781 0.473193,-0.09173 1.399078,-0.61449 2.419476,-1.366043 1.027198,-0.756559 2.097217,-2.172824 3.013537,-3.988677 0.271686,-0.538395 0.652784,-1.08185 0.846882,-1.207679 0.194099,-0.125829 1.448928,-0.735843 2.788509,-1.355588 1.33958,-0.619745 2.470956,-1.17231 2.514169,-1.227923 0.04321,-0.05561 0.170738,-0.120052 0.283392,-0.143199 0.112655,-0.02315 1.244031,-0.508838 2.514169,-1.079312 4.204658,-1.888494 4.981459,-2.145607 6.237732,-2.064624 2.797552,0.180339 4.94977,2.251225 4.94977,4.762719 0,2.529149 -0.991421,3.660959 -6.007051,6.857674 -1.233411,0.786115 -2.313532,1.50808 -2.400269,1.604368 -0.08674,0.09629 -0.240275,0.190895 -0.341195,0.210235 -0.346611,0.06642 -2.565244,1.481199 -2.565244,1.635801 0,0.08505 -0.06813,0.112533 -0.151405,0.06107 -0.08327,-0.05147 -0.283619,0.03275 -0.445217,0.187147 -0.161596,0.154395 -0.37985,0.299576 -0.485007,0.322624 -0.105156,0.02305 -1.021986,0.525452 -2.037397,1.116451 -5.317403,3.094879 -18.372455,9.365532 -20.176319,9.691166 -0.324092,0.0585 -0.589258,0.151536 -0.589258,0.206736 0,0.136089 -0.283525,0.156533 -3.456982,0.249271 -2.147635,0.06276 -2.990767,0.02676 -3.849821,-0.164359 z"
     id="path1933" />
  <path
     style="fill:#1a1a1a;fill-rule:evenodd;stroke-width:0.0157136;stroke-linejoin:round"
     d="M 0,62.225676 V 48.083477 h 8.0863629 8.0863621 l 0.0454,1.374936 c 0.02497,0.756215 -0.0013,1.65778 -0.0584,2.003478 -0.09535,0.57736 -0.239766,6.765381 -0.38323,16.420665 -0.03146,2.117402 -0.101856,4.892808 -0.156433,6.16757 l -0.09923,2.31775 H 7.760418 0 Z"
     id="path1972" />
</svg>
