<svg  xmlns="http://www.w3.org/2000/svg"
  viewBox="0 0 122.88 122.88" >
<path
       class="st0"
       d="M56.92,54.1c-0.4-0.27-0.51-0.82-0.24-1.22c0.27-0.4,0.82-0.51,1.22-0.24c0.67,0.45,1.8,0.69,3,0.67 c1.13-0.02,2.27-0.27,3.09-0.8c0.41-0.26,0.95-0.14,1.21,0.27c0.26,0.41,0.14,0.95-0.27,1.21c-1.11,0.71-2.58,1.05-4.01,1.07 C59.4,55.09,57.89,54.75,56.92,54.1L56.92,54.1z M28.4,86.88l0.05,0.04c1.22-1.13,2.69-2.6,4-4.2c1.25-1.53,2.35-3.18,2.92-4.74 l-0.09-0.14c-1.65-1.65-3.17-3.6-4.56-5.81c-1.54-2.45-2.94-5.22-4.19-8.28c-0.56-0.17-1.08-0.37-1.58-0.6 c-0.71-0.33-1.36-0.73-1.96-1.18c-1.74-1.33-2.89-3.15-3.56-5.15c-0.74-2.23-0.88-4.7-0.58-6.97c0.16-1.17,0.48-2.18,0.97-3.04 c0.52-0.91,1.21-1.63,2.07-2.18c0.25-0.16,0.54-0.23,0.81-0.2c-0.48-2.51-0.41-4.91-0.31-7.73c0.27-7.37,2.14-13.26,7.94-18.37 c8.76-7.71,26.1-8.38,35.75-1.74c1.43,0.99,2.76,2.15,3.96,3.53c3.92,4.49,7.4,14.35,7.33,20.43c-0.02,1.41-0.24,2.84-0.73,4.29 c-0.02,0.14-0.05,0.3-0.09,0.48c1.06,0.67,1.89,1.48,2.49,2.4c0.9,1.38,1.3,2.97,1.2,4.64c-0.09,1.61-0.64,3.3-1.64,4.94 c-1.16,1.91-2.93,3.78-5.3,5.39c-1.97,4.59-4.69,9.19-7.96,12.96c-0.4,0.79-0.83,1.53-1.31,2.23c0.75,3.04,3.69,6.41,5.77,8.78 l0.16,0.18c7.34,2.19,14.28,5.6,19.86,13.08c5.21,6.99,7.62,14.88,11.78,22.92c-34.81,0-67.94,0.01-101.27,0 c-0.73-5.42-0.26-6.11,1.46-11.26C6.54,97.33,12.5,95.68,28.4,86.88L28.4,86.88z M36.94,80.07c-0.65,1.2-1.49,2.39-2.42,3.52 c-1.22,1.49-2.58,2.87-3.76,3.99c4.14,4.04,11.29,5.97,18.47,5.93c7.2-0.04,14.39-2.06,18.54-5.91l0,0l-0.01-0.01 c-1.78-2.04-4.16-4.76-5.43-7.52c-1.46,1.6-3.13,2.87-4.93,3.81c-2.35,1.23-4.92,1.89-7.49,1.96c-2.58,0.07-5.17-0.46-7.56-1.62 C40.38,83.26,38.53,81.88,36.94,80.07L36.94,80.07z M41.43,2.51c5.75-3.9,12.3-3.04,17.71,1.09c1.42,1.09,2.64,2.42,3.6,4.04 c0.82,1.38,2.25,4.2-0.42,4.63c-1.05,0.17-2.91-1.27-4.33-1.73c-1.83-0.59-3.72-0.97-5.58-1.17c-3.49-0.37-6.92-0.08-9.86,0.74 c-1.6,0.44-3.15,0.98-4.64,1.67c-0.7,0.32-2.11,1.26-2.5,0.05C34.5,9.03,39.36,3.91,41.43,2.51L41.43,2.51z M23.34,46.87 l-0.03,0.02c-0.49,0.31-0.88,0.73-1.18,1.25c-0.32,0.56-0.54,1.25-0.65,2.08c-0.25,1.9-0.14,3.94,0.47,5.77 c0.51,1.52,1.37,2.89,2.65,3.87c0.45,0.35,0.94,0.65,1.47,0.89c0.54,0.25,1.12,0.46,1.75,0.61c0.44,0.1,0.77,0.41,0.93,0.8l0,0 c0.97,2.43,2.02,4.66,3.16,6.69c-0.26-1.51-0.43-3.13-0.47-4.86c0-0.07,0-0.14,0.01-0.21l-4.8-10.49 c-0.59-0.91-1.14-1.83-1.65-2.76C24.27,49.23,23.73,48.03,23.34,46.87L23.34,46.87z M36.59,75.38c0.47,0.51,0.96,0.98,1.46,1.43 c1.99,1.79,3.95,3.05,5.86,3.86c3.52,1.48,6.92,1.39,10.07,0.23c3.24-1.19,6.26-3.52,8.92-6.47c0.29-0.32,0.57-0.64,0.85-0.97 c1.05-2.48,1.67-5.41,1.71-8.76c-5.26-2.56-10.53-3.59-15.79-3.46c-5.13,0.13-10.27,1.36-15.42,3.36 c-0.03,0.27-0.16,0.53-0.36,0.72C34.17,69.37,35.14,72.71,36.59,75.38L36.59,75.38z M67.62,67.99c1.3-2.15,2.44-4.41,3.38-6.67 c0.12-0.29,0.34-0.52,0.6-0.66c2.14-1.43,3.73-3.06,4.73-4.72c0.76-1.26,1.18-2.53,1.25-3.71c0.06-1.11-0.19-2.15-0.77-3.03 c-0.31-0.47-0.71-0.9-1.21-1.28c-0.74,1.69-1.86,3.77-3.27,5.95l-4.5,10.07v0h0C67.86,65.36,67.78,66.71,67.62,67.99L67.62,67.99z M65.96,62.3l4.79-10.71v-9.02c-6.25-2.89-10.34-9.25-12.42-18.82c-2.49,18.2-24.84,17.42-30.46,20.74v5.76l5.55,12.12 c5.38-2.08,10.78-3.37,16.19-3.51C55.06,58.71,60.51,59.74,65.96,62.3L65.96,62.3z M33.75,54.1c-0.4-0.27-0.51-0.82-0.24-1.22 c0.27-0.4,0.82-0.51,1.22-0.24c0.68,0.46,1.83,0.72,3.05,0.71c1.14-0.01,2.32-0.25,3.23-0.78c0.42-0.24,0.96-0.1,1.2,0.32 c0.24,0.42,0.1,0.96-0.32,1.2c-1.19,0.69-2.68,1.01-4.11,1.01C36.23,55.11,34.72,54.75,33.75,54.1L33.75,54.1z M33,49 c-0.4,0.28-0.95,0.19-1.23-0.21c-0.28-0.4-0.19-0.95,0.21-1.23c1.66-1.17,3.35-1.78,5.08-1.78c1.73-0.01,3.46,0.58,5.19,1.78 c0.4,0.28,0.5,0.82,0.22,1.22s-0.82,0.5-1.22,0.22c-1.43-0.99-2.83-1.47-4.19-1.47C35.71,47.55,34.35,48.04,33,49L33,49z M57.71,49 c-0.4,0.28-0.95,0.19-1.23-0.21c-0.28-0.4-0.19-0.95,0.21-1.23c1.66-1.17,3.35-1.78,5.08-1.78c1.73-0.01,3.46,0.58,5.19,1.78 c0.4,0.28,0.5,0.82,0.22,1.22c-0.28,0.4-0.82,0.5-1.22,0.22c-1.43-0.99-2.83-1.47-4.19-1.47C60.43,47.55,59.07,48.04,57.71,49 L57.71,49z"
       id="mask" /><path
     style="fill:#0096FF;fill-rule:evenodd;stroke-width:0.164278;stroke-miterlimit:4.5"
     d="m 46.572834,81.409304 c -3.012573,-0.707498 -5.501273,-2.094839 -8.50536,-4.741369 -1.405403,-1.238127 -1.860632,-1.977954 -2.724967,-4.428555 -0.526414,-1.492512 -1.055403,-3.882958 -1.255365,-5.672857 -0.19317,-1.72911 -0.110502,-1.818103 2.513021,-2.705304 5.975462,-2.02073 11.49085,-2.849523 16.313082,-2.451353 3.992802,0.329684 7.579812,1.21086 10.96899,2.694617 l 1.538706,0.673633 -0.114694,1.493295 c -0.15691,2.042967 -0.509072,3.832191 -1.116304,5.671634 -0.51163,1.549835 -0.511712,1.549955 -2.328977,3.385675 -0.999532,1.009682 -2.445693,2.295915 -3.213693,2.858296 -1.575209,1.153475 -4.51732,2.651041 -5.99615,3.052104 -1.370508,0.371686 -4.810199,0.467994 -6.078289,0.170184 z"
     id="path7" /><path
     style="fill:#f4e3d7;fill-rule:evenodd;stroke-width:0.164278;stroke-miterlimit:4.5"
     d="m 33.275022,61.782306 c -0.119839,-0.233445 -1.372107,-2.950321 -2.782819,-6.037503 l -2.56493,-5.613058 v -2.788102 -2.788102 l 0.761904,-0.358137 c 0.84851,-0.398847 3.183462,-1.037736 8.419622,-2.303778 7.929604,-1.917284 12.705467,-4.152054 16.138824,-7.551844 2.352916,-2.32991 3.861358,-4.97328 4.680319,-8.201717 0.217287,-0.856573 0.419198,-1.581537 0.448692,-1.611031 0.02949,-0.02949 0.14676,0.371901 0.26059,0.891986 0.359432,1.64222 1.635291,5.277404 2.482956,7.074454 2.043404,4.332016 5.206866,7.881695 8.607904,9.65882 l 0.910708,0.475866 3.28e-4,4.481043 3.29e-4,4.481044 -2.322585,5.211362 c -1.277421,2.86625 -2.342643,5.235474 -2.367158,5.26494 -0.02452,0.02947 -0.882924,-0.280725 -1.907576,-0.689314 -4.894617,-1.951774 -9.099269,-2.677309 -14.590244,-2.517625 -4.732424,0.137625 -8.3487,0.805493 -13.290029,2.454452 l -2.66907,0.890689 -0.217889,-0.424445 z m 6.532231,-6.82784 c 1.607096,-0.340522 2.481073,-0.857318 2.544292,-1.504478 0.06766,-0.692653 -0.352863,-1.10128 -1.021141,-0.99225 -0.279016,0.04552 -0.950853,0.244615 -1.492971,0.442431 -1.312116,0.478785 -3.577368,0.412065 -4.634311,-0.136497 -0.3804,-0.197431 -0.837152,-0.358966 -1.015004,-0.358966 -0.758147,0 -1.141271,1.164498 -0.552182,1.678348 1.111788,0.969791 3.869345,1.359167 6.171317,0.871412 z m 23.532266,-0.170761 c 1.237152,-0.349089 1.950446,-0.885074 2.01174,-1.51167 0.03957,-0.404489 -0.04015,-0.578088 -0.362406,-0.78924 -0.39247,-0.257156 -0.468941,-0.248151 -1.529227,0.180049 -1.569379,0.633803 -3.240459,0.721505 -4.565936,0.239633 -1.445803,-0.525616 -1.795686,-0.567816 -2.109124,-0.254377 -0.358854,0.358854 -0.348098,1.11614 0.02059,1.449799 1.100239,0.995704 4.260596,1.327394 6.534363,0.685806 z M 33.511607,48.791308 c 1.061865,-0.681398 2.515348,-1.150666 3.563999,-1.150666 1.047025,0 2.53648,0.47095 3.643272,1.151967 0.938632,0.577546 1.221963,0.605159 1.664865,0.162257 0.78056,-0.780559 0.22312,-1.518338 -1.861308,-2.463463 -1.531327,-0.694337 -3.214437,-0.936449 -4.684121,-0.673803 -1.213453,0.216857 -2.879916,0.924165 -3.76302,1.597161 -0.654428,0.498729 -0.729901,1.219916 -0.168795,1.61293 0.51026,0.3574 0.730269,0.324999 1.605108,-0.236383 z m 25.274734,-0.284862 c 1.501863,-0.766533 1.56832,-0.783665 3.039755,-0.783665 1.473244,0 1.537296,0.01658 3.100172,0.802656 1.549926,0.77956 1.607816,0.794813 2.011794,0.530117 0.524727,-0.343814 0.560347,-1.103308 0.07304,-1.557307 -0.59044,-0.550078 -2.380493,-1.336938 -3.685897,-1.620222 -1.765301,-0.383085 -3.410191,-0.135888 -5.289033,0.794846 -1.368535,0.67794 -1.853066,1.112365 -1.853066,1.661437 0,0.333704 0.555764,0.947463 0.862459,0.952459 0.112942,0.0018 0.896292,-0.349304 1.74078,-0.780321 z"
     id="skin1" /><path
     style="fill:#f4e3d7;fill-rule:evenodd;stroke-width:0.164278;stroke-miterlimit:4.5"
     d="m 45.970255,93.308742 c -3.677408,-0.331648 -7.052951,-1.143285 -9.820618,-2.361332 -1.7014,-0.748785 -4.0674,-2.219936 -4.757126,-2.957926 l -0.395296,-0.422957 1.301806,-1.358451 c 1.719938,-1.794775 2.897896,-3.22584 3.817328,-4.637551 0.414235,-0.636024 0.772361,-1.185477 0.795837,-1.221007 0.02348,-0.03553 0.551654,0.415539 1.17373,1.002374 2.091433,1.972951 4.523513,3.325003 7.390291,4.10844 1.042463,0.284886 1.730493,0.344689 3.971494,0.345197 2.391492,5.42e-4 2.89431,-0.0488 4.271229,-0.419182 2.866669,-0.771107 5.406967,-2.160794 7.469831,-4.086422 0.643121,-0.600337 1.153775,-0.965115 1.192286,-0.851693 0.187072,0.550942 2.026375,3.264544 3.137915,4.629502 0.693042,0.851046 1.433558,1.760049 1.645592,2.020008 0.465717,0.570982 0.405885,0.668808 -1.033994,1.690569 -2.874185,2.039566 -7.249883,3.60729 -11.918927,4.27031 -2.205068,0.313127 -6.198777,0.434334 -8.241378,0.250121 z"
     id="skin2" /><path
     style="fill:#f4e3d7;fill-rule:evenodd;stroke-width:0.164278;stroke-miterlimit:4.5"
     d="m 67.846845,65.692525 v -1.562919 l 2.27606,-5.082129 c 1.251832,-2.795171 2.594075,-5.599605 2.98276,-6.232076 0.388686,-0.632471 1.127448,-1.947141 1.641692,-2.921489 l 0.934991,-1.771543 0.518633,0.53047 c 0.887674,0.907935 1.249109,1.85864 1.239006,3.259033 -0.02001,2.774044 -1.811531,5.634248 -5.013611,8.004361 -1.270343,0.940281 -1.419404,1.112087 -1.852877,2.135615 -0.536622,1.267085 -2.344682,4.8121 -2.574386,5.047532 -0.09377,0.09611 -0.152268,-0.444363 -0.152268,-1.406855 z"
     id="skin3" /><path
     style="fill:#f4e3d7;fill-rule:evenodd;stroke-width:0.164278;stroke-miterlimit:4.5"
     d="m 30.595043,66.082334 c -0.548983,-1.152813 -1.157084,-2.502612 -1.351336,-2.999553 -0.533234,-1.364137 -0.743965,-1.606404 -1.62484,-1.867995 -3.088623,-0.917223 -5.063387,-3.038625 -5.84924,-6.283581 -0.418188,-1.726787 -0.299688,-5.073264 0.22112,-6.244512 0.206203,-0.46373 0.580105,-1.039731 0.830893,-1.280002 l 0.45598,-0.436856 0.295534,0.787168 c 0.411821,1.096904 1.222296,2.679888 2.199349,4.295671 0.456596,0.755089 1.904423,3.717565 3.217392,6.583282 1.924144,4.19968 2.387459,5.351435 2.388464,5.937486 6.9e-4,0.399902 0.07297,1.35094 0.160624,2.113421 0.08766,0.76248 0.135714,1.40999 0.106794,1.438911 -0.02892,0.02892 -0.501751,-0.890627 -1.050734,-2.04344 z"
     id="skin4" /><path
     style="fill:#BD9B7D;fill-rule:evenodd;stroke-width:0.0164278;stroke-linejoin:round"
     d="M 0.25056584,121.47152 C -0.067049,118.08209 0.14019598,116.70485 1.6207152,112.3662 5.0565476,102.29753 8.142344,98.443942 16.838503,93.361999 c 2.612051,-1.526455 11.36845,-6.29462 11.559625,-6.29462 0.246775,0 3.574496,-3.552592 4.645086,-4.958978 0.546479,-0.717884 1.327041,-1.932055 1.734586,-2.698156 l 0.740988,-1.392913 -0.973192,-1.1015 C 31.65778,73.647278 29.134268,69.575374 27.190088,65.04708 26.592165,63.654424 26.581045,63.641395 25.73784,63.345627 c -3.332619,-1.16897 -5.716673,-4.077193 -6.61226,-8.066055 -0.386009,-1.719254 -0.390676,-4.842965 -0.0094,-6.306159 0.551103,-2.115059 2.073845,-4.166194 3.270632,-4.405552 0.325374,-0.06508 0.437643,-0.166739 0.372267,-0.337105 -0.498715,-1.299635 -0.398161,-8.877513 0.160892,-12.124964 0.923485,-5.364354 2.810052,-9.079156 6.433578,-12.668224 4.73143,-4.68643 11.921202,-7.28099 20.176319,-7.28099 9.679978,0 17.743467,3.664692 21.842313,9.92689 2.512507,3.838594 4.800266,9.882036 5.594421,14.778457 0.31088,1.916749 0.304665,4.961896 -0.01295,6.343209 -0.50611,2.201115 -0.50986,2.16002 0.247402,2.710588 0.372821,0.271059 1.002908,0.918419 1.400193,1.43858 3.125815,4.092585 1.380745,9.989348 -4.270521,14.430506 -1.01024,0.793917 -1.15043,0.986804 -1.951447,2.685 -1.568696,3.325715 -4.001064,7.269734 -6.03395,9.783882 -0.474873,0.587294 -1.217594,1.64485 -1.650493,2.350124 l -0.787088,1.282318 0.323456,0.920286 c 0.589633,1.677613 2.038482,3.860816 4.466763,6.730756 l 1.137729,1.344662 1.592965,0.523646 c 6.70443,2.203908 11.494864,5.107083 15.664197,9.493065 3.645309,3.834723 6.239277,8.123203 10.0018,16.535463 1.010295,2.25882 2.38321,5.24531 3.050912,6.63664 0.66771,1.39133 1.21402,2.55566 1.21402,2.58738 0,0.0317 -22.723287,0.0577 -50.496201,0.0577 H 0.36715746 Z M 53.749887,93.298808 c 4.836999,-0.597742 9.262541,-2.12898 12.394697,-4.288566 1.967322,-1.356446 1.939508,-1.198972 0.508615,-2.879657 -1.728927,-2.030743 -2.838936,-3.552224 -3.601209,-4.936147 -0.360811,-0.655059 -0.672001,-1.191016 -0.691537,-1.191016 -0.01953,0 -0.400958,0.341529 -0.847611,0.758953 -2.745637,2.565973 -5.829404,4.139824 -9.260294,4.726146 -5.226076,0.893109 -10.236709,-0.667764 -14.098771,-4.391942 -0.654951,-0.631568 -1.214853,-1.117416 -1.244224,-1.079661 -0.02937,0.03775 -0.416391,0.623082 -0.860044,1.300729 -1.020791,1.559184 -2.203223,2.982302 -3.988599,4.800478 l -1.40693,1.432777 0.388268,0.413291 c 1.053408,1.121303 4.200373,2.929275 6.577431,3.77882 4.628398,1.654158 10.641219,2.234109 16.130208,1.555795 z M 53.226096,81.241269 c 3.023218,-0.965377 5.814379,-2.792936 8.721485,-5.710533 l 1.91945,-1.926377 0.506124,-1.605601 c 0.612593,-1.943354 0.9471,-3.709402 1.099996,-5.807491 l 0.114665,-1.573439 -1.457865,-0.626657 C 57.64973,61.205675 51.173759,60.499677 43.862246,61.781624 c -2.536212,0.44468 -4.046378,0.836399 -7.01411,1.819378 -3.172437,1.05078 -3.136783,1.008489 -2.85971,3.392081 0.263904,2.270325 0.976345,5.016647 1.798288,6.93205 0.576506,1.343453 0.813519,1.692829 1.7031,2.51048 3.010864,2.767414 5.95346,4.454385 8.918742,5.113058 1.827845,0.406015 5.036441,0.26134 6.81754,-0.307402 z M 31.967449,68.545027 c -0.137011,-0.442981 -0.423202,-3.151458 -0.424712,-4.01942 -0.0011,-0.64686 -0.393736,-1.63331 -2.375673,-5.968954 -1.305879,-2.856713 -2.786757,-5.885189 -3.290841,-6.729945 -0.947229,-1.587389 -2.384458,-4.493311 -2.384458,-4.821116 0,-0.632831 -1.038882,0.293152 -1.587929,1.415366 -0.416325,0.850937 -0.464107,1.135514 -0.521725,3.107267 -0.04747,1.624393 0.0061,2.48324 0.213058,3.413297 0.719647,3.234675 2.662996,5.380405 5.804416,6.40889 0.967334,0.316701 1.155775,0.537075 1.772028,2.072322 0.681061,1.696699 2.55173,5.409779 2.725475,5.409779 0.0876,0 0.119265,-0.129369 0.07036,-0.287486 z m 36.794372,-2.383743 c 0.548414,-1.015529 1.324628,-2.571737 1.72492,-3.458239 0.697295,-1.544251 0.779453,-1.65061 1.95989,-2.537122 3.316961,-2.491053 5.133806,-5.3698 5.157482,-8.171912 0.01332,-1.577415 -0.397799,-2.655917 -1.376898,-3.611981 l -0.63462,-0.61969 -0.773485,1.540863 c -0.425418,0.847473 -1.195499,2.24315 -1.711293,3.101503 -0.515794,0.858353 -1.939953,3.815358 -3.164799,6.571123 l -2.226991,5.010481 -0.06677,2.012406 c -0.03672,1.106824 -0.02577,2.011638 0.02434,2.010697 0.05011,-9.86e-4 0.539809,-0.832598 1.088222,-1.848129 z m -32.867062,-4.5582 c 2.49489,-0.860527 5.659809,-1.675034 8.296043,-2.135026 2.604504,-0.454457 7.702458,-0.623484 10.18955,-0.337844 3.507808,0.402867 7.364001,1.421623 10.345209,2.733071 l 1.232086,0.542001 0.214859,-0.408645 c 0.118174,-0.224755 1.208569,-2.631366 2.423102,-5.348025 l 2.208242,-4.939378 v -4.642817 -4.642817 l -0.518696,-0.214851 c -1.850716,-0.766593 -4.722535,-3.23345 -6.484547,-5.570148 -1.989559,-2.638458 -4.128734,-7.56479 -5.083676,-11.707257 -0.161148,-0.699052 -0.331546,-1.232455 -0.378661,-1.18534 -0.04712,0.04712 -0.209397,0.692992 -0.360624,1.435283 -1.242309,6.097746 -5.310365,10.75104 -11.955666,13.67563 -2.59284,1.141107 -5.186103,1.943361 -10.564629,3.268283 -4.710273,1.160308 -6.190366,1.58389 -7.242592,2.072733 l -0.451764,0.209881 v 2.92115 2.921152 l 2.321116,5.061036 c 1.276613,2.783571 2.534035,5.531509 2.794271,6.10653 0.370768,0.819253 0.535033,1.026002 0.759098,0.955418 0.157268,-0.04954 1.173044,-0.396051 2.257279,-0.77002 z"
     id="path903" /><path
     style="fill:#420606;fill-rule:evenodd;stroke-width:0.0164278;stroke-linejoin:round"
     d="m 35.687427,12.115508 c -0.96753,-1.201038 0.602934,-4.5162614 3.559108,-7.513218 0.776759,-0.7874747 1.882659,-1.7469675 2.457556,-2.1322062 3.861582,-2.58764673 8.649142,-3.0562547 13.000508,-1.2724942 3.862764,1.5834672 6.858833,4.2283795 8.403226,7.4183195 0.818642,1.6909009 0.851741,2.5052289 0.126629,3.1153699 -0.735145,0.618584 -1.327852,0.547218 -3.246111,-0.390854 C 58.359379,10.543824 56.451499,9.9449457 54.129626,9.5013898 53.380427,9.3582676 51.720184,9.2834588 49.365561,9.286726 c -3.11088,0.00432 -3.846621,0.055818 -5.283899,0.3698692 -2.134146,0.4663198 -4.179513,1.1361718 -6.074033,1.9892288 -1.579009,0.710989 -2.049145,0.80616 -2.320202,0.469684 z"
     id="path942" /><path
     style="fill:none;stroke:#000000;stroke-width:0.1;stroke-linecap:butt;stroke-linejoin:miter;stroke-opacity:1;stroke-miterlimit:4;stroke-dasharray:none"
     d="m 22.7,44.43 0.64,2.44"
     id="path1014" /><path
     style="fill:none;stroke:#000000;stroke-width:0.1;stroke-linecap:butt;stroke-linejoin:miter;stroke-opacity:1;stroke-miterlimit:4;stroke-dasharray:none"
     d="M 27.762995,50.25012 26.65,53.29"
     id="path1016" /><path
     style="fill:none;stroke:#000000;stroke-width:0.1;stroke-linecap:butt;stroke-linejoin:miter;stroke-opacity:1;stroke-miterlimit:4;stroke-dasharray:none"
     d="M 75.682348,48.122369 76.55,45.32"
     id="path1020" /><path
     style="fill:#420606;stroke:#000000;stroke-width:0.1;stroke-linecap:butt;stroke-linejoin:miter;stroke-opacity:1;stroke-miterlimit:4;stroke-dasharray:none"
     d="M 70.639449,51.592247 72.33,53.87"
     id="path1024" /><path
     style="fill:#420606;fill-rule:evenodd;stroke-width:0.0116162;stroke-linejoin:round;stroke-miterlimit:4;stroke-dasharray:none"
     d="m 71.584919,52.66909 -0.726013,-0.971147 v -4.646708 -4.646708 l -0.870343,-0.43035 c -0.478689,-0.236694 -1.328125,-0.772561 -1.887635,-1.190818 -1.269431,-0.94895 -3.384386,-3.041311 -4.237554,-4.192285 -1.770205,-2.38811 -3.744569,-6.706147 -4.727107,-10.33843 -0.598388,-2.212143 -0.722527,-2.586397 -0.823136,-2.481596 -0.05295,0.05515 -0.238273,0.701411 -0.411839,1.436136 -1.39866,5.920698 -4.754404,10.010919 -10.623301,12.948443 -3.103239,1.553246 -5.652409,2.373587 -13.365614,4.301146 -3.264519,0.815817 -3.99512,1.023189 -5.191288,1.473481 l -0.958337,0.360762 v 2.836405 2.836405 l -0.551771,1.500418 c -0.303473,0.825229 -0.577906,1.501206 -0.609851,1.50217 -0.03194,9.29e-4 -0.259193,-0.376828 -0.504997,-0.839537 -1.422488,-2.677742 -2.171839,-4.154134 -2.343162,-4.616562 -0.106515,-0.287501 -0.238233,-0.627275 -0.292706,-0.755053 -0.241471,-0.566427 -0.620523,-2.175112 -0.807448,-3.426784 -0.148078,-0.99155 -0.147847,-6.009346 3.73e-4,-8.073268 0.353052,-4.91619 1.503942,-8.71365 3.637225,-12.00134 1.671809,-2.576493 4.477876,-5.28082 7.178813,-6.918529 7.176465,-4.351439 17.789728,-5.362292 26.376845,-2.512243 4.477093,1.485939 8.011337,3.845021 10.554039,7.044743 2.660048,3.347391 5.429688,10.077512 6.456774,15.689723 0.154919,0.84651 0.20919,1.745529 0.212393,3.518374 0.0037,2.072252 -0.0312,2.547168 -0.269237,3.659108 -0.315436,1.473503 -1.057031,3.930498 -1.204252,3.989842 -0.05503,0.02218 -0.436305,0.70173 -0.847284,1.510108 -0.659152,1.296521 -2.294348,4.275517 -2.398797,4.37012 -0.02133,0.01932 -0.365483,-0.401894 -0.76479,-0.936026 z"
     id="path1100" /><path
     style="fill:#000000;fill-rule:evenodd;stroke-width:0.0116162;stroke-linejoin:round;stroke-miterlimit:4;stroke-dasharray:none"
     d="m 0.37624281,122.46486 c -0.0450016,-0.11231 -0.0827248,-1.38035 -0.0838293,-2.81786 -0.00228,-2.96724 -0.004363,-2.95562 1.17664259,-6.56316 1.3728019,-4.19339 3.0061568,-7.88392 4.4874324,-10.13925 2.3022426,-3.5053 5.2697845,-6.142695 10.2481305,-9.108002 2.373983,-1.414041 9.25085,-5.206677 11.425794,-6.301398 0.865789,-0.43578 1.179538,-0.686209 2.285508,-1.824258 2.624995,-2.701134 4.053234,-4.563169 5.159074,-6.726026 l 0.507567,-0.992727 -1.240675,-1.444591 C 31.959229,73.77332 30.094132,70.89141 28.329827,67.257879 27.755918,66.07593 27.119111,64.771404 26.914703,64.358933 l -0.371654,-0.749946 -1.105482,-0.4746 c -1.381452,-0.593079 -2.261718,-1.173291 -3.193104,-2.104676 -1.35086,-1.35086 -2.398974,-3.258401 -2.960508,-5.388046 -0.359065,-1.361773 -0.463027,-4.703107 -0.191555,-6.156593 0.271757,-1.455009 1.055196,-2.976718 2.038602,-3.959664 0.647312,-0.64701 1.313376,-1.048943 1.473278,-0.889042 0.02278,0.02278 0.164262,0.504192 0.314412,1.069815 l 0.273002,1.028405 -0.444886,0.401928 c -0.250402,0.226222 -0.635053,0.787418 -0.87989,1.283735 l -0.435003,0.881806 0.01035,1.746819 c 0.0057,0.96075 -0.02733,1.59 -0.07338,1.398332 -0.123358,-0.513464 -0.122261,-0.26344 0.0052,1.175882 0.332889,3.760252 2.220639,6.33299 5.610631,7.646504 0.604091,0.234067 1.207347,0.5416 1.340569,0.683407 0.133221,0.141809 0.559767,0.98293 0.947879,1.869159 0.388112,0.886228 1.045909,2.280462 1.461771,3.098297 1.106216,2.175487 1.457798,2.518756 1.216426,1.187668 -0.06822,-0.376193 -0.194222,-1.492421 -0.28001,-2.480506 -0.139966,-1.612055 -0.201326,-1.909831 -0.59759,-2.900061 -0.604657,-1.510985 -1.958862,-4.49463 -3.246792,-7.15347 l -1.0737,-2.216579 0.51889,-1.418721 c 0.285389,-0.780296 0.532072,-1.403298 0.548185,-1.384447 0.01611,0.01885 1.213576,2.621785 2.661032,5.784299 1.447454,3.162514 2.721669,5.838502 2.831589,5.94664 0.187986,0.184939 0.320559,0.155836 2.232691,-0.490132 3.854138,-1.302028 7.564842,-2.181202 10.570755,-2.50452 2.556523,-0.274981 7.27015,-0.276889 9.060647,-0.0037 3.582724,0.546709 7.232396,1.592719 10.142382,2.906844 l 0.675168,0.3049 0.615693,-1.30856 c 0.33863,-0.719704 1.385981,-3.033563 2.327446,-5.141906 0.941464,-2.108343 1.750819,-3.874951 1.798566,-3.925795 0.04775,-0.05084 0.400094,0.337848 0.782992,0.86376 l 0.69618,0.956203 -0.742789,1.555763 c -0.408534,0.855669 -1.445576,3.129897 -2.304539,5.05384 l -1.56175,3.498076 0.0042,2.039508 0.0042,2.039507 0.287656,-0.348486 c 0.158211,-0.191668 0.970533,-1.707584 1.80516,-3.368702 0.834627,-1.661119 1.631147,-3.143898 1.770045,-3.295066 0.138897,-0.151167 0.724086,-0.65555 1.300419,-1.12085 3.577037,-2.887902 5.188956,-5.871552 4.808604,-8.900692 -0.131366,-1.046196 -0.524801,-1.911139 -1.195447,-2.628113 l -0.524437,-0.560658 0.383284,-1.214525 0.383282,-1.214525 1.092689,1.10354 c 1.22731,1.2395 1.696065,2.009804 2.084395,3.425278 0.374936,1.366657 0.288024,3.184774 -0.224969,4.706072 -0.807037,2.393292 -2.409374,4.568747 -4.951235,6.72217 -0.575002,0.487133 -1.138501,0.990411 -1.252221,1.118397 -0.113718,0.127986 -0.620429,1.049493 -1.126022,2.047793 -1.839227,3.631569 -3.628671,6.5244 -5.883129,9.510718 -0.699362,0.926393 -1.551756,2.148307 -1.89421,2.715365 l -0.622642,1.031013 0.202315,0.641817 c 0.563315,1.78704 1.925274,3.879907 4.665923,7.169938 l 1.064416,1.277783 1.377325,0.449651 c 6.514454,2.126753 10.979192,4.74029 15.099021,8.838561 4.231327,4.209185 6.568629,7.973615 10.965812,17.661405 0.840959,1.85278 2.077002,4.53643 2.746763,5.96365 0.669766,1.42721 1.183196,2.62949 1.140966,2.67172 -0.0422,0.0422 -22.708104,0.0903 -50.368606,0.10675 -47.8908454,0.0285 -50.2957283,0.0202 -50.37364319,-0.17424 z M 52.214882,93.503537 c 5.958812,-0.516185 11.451273,-2.388486 14.863789,-5.066853 0.984789,-0.772928 1.070373,-0.562392 -1.563224,-3.845563 -1.084364,-1.351822 -1.744615,-2.322098 -2.817224,-4.140078 l -0.319739,-0.541928 -1.288121,1.118293 C 57.187308,84.41588 52.854079,85.955106 48.207288,85.603666 44.459181,85.320194 41.495383,83.975135 38.275643,81.096392 37.534706,80.433927 36.913335,79.911197 36.89482,79.934771 36.8763,79.958351 36.489521,80.5265 36.035302,81.197336 34.864645,82.92628 33.94613,84.038 32.136231,85.916561 l -1.580674,1.64064 0.628723,0.59462 c 1.232225,1.165387 4.060894,2.781331 6.336091,3.619642 2.125733,0.783238 5.618322,1.510024 8.305593,1.728342 1.716791,0.139473 4.801127,0.141275 6.388918,0.0037 z M 51.862436,81.601346 c 1.342511,-0.234115 2.182498,-0.520994 3.721148,-1.270881 2.303393,-1.122598 3.987409,-2.385259 6.650638,-4.986593 l 1.655667,-1.617187 0.356849,-1.11401 c 0.772774,-2.412439 1.23185,-4.904634 1.295633,-7.033628 l 0.03116,-1.039941 -1.335864,-0.566611 c -6.248906,-2.650492 -12.303756,-3.430682 -19.050591,-2.45474 -2.891734,0.418294 -5.04611,0.940897 -8.344787,2.024258 -3.105312,1.019855 -3.161244,1.080052 -2.935777,3.159695 0.290214,2.676838 1.219699,6.115325 2.160073,7.990854 0.524176,1.045442 1.572178,2.108608 3.486627,3.537073 2.450897,1.828737 4.610867,2.899277 6.795485,3.368031 1.0561,0.226607 4.223264,0.228721 5.513742,0.0037 z"
     id="path1176" /><path
     style="fill:#BD9B7D;fill-rule:evenodd;stroke-width:0.0116162;stroke-linejoin:round;stroke-miterlimit:4;stroke-dasharray:none"
     d="m 30.743309,56.15441 -2.748233,-5.992337 v -2.785191 -2.78519 l 0.726013,-0.326745 c 0.922729,-0.415277 2.093589,-0.748212 6.417002,-1.824679 5.336443,-1.328699 7.384249,-1.93695 9.96225,-2.959051 5.81854,-2.306875 9.877915,-5.873343 11.88365,-10.440682 0.358283,-0.815861 1.084188,-3.063058 1.2691,-3.928778 0.04533,-0.212209 0.106057,-0.362187 0.134959,-0.333287 0.0289,0.0289 0.202963,0.62071 0.386806,1.315131 0.903865,3.414142 2.413431,7.006534 3.923034,9.335852 1.943906,2.999446 4.608908,5.537103 7.260483,6.91355 l 0.667657,0.346584 2.32e-4,4.395343 2.32e-4,4.395343 -0.416706,0.948115 c -0.683745,1.5557 -4.25885,9.541493 -4.287066,9.576118 -0.01434,0.0176 -0.856758,-0.28662 -1.872032,-0.676049 -5.519432,-2.117088 -9.916259,-2.79481 -15.861832,-2.444922 -4.481288,0.263715 -7.779712,0.947094 -12.929382,2.678753 -0.955855,0.321452 -1.744728,0.584457 -1.752962,0.584457 -0.0082,0 -1.251676,-2.696551 -2.763205,-5.992335 z m 9.908767,-1.381248 c 1.604007,-0.520064 2.188458,-1.372434 1.448452,-2.112439 -0.354159,-0.35416 -0.70068,-0.329586 -2.198833,0.155931 -0.776151,0.251534 -1.149444,0.301673 -2.265161,0.304248 -1.229472,0.0028 -1.409878,-0.02614 -2.265162,-0.363813 -0.511114,-0.201791 -1.069254,-0.367135 -1.240312,-0.367429 -0.704038,-0.0012 -1.075767,1.202984 -0.529714,1.715975 0.144547,0.135794 0.513968,0.357997 0.820938,0.493784 1.014949,0.448961 1.87857,0.576032 3.620817,0.532757 1.387136,-0.03445 1.770771,-0.08725 2.608975,-0.359014 z m 22.420997,0.114218 c 0.86371,-0.223809 1.713484,-0.631111 2.016611,-0.966576 0.11722,-0.129725 0.2406,-0.440683 0.274176,-0.691018 0.053,-0.395146 0.01901,-0.488227 -0.257833,-0.705989 -0.41125,-0.32349 -0.510577,-0.317906 -1.695406,0.0953 -1.169318,0.407799 -2.42387,0.607969 -3.203127,0.511075 -0.30703,-0.03818 -1.072526,-0.228993 -1.701107,-0.424037 -0.88083,-0.273315 -1.213693,-0.329717 -1.451756,-0.245994 -0.406493,0.142954 -0.643322,0.648109 -0.546304,1.165256 0.125188,0.667309 1.254496,1.220362 3.02477,1.481311 0.685628,0.101066 2.811936,-0.03068 3.539976,-0.219332 z m -4.356171,-6.302565 1.62933,-0.784094 h 1.452027 1.452026 l 1.546913,0.726013 c 0.850802,0.399308 1.650341,0.726014 1.776753,0.726014 0.379556,0 0.80009,-0.515236 0.80009,-0.980266 0,-0.55422 -0.43025,-0.998775 -1.452026,-1.500306 -2.6619,-1.306571 -4.96191,-1.421885 -7.393817,-0.370699 -1.811746,0.783122 -2.576426,1.500373 -2.319643,2.175764 0.101505,0.266977 0.638758,0.791669 0.810621,0.791669 0.03762,0 0.801595,-0.352843 1.697726,-0.784095 z m -24.779107,0.05403 c 1.363452,-0.696801 2.086895,-0.8962 3.251511,-0.8962 0.971572,0 2.195439,0.376745 3.423663,1.053911 0.98163,0.54121 1.362684,0.571557 1.808896,0.144058 0.700298,-0.670928 0.2171,-1.461505 -1.363093,-2.23021 -2.819289,-1.37148 -5.068464,-1.379964 -7.829932,-0.02954 -1.128671,0.551948 -1.7489,1.130064 -1.7489,1.630147 0,0.462397 0.476251,0.941737 0.935669,0.941737 0.176514,0 0.861498,-0.276258 1.522186,-0.613908 z"
     id="path1215" /><path
     style="fill:#BD9B7D;fill-rule:evenodd;stroke-width:0.0116162;stroke-linejoin:round;stroke-miterlimit:4;stroke-dasharray:none"
     d="M 46.464856,93.27453 C 42.613043,93.0252 38.396893,91.980975 35.487534,90.555747 34.071678,89.862152 31.954826,88.502069 31.432995,87.950696 l -0.33735,-0.356449 0.918161,-0.993551 c 2.258981,-2.444467 3.601642,-4.092677 4.519785,-5.548355 0.191339,-0.303359 0.404118,-0.551656 0.472843,-0.55177 0.06872,-1.14e-4 0.25168,0.135366 0.406567,0.301066 0.596545,0.638192 2.187424,1.909463 3.240178,2.589225 1.19174,0.769505 2.936578,1.553602 4.591975,2.063546 1.028707,0.316893 1.094784,0.322128 4.123756,0.326693 3.308565,0.005 3.296581,0.0065 5.517701,-0.714765 2.157239,-0.700558 4.214104,-1.897537 6.214675,-3.616588 0.606947,-0.521537 1.129677,-0.948058 1.161621,-0.947823 0.03195,2.35e-4 0.289996,0.378959 0.573446,0.841608 0.841538,1.373563 1.722756,2.597434 3.178602,4.414569 1.006378,1.256125 1.355386,1.772979 1.30481,1.932326 -0.08663,0.272954 -1.790736,1.492318 -3.021973,2.162358 -2.368401,1.288887 -5.600458,2.366584 -8.84125,2.948028 -2.344888,0.420706 -6.460758,0.637546 -8.991686,0.473716 z"
     id="path1291" /><path
     style="fill:#BD9B7D;fill-rule:evenodd;stroke-width:0.0116162;stroke-linejoin:round;stroke-miterlimit:4;stroke-dasharray:none"
     d="m 67.955286,65.555144 -4.34e-4,-1.52849 1.288243,-2.885487 c 1.886141,-4.224698 3.290556,-7.182472 4.026187,-8.479372 0.35686,-0.629137 1.051253,-1.88914 1.543094,-2.800007 l 0.894256,-1.656121 0.490598,0.532235 c 1.666097,1.807502 1.544623,4.764591 -0.311311,7.578386 -0.636309,0.964712 -2.240696,2.588314 -3.59492,3.637973 l -1.181556,0.915824 -1.326521,2.700209 c -0.729588,1.485114 -1.439175,2.883162 -1.576862,3.106775 l -0.250339,0.406567 z"
     id="path1330" /><path
     style="fill:#BD9B7D;fill-rule:evenodd;stroke-width:0.0116162;stroke-linejoin:round;stroke-miterlimit:4;stroke-dasharray:none"
     d="m 30.641666,66.009136 c -0.480894,-1.006254 -1.09472,-2.336656 -1.364057,-2.956447 -0.269337,-0.619791 -0.61944,-1.256629 -0.778007,-1.415196 -0.158566,-0.158566 -0.680795,-0.420267 -1.160508,-0.581556 -1.359401,-0.457058 -2.326348,-1.05552 -3.313881,-2.051023 -0.717186,-0.722975 -0.994092,-1.111373 -1.415766,-1.985803 -0.758317,-1.572531 -0.90075,-2.201576 -0.96984,-4.283231 -0.07139,-2.151075 0.07215,-3.271339 0.543191,-4.239292 0.302781,-0.622191 0.985514,-1.456681 1.085097,-1.32629 0.02084,0.02729 0.208019,0.467796 0.415953,0.978909 0.207934,0.511114 0.868831,1.817938 1.46866,2.904054 1.236427,2.23881 3.041763,5.922921 4.496939,9.176809 1.54658,3.458272 1.612592,3.65388 1.72356,5.107281 0.05382,0.704901 0.129795,1.55607 0.168833,1.891488 0.03904,0.335418 0.0492,0.609851 0.02258,0.609851 -0.02662,0 -0.441859,-0.823299 -0.922753,-1.829554 z"
     id="path1369" /><path
     style="fill:none;stroke:#000000;stroke-width:0.1;stroke-linecap:butt;stroke-linejoin:miter;stroke-opacity:1;stroke-miterlimit:4;stroke-dasharray:none"
     d="m 46.408556,9.3638503 h 6.119358"
     id="path1515" /></svg>
